<svg id="Layer_1" data-name="Layer 1" xmlns="http://www.w3.org/2000/svg"
    viewBox="0 0 1658.50024 1897.12681">
  <title>app_logo</title>
  <text transform="translate(803.71605 1099.30518)"
      style="font-size:21.51106071472168px;fill:aqua;font-family:MyriadPro-Regular, Myriad Pro">e
    <tspan x="10.77686" y="0" style="letter-spacing:-0.0059925566530421946em">c</tspan>
    <tspan x="20.28467" y="0">omme</tspan>
    <tspan x="78.75146" y="0" style="letter-spacing:-0.009987594421736991em">r</tspan>
    <tspan x="85.5708" y="0" style="letter-spacing:-0.0059925566530421946em">c</tspan>
    <tspan x="95.07861" y="0">e</tspan>
  </text>
  <path
      d="M885.86865,609.27344H835.395v34.17529h59.23633v21.11816h-85.5249V536.98047h85.3496v21.29346H835.395v30.40722h50.47363Z"
      transform="translate(-694.39479 -535.22803)" style="fill:#007acc" />
  <path
      d="M1019.18652,622.06738q-1.49121,20.59278-15.20361,32.42237-13.71532,11.82935-36.14648,11.82959-24.53686,0-38.60059-16.51758-14.064-16.51684-14.064-45.34766v-7.79883q0-18.40209,6.48437-32.42236a48.59487,48.59487,0,0,1,18.5332-21.5127q12.04761-7.49266,27.99707-7.49218,22.08252,0,35.57715,11.82959,13.49341,11.83008,15.59766,33.21093H993.07324q-.96533-12.35522-6.8789-17.91992-5.915-5.56347-18.00782-5.56445-13.144,0-19.67236,9.42041-6.52881,9.4204-6.70361,29.22363v9.63916q0,20.6814,6.26562,30.23194,6.26367,9.55151,19.76026,9.55127,12.17871,0,18.18261-5.56446,6.00147-5.56347,6.87891-17.21875Z"
      transform="translate(-694.39479 -535.22803)" style="fill:#007acc" />
  <path
      d="M1150.22559,603.66553q0,18.84081-6.65967,33.03564a50.15872,50.15872,0,0,1-19.05908,21.90723,56.31948,56.31948,0,0,1-56.73926.0874,50.64144,50.64144,0,0,1-19.27832-21.77539q-6.835-14.15112-6.92237-32.5542v-6.30908q0-18.83935,6.791-33.167a50.55363,50.55363,0,0,1,19.19043-21.99463,56.23619,56.23619,0,0,1,56.69531,0,50.57,50.57,0,0,1,19.19092,21.99463q6.78956,14.32691,6.791,33.07959Zm-26.63868-5.78369q0-20.06544-7.18554-30.49463-7.18653-10.42675-20.50537-10.42774-13.23193,0-20.417,10.29639-7.18652,10.29785-7.27343,30.188v6.22168q0,19.54174,7.18554,30.31933,7.18432,10.77832,20.68018,10.77832,13.23046,0,20.33008-10.38427,7.09789-10.38356,7.18554-30.27539Z"
      transform="translate(-694.39479 -535.22803)" style="fill:#007acc" />
  <path
      d="M1212.65186,536.98047l32.77294,92.53516,32.59766-92.53516h34.52539V664.56689h-26.376v-34.876l2.6289-60.20069-34.438,95.07666h-18.05127l-34.35009-94.98876,2.6289,60.11279v34.876h-26.28857V536.98047Z"
      transform="translate(-694.39479 -535.22803)" style="fill:#007acc" />
  <path
      d="M1378.82959,536.98047l32.773,92.53516,32.59766-92.53516h34.52539V664.56689h-26.376v-34.876l2.62891-60.20069-34.438,95.07666h-18.05127l-34.3501-94.98876,2.62891,60.11279v34.876h-26.28858V536.98047Z"
      transform="translate(-694.39479 -535.22803)" style="fill:#007acc" />
  <path
      d="M1587.41992,609.27344h-50.47363v34.17529h59.23633v21.11816h-85.52539V536.98047h85.34961v21.29346h-59.06055v30.40722h50.47363Z"
      transform="translate(-694.39479 -535.22803)" style="fill:#007acc" />
  <path
      d="M1667.80957,617.86133h-20.94238v46.70556h-26.28906V536.98047h47.40722q22.60841,0,34.876,10.07715,12.2666,10.07813,12.26758,28.479,0,13.05836-5.65137,21.77588-5.65284,8.72022-17.13184,13.88867l27.60254,52.13916v1.22656h-28.21582Zm-20.94238-21.29395h21.20605q9.90089,0,15.335-5.03857,5.43165-5.0376,5.43262-13.88916,0-9.02416-5.126-14.1958-5.12694-5.1687-15.72949-5.16992h-21.11816Z"
      transform="translate(-694.39479 -535.22803)" style="fill:#007acc" />
  <path
      d="M1844.24121,622.06738q-1.49121,20.59278-15.20508,32.42237-13.71387,11.82935-36.1455,11.82959-24.5376,0-38.60059-16.51758-14.064-16.51684-14.06445-45.34766v-7.79883q0-18.40209,6.48437-32.42236a48.60094,48.60094,0,0,1,18.5332-21.5127q12.04835-7.49266,27.99707-7.49218,22.08252,0,35.57715,11.82959,13.49415,11.83008,15.59766,33.21093h-26.28711q-.9668-12.35522-6.87891-17.91992-5.915-5.56347-18.00879-5.56445-13.144,0-19.67187,9.42041-6.52881,9.4204-6.7041,29.22363v9.63916q0,20.6814,6.26562,30.23194,6.26367,9.55151,19.76075,9.55127,12.17871,0,18.18261-5.56446,6-5.56347,6.87891-17.21875Z"
      transform="translate(-694.39479 -535.22803)" style="fill:#007acc" />
  <path
      d="M1947.23926,609.27344h-50.47461v34.17529h59.2373v21.11816h-85.52539V536.98047h85.34961v21.29346h-59.06152v30.40722h50.47461Z"
      transform="translate(-694.39479 -535.22803)" style="fill:#007acc" />
  <path
      d="M2054.00391,628.72705H1996.082l-13.14453,35.83984h-11.30371l48.2832-127.58642h10.252l48.2832,127.58642h-11.21582Zm-54.5918-9.11328h51.1748L2024.999,550.12451Z"
      transform="translate(-694.39479 -535.22803)" style="fill:#007acc" />
  <path
      d="M2116.95508,612.60352v51.96337h-10.77735V536.98047h43.4629q19.89111,0,31.415,10.16455,11.521,10.16674,11.52247,27.95361,0,17.96412-11.085,27.73438-11.08593,9.772-32.11523,9.77051Zm0-9.11329h32.68555q15.68555,0,23.92285-7.45947,8.23535-7.459,8.2373-20.80078,0-13.251-8.19336-21.106-8.1958-7.85376-23.26562-8.03027h-33.38672Z"
      transform="translate(-694.39479 -535.22803)" style="fill:#007acc" />
  <path
      d="M2236.42773,612.60352v51.96337h-10.77734V536.98047h43.46289q19.89111,0,31.415,10.16455,11.521,10.16674,11.52246,27.95361,0,17.96412-11.085,27.73438-11.08593,9.772-32.11523,9.77051Zm0-9.11329h32.68555q15.68554,0,23.92285-7.45947,8.23536-7.459,8.23731-20.80078,0-13.251-8.19336-21.106-8.1958-7.85376-23.26563-8.03027h-33.38672Z"
      transform="translate(-694.39479 -535.22803)" style="fill:#007acc" />
  <path
      d="M2173.76021,2428.80282A825.549,825.549,0,0,0,2352.895,1914.07118c0-457.93669-371.26789-829.1673-829.25012-829.1673s-829.25012,371.23061-829.25012,829.1673a825.54905,825.54905,0,0,0,179.13483,514.73164Z"
      transform="translate(-694.39479 -535.22803)" style="fill:#d9ffff" />
  <rect x="1309.07038" y="1705.51126" width="146.81069" height="188.49895" style="fill:#ffa305" />
  <polygon
      points="1455.881 1894.01 1455.881 1705.511 1542.084 1705.511 1540.74 1894.01 1455.881 1894.01"
      style="fill:#de7f04" />
  <rect x="1363.90746" y="1705.51126" width="21.93949" height="42.8997" style="fill:#ffc766" />
  <polygon
      points="1241.309 1894.01 1241.309 1705.511 1309.07 1705.511 1308.013 1894.01 1241.309 1894.01"
      style="fill:#de7f04" />
  <rect x="1208.34912" y="1558.46987" width="108.76747" height="147.04139" style="fill:#de7f04" />
  <polygon
      points="1221.05 1705.511 1221.05 1558.47 1135.351 1558.47 1136.489 1705.511 1221.05 1705.511"
      style="fill:#ffa305" />
  <rect x="1257.22602" y="1558.46987" width="17.1142" height="33.46458" style="fill:#ffc766" />
  <rect x="1389.42353" y="1558.46987" width="108.76747" height="147.04139" style="fill:#ffa305" />
  <polygon
      points="1389.424 1705.511 1389.424 1558.47 1316.425 1558.47 1317.564 1705.511 1389.424 1705.511"
      style="fill:#ffa305" />
  <rect x="1432.944" y="1558.46987" width="65.247" height="147.04139" style="fill:#de7f04" />
  <rect x="1092.80136" y="1705.51126" width="152.07893" height="188.49895" style="fill:#ffa305" />
  <rect x="1157.87108" y="1705.51126" width="21.93949" height="42.8997" style="fill:#ffc766" />
  <rect x="1365.36143" y="1558.46987" width="17.11438" height="33.46458" style="fill:#ffc766" />
  <rect x="1289.1436" y="1413.87626" width="108.76747" height="147.04122" style="fill:#de7f04" />
  <polygon
      points="1301.845 1560.917 1301.845 1413.876 1216.145 1413.876 1217.284 1560.917 1301.845 1560.917"
      style="fill:#ffa305" />
  <rect x="1338.02033" y="1413.87626" width="17.11438" height="33.46458" style="fill:#ffc766" />
  <ellipse cx="2121.58068" cy="1084.90383" rx="71.64982" ry="71.65699"
      transform="translate(335.65719 2667.85569) rotate(-89.82094)" style="fill:#d9ffff" />
  <path
      d="M1843.29826,1043.35741c-10.97512-65.00841-111.09586-94.3565-109.13459-51.92682l-458.97138,2.68781c-31.78941.18625-57.56612,28.78217-57.59372,63.90274l-.95223,1206.97582c-.0285,36.38417,26.19636,66.132,58.59579,66.41l468.53663,4.01934c2.907,6.10556,8.35113,11.66186,16.92651,16.30055,53.73231,1.14474,79.50436-25.38862,88.91922-55.38454a72.22753,72.22753,0,0,0,4.65768-26.32919C1852.40677,2254.30022,1846.6945,1058.60087,1843.29826,1043.35741Z"
      transform="translate(-694.39479 -535.22803)" style="fill:#4d4d4d" />
  <path
      d="M1755.69678,2351.918l-537.81265-3.46615c-33.561-.21637-60.70656-30.76907-60.64561-68.20585l2.01827-1241.26518c.0588-36.1004,26.77519-65.42465,59.68676-65.53148l527.36419-1.71318c33.172-.10774,60.29982,29.1751,60.57785,65.43935l9.559,1247.004C1816.73282,2321.79227,1789.52867,2352.136,1755.69678,2351.918Z"
      transform="translate(-694.39479 -535.22803)" style="fill:#4d4d4d" />
  <path
      d="M1763.12115,2342.88924a48.57033,48.57033,0,0,1-6.79535.425l-537.64756-4.067c-28.83827-.21834-52.40938-27.00338-52.36044-59.68012l1.85766-1239.90316c.04733-31.51568,23.24593-57.23539,51.53245-57.35782l527.32941-2.2938c.82442-.00323,1.658.014,2.4779.052a49.90108,49.90108,0,0,1,34.93988,17.004,59.59332,59.59332,0,0,1,14.85644,39.47549l9.43225,1248.2672C1808.96786,2314.39605,1789.42308,2339.36466,1763.12115,2342.88924Z"
      transform="translate(-694.39479 -535.22803)" style="fill:#0d0d0d" />
  <polygon
      points="1086.425 507.591 1093.986 1751.512 489.811 1747.886 491.356 507.591 1086.425 507.591"
      style="fill:#fff" />
  <polygon points="673.979 767.874 740.731 767.329 955.264 503.188 888.214 503.738 673.979 767.874"
      style="fill:#f13005" />
  <polygon points="740.731 767.329 807.436 766.784 1022.315 502.638 955.264 503.188 740.731 767.329"
      style="fill:#f1e3e0" />
  <polygon points="807.436 766.784 874.19 766.239 1089.319 502.089 1022.315 502.638 807.436 766.784"
      style="fill:#f13005" />
  <polygon points="607.277 768.419 673.979 767.874 888.214 503.738 821.213 504.288 607.277 768.419"
      style="fill:#f1e3e0" />
  <polygon points="473.829 769.509 540.529 768.964 754.166 504.838 687.167 505.388 473.829 769.509"
      style="fill:#f1e3e0" />
  <polygon points="280.205 771.09 340.384 770.599 553.126 506.488 492.726 506.983 280.205 771.09"
      style="fill:#f13005" />
  <polygon points="340.384 770.599 407.082 770.054 620.122 505.938 553.126 506.488 340.384 770.599"
      style="fill:#f1e3e0" />
  <polygon points="540.529 768.964 607.277 768.419 821.213 504.288 754.166 504.838 540.529 768.964"
      style="fill:#f13005" />
  <polygon points="407.082 770.054 473.829 769.509 687.167 505.388 620.122 505.938 407.082 770.054"
      style="fill:#f13005" />
  <path
      d="M1501.83072,1302.012l-.0242,40.20938c-.02545,42.60715,66.63555,42.06345,66.70886-.54441l.0692-40.21027Z"
      transform="translate(-694.39479 -535.22803)" style="fill:#d62b04" />
  <path
      d="M1435.12563,1302.55678l.021,40.20884c.02241,42.60625,66.63447,42.06292,66.65992-.54423l.0242-40.20938Z"
      transform="translate(-694.39479 -535.22803)" style="fill:#f1c5bc" />
  <path
      d="M1368.3741,1303.10208l.06615,40.208c.07027,42.60553,66.72876,42.06184,66.70635-.54441l-.021-40.20884Z"
      transform="translate(-694.39479 -535.22803)" style="fill:#d62b04" />
  <path
      d="M1301.67152,1303.64685l.11132,40.20723c.11795,42.60481,66.72768,42.06148,66.65741-.544l-.06615-40.208Z"
      transform="translate(-694.39479 -535.22803)" style="fill:#f1c5bc" />
  <path
      d="M1234.92358,1304.19216l.15649,40.20651c.16582,42.60392,66.82072,42.06022,66.70277-.54459l-.11132-40.20723Z"
      transform="translate(-694.39479 -535.22803)" style="fill:#d62b04" />
  <path
      d="M1168.22332,1304.73693l.20167,40.20579c.2135,42.6032,66.8209,42.05987,66.65508-.544l-.15649-40.20651Z"
      transform="translate(-694.39479 -535.22803)" style="fill:#f1c5bc" />
  <path
      d="M1101.47682,1305.28205l.24666,40.20508c.26154,42.60248,66.915,42.05879,66.70151-.54441l-.20167-40.20579Z"
      transform="translate(-694.39479 -535.22803)" style="fill:#d62b04" />
  <path
      d="M1034.77907,1305.82682l.29184,40.20436c.30922,42.60177,66.91411,42.05843,66.65257-.544l-.24666-40.20508Z"
      transform="translate(-694.39479 -535.22803)" style="fill:#f1c5bc" />
  <path
      d="M974.59936,1306.31853l.33252,40.20364c.35225,42.60087,60.44825,42.11078,60.139-.491l-.29184-40.20436Z"
      transform="translate(-694.39479 -535.22803)" style="fill:#d62b04" />
  <polygon points="874.19 766.239 868.962 766.963 1089.61 765.007 1089.319 502.089 874.19 766.239"
      style="fill:#f1e3e0" />
  <polygon
      points="1053.924 1383.602 525.51 1383.067 525.51 1376.081 1053.924 1376.642 1053.924 1383.602"
      style="fill:#04f2f5" />
  <polygon
      points="1053.924 1578.963 525.51 1578.428 525.51 1571.442 1053.924 1572.003 1053.924 1578.963"
      style="fill:#04f2f5" />
  <polygon
      points="1053.924 1183.767 525.51 1183.106 525.51 1177.348 1053.924 1178.031 1053.924 1183.767"
      style="fill:#04f2f5" />
  <path
      d="M1701.10869,1465.60456l-433.1002-2.53723c-15.59086-.09125-28.27934-13.09469-28.27934-28.98652,0-15.892,12.68848-28.73753,28.27934-28.635l433.1002,2.84824c15.41734.10128,27.9556,13.03409,27.9556,28.829C1729.06429,1452.91805,1716.526,1465.6949,1701.10869,1465.60456Zm-433.1002-58.24516a26.47842,26.47842,0,0,0-26.40053,26.73306c0,14.836,11.84543,26.97559,26.40053,27.06128l433.1002,2.54745c14.39359.08479,26.09938-11.84346,26.09938-26.58965s-11.70579-26.82-26.09938-26.91429Z"
      transform="translate(-694.39479 -535.22803)" style="fill:#04f2f5" />
  <path
      d="M1701.10887,1409.24539l-45.06174-.29578v55.43885l45.06174.26459c14.92922.08766,27.0274-12.24069,27.0274-27.53578C1728.13627,1421.822,1716.03809,1409.34344,1701.10887,1409.24539Z"
      transform="translate(-694.39479 -535.22803)" style="fill:#04f2f5" />
  <path
      d="M1684.41592,1444.88653a13.83873,13.83873,0,0,1-9.90638-4.26439,14.617,14.617,0,0,1,0-20.29766,13.66278,13.66278,0,0,1,9.90638-4.13962,13.84023,13.84023,0,0,1,9.90424,4.2669h0a14.61765,14.61765,0,0,1,0,20.29264A13.66341,13.66341,0,0,1,1684.41592,1444.88653Zm0-25.23929a10.36549,10.36549,0,0,0-7.516,3.14115,11.09027,11.09027,0,0,0,0,15.4,10.49994,10.49994,0,0,0,7.516,3.2358,10.366,10.366,0,0,0,7.51472-3.14259,11.0905,11.0905,0,0,0,0-15.39708A10.5005,10.5005,0,0,0,1684.41592,1419.64724Z"
      transform="translate(-694.39479 -535.22803)" style="fill:#4489c8" />
  <polygon
      points="1008.152 916.538 997.536 905.502 999.925 903.068 1010.541 914.105 1008.152 916.538"
      style="fill:#4489c8" />
  <path
      d="M1707.28559,1454.20262h0a2.98874,2.98874,0,0,1-4.29952-.02582l-8.89357-9.16676,4.30042-4.38,8.89267,9.16694A3.17,3.17,0,0,1,1707.28559,1454.20262Z"
      transform="translate(-694.39479 -535.22803)" style="fill:#4489c8" />
  <polygon
      points="693.54 1152.486 545.334 1151.786 545.334 1000.433 693.54 1001.299 693.54 1152.486"
      style="fill:#04f2f5" />
  <polygon points="866.038 1153.3 718.211 1152.602 718.211 1001.443 866.038 1002.307 866.038 1153.3"
      style="fill:#04f2f5" />
  <polygon
      points="1034.249 1154.094 886.792 1153.398 886.792 1002.428 1034.249 1003.29 1034.249 1154.094"
      style="fill:#04f2f5" />
  <polygon points="693.54 1355.449 545.334 1354.973 545.334 1203.62 693.54 1204.263 693.54 1355.449"
      style="fill:#04f2f5" />
  <polygon
      points="866.038 1356.004 718.211 1355.529 718.211 1204.37 866.038 1205.011 866.038 1356.004"
      style="fill:#04f2f5" />
  <polygon
      points="1034.249 1356.545 886.792 1356.071 886.792 1205.101 1034.249 1205.741 1034.249 1356.545"
      style="fill:#04f2f5" />
  <polygon
      points="693.54 1554.875 545.334 1554.618 545.334 1403.265 693.54 1403.689 693.54 1554.875"
      style="fill:#04f2f5" />
  <polygon
      points="866.038 1555.175 718.211 1554.918 718.211 1403.759 866.038 1404.182 866.038 1555.175"
      style="fill:#04f2f5" />
  <polygon
      points="1034.249 1555.467 886.792 1555.211 886.792 1404.241 1034.249 1404.662 1034.249 1555.467"
      style="fill:#04f2f5" />
  <path
      d="M1354.44318,1650.25339l-3.30159-1.00887c.06991-.24218,5.79329-25.29755,6.2504-34.83108.55014-11.47687-2.96387-21.64318-10.16326-29.40114-8.23175-8.87027-20.76679-14.00191-34.39225-14.07792-13.3227-.07439-24.91627,4.45279-32.64412,12.74853-7.10385,7.62586-10.50708,18.09009-9.84077,30.26034.52648,9.62261,5.3446,33.83242,5.39336,34.07585l-3.3767.68585c-.20041-1.004-4.91743-24.70564-5.4579-34.5837-.72008-13.16011,3.00725-24.52584,10.77866-32.86819,8.38537-9.0013,20.86824-13.91407,35.14747-13.83394,14.56353.08174,28.007,5.61618,36.885,15.18322,7.86462,8.475,11.70525,19.54065,11.10831,32.00112C1360.35263,1624.55358,1354.7334,1649.24954,1354.44318,1650.25339Z"
      transform="translate(-694.39479 -535.22803)" style="fill:#03abb0" />
  <path
      d="M1272.57762,1632.37375l4.50155,24.50128a5.2,5.2,0,0,0,5.4034,4.29791l-6.3325-34.77981A5.23385,5.23385,0,0,0,1272.57762,1632.37375Z"
      transform="translate(-694.39479 -535.22803)" style="fill:#03abb0" />
  <path
      d="M1283.09062,1661.10052l9.682-1.80639-6.3999-34.83753-9.68285,1.80388a5.10223,5.10223,0,0,0-.53975.13265l6.3325,34.77981A5.09911,5.09911,0,0,0,1283.09062,1661.10052Z"
      transform="translate(-694.39479 -535.22803)" style="fill:#03abb0" />
  <path
      d="M1295.33866,1662.72819h0a5.486,5.486,0,0,1-6.35885-4.46982l-5.78074-31.4671a5.521,5.521,0,0,1,4.34972-6.46677h0a5.48774,5.48774,0,0,1,6.359,4.47162l5.78,31.46459A5.52256,5.52256,0,0,1,1295.33866,1662.72819Z"
      transform="translate(-694.39479 -535.22803)" style="fill:#fff" />
  <path
      d="M1354.60057,1633.14474l-5.09741,24.31575a5.12743,5.12743,0,0,1-5.50145,4.10216l7.17932-34.5206A5.296,5.296,0,0,1,1354.60057,1633.14474Z"
      transform="translate(-694.39479 -535.22803)" style="fill:#03abb0" />
  <path
      d="M1343.39635,1661.46872l-9.626-2.14842,7.25012-34.58083,9.625,2.15057a5.14959,5.14959,0,0,1,.53563.152l-7.17932,34.5206A5.08922,5.08922,0,0,1,1343.39635,1661.46872Z"
      transform="translate(-694.39479 -535.22803)" style="fill:#03abb0" />
  <path
      d="M1331.12232,1662.661h0a5.41645,5.41645,0,0,0,6.4621-4.24091l6.54815-31.2337a5.58955,5.58955,0,0,0-4.18516-6.61806h0a5.41465,5.41465,0,0,0-6.46192,4.23911l-6.54905,31.236A5.58789,5.58789,0,0,0,1331.12232,1662.661Z"
      transform="translate(-694.39479 -535.22803)" style="fill:#fff" />
  <polygon
      points="810.831 1055.419 807.351 1061.752 743.89 1061.41 743.89 1116.909 840.405 1117.391 840.405 1062.598 836.585 1055.56 810.831 1055.419"
      style="fill:#fff" />
  <polygon
      points="803.291 1064.526 781.037 1064.406 781.037 1055.257 803.291 1055.378 803.291 1064.526"
      style="fill:#fff" />
  <polygon
      points="773.618 1064.366 751.355 1064.246 751.355 1055.095 773.618 1055.217 773.618 1064.366"
      style="fill:#fff" />
  <polygon points="840.405 1106.639 743.89 1106.15 743.89 1074.12 840.405 1074.632 840.405 1106.639"
      style="fill:#03abb0" />
  <path
      d="M1528.09089,1625.82865a22.23293,22.23293,0,0,1-22.11965,22.49824,22.51248,22.51248,0,0,1-22.12682-22.72769,22.23232,22.23232,0,0,1,22.12682-22.49807A22.513,22.513,0,0,1,1528.09089,1625.82865Z"
      transform="translate(-694.39479 -535.22803)" style="fill:#03abb0" />
  <path
      d="M1523.12076,1625.803a17.23652,17.23652,0,0,1-17.14952,17.44225,17.45334,17.45334,0,0,1-17.15382-17.62025,17.23628,17.23628,0,0,1,17.15382-17.44225A17.45377,17.45377,0,0,1,1523.12076,1625.803Z"
      transform="translate(-694.39479 -535.22803)" style="fill:#fff" />
  <path
      d="M1514.17377,1625.75659a8.24374,8.24374,0,0,1-8.20253,8.342,8.34747,8.34747,0,0,1-8.20342-8.42714,8.24357,8.24357,0,0,1,8.20342-8.342A8.34752,8.34752,0,0,1,1514.17377,1625.75659Z"
      transform="translate(-694.39479 -535.22803)" style="fill:#4489c8" />
  <path
      d="M1371.22,2058.53752c-.75522-15.22571-34.81763-24.81695-34.81763-24.81695s-31.17724-34.30818-44.21438-51.50305c-22.19315,8.65462-27.48559,19.38434-24.17755,38.062,10.81631-9.18433,29.26939,7.69952,51.6954,38.1565Z"
      transform="translate(-694.39479 -535.22803)" style="fill:#03abb0" />
  <path
      d="M1268.01046,2020.27956l7.39945,39.69813,3.56994.00681c.99023-17.86386,3.217-38.11241,15.04-31.63292C1294.01985,2012.41941,1268.01046,2012.35936,1268.01046,2020.27956Z"
      transform="translate(-694.39479 -535.22803)" style="fill:#03abb0" />
  <path
      d="M1323.867,1762.65946a26.86448,26.86448,0,0,1-1.295-6.15647l-1.65707-.007a23.06425,23.06425,0,0,1-.74554,4.94844c-1.16142,4.34882-4.42752,7.62012-8.297,7.8173-3.86984-.22909-7.13647-3.52763-8.29825-7.88649a23.1577,23.1577,0,0,1-.74554-4.95526l-1.6576-.007a26.71979,26.71979,0,0,1-1.29551,6.14661,32.25361,32.25361,0,0,1-7.91732,12.30343l2.643,24.81373,16.54882.06436,1.44465.00555,16.54452.06436,2.64137-24.78577A32.60942,32.60942,0,0,1,1323.867,1762.65946Z"
      transform="translate(-694.39479 -535.22803)" style="fill:#fff" />
  <path
      d="M1350.37346,1864.82232c-7.35875,7.5355-67.86651,8.08923-77.02413-.26244,4.13031-23.46785,9.538-46.13819,21.24254-64.88311l34.55663.13427C1339.617,1816.0682,1345.59424,1839.49035,1350.37346,1864.82232Z"
      transform="translate(-694.39479 -535.22803)" style="fill:#fff" />
  <path
      d="M1314.8734,1805.68661c-13.99492-.05378-20.61872-6.043-20.89424-6.29755a.53334.53334,0,0,1-.03657-.74267.50817.50817,0,0,1,.72779-.03657c.06507.05988,6.6385,5.97166,20.20337,6.024h.02062c12.07918.04051,13.74521-4.92657,13.76063-4.97659a.51287.51287,0,0,1,.64156-.34668.52764.52764,0,0,1,.34687.64963c-.0674.23573-1.79761,5.77017-14.74816,5.72661Z"
      transform="translate(-694.39479 -535.22803)" style="fill:#4489c8" />
  <path
      d="M1313.45582,1815.209a1.4403,1.4403,0,0,1-1.12181-.6387c-2.52665-3.16213,3.77663-9.12374,4.50388-9.79291l1.13-1.0406-.27677,1.53c-.39635,2.1875-1.85121,9.365-3.93545,9.90388A1.17837,1.17837,0,0,1,1313.45582,1815.209Zm2.887-8.463c-1.95769,2.09213-4.53148,5.50773-3.21017,7.16049.10218.12763.24881.28.36659.24361C1314.36018,1813.92785,1315.54938,1810.39735,1316.34278,1806.746Z"
      transform="translate(-694.39479 -535.22803)" style="fill:#4489c8" />
  <path
      d="M1316.63892,1806.44362l.02975-1.2887c.00681-.31424.20794-7.7291,3.05493-10.207a3.18417,3.18417,0,0,1,2.61431-.79429,1.83785,1.83785,0,0,1,1.68289,1.20946c.88177,2.71272-5.24064,8.95936-6.47716,10.18459Zm5.2322-11.27055a2.17087,2.17087,0,0,0-1.47619.57668c-1.82414,1.58716-2.42054,5.84527-2.61019,8.05733,2.58742-2.73083,5.72373-6.6808,5.25748-8.11613-.03173-.09751-.12888-.39544-.83929-.49386A2.40111,2.40111,0,0,0,1321.87112,1795.17307Z"
      transform="translate(-694.39479 -535.22803)" style="fill:#4489c8" />
  <path
      d="M1326.9757,1814.138a.51759.51759,0,0,1-.46374-.2974,16.17727,16.17727,0,0,0-9.45788-8.16219.52985.52985,0,0,1-.36909-.64372.51437.51437,0,0,1,.62866-.37483,16.99351,16.99351,0,0,1,10.1249,8.72274.52957.52957,0,0,1-.23716.70269A.51.51,0,0,1,1326.9757,1814.138Z"
      transform="translate(-694.39479 -535.22803)" style="fill:#4489c8" />
  <path
      d="M1469.49565,1778.976s10.399,3.49752,25.624-.42216c9.75168,12.04925-7.42634,17.79665-18.15122,15.18233C1466.24192,1791.12128,1469.49565,1778.976,1469.49565,1778.976Z"
      transform="translate(-694.39479 -535.22803)" style="fill:#fff" />
  <path
      d="M1495.11963,1778.5538a12.36015,12.36015,0,0,1-5.64666,7.99011c-7.29763,4.29666-16.72019-.30868-19.97732-7.568a69.84729,69.84729,0,0,0-14.46673,3.2211v83.12718l57.405.19557V1782.428A66.75937,66.75937,0,0,0,1495.11963,1778.5538Z"
      transform="translate(-694.39479 -535.22803)" style="fill:#03abb0" />
  <polygon
      points="760.634 1246.969 735.899 1266.44 752.167 1288.231 776.381 1269.878 760.634 1246.969"
      style="fill:#03abb0" />
  <polygon
      points="818.226 1247.201 842.958 1266.855 826.712 1288.508 802.489 1269.979 818.226 1247.201"
      style="fill:#03abb0" />
  <path
      d="M1600.02389,1851.98487l-1.14134-.00394v4.94718s61.79824,4.491,86.12206.299c24.315-4.19036,25.97712-12.37424,25.97712-12.37424v-5.08468l-.835-.00287Z"
      transform="translate(-694.39479 -535.22803)" style="fill:#03abb0" />
  <path
      d="M1710.01266,1842.17224c-6.37015,8.42069-25.679,10.94447-49.84777,11.2614-9.95443.14915-20.72753-.08927-31.76414-.44582-9.38671-.31728-18.97114-.70215-28.37686-1.003-.9325-7.06441,1.52137-20.20731,3.45181-27.44525a28.55962,28.55962,0,0,1,1.57031-4.7794l.36-.13265c3.22218,4.46283,11.12212,7.16892,15.79934,7.08592,7.65328-.15577,16.27025-5.49356,13.801-11.94312a17.98984,17.98984,0,0,1-.93178-2.39579c-1.962-6.41442,3.417-6.44382,11.47722-1.42816a94.96447,94.96447,0,0,0,37.22992,14.03812c2.124.34221,4.13371.61737,6.045.85847C1703.21821,1827.70211,1711.303,1827.78206,1710.01266,1842.17224Z"
      transform="translate(-694.39479 -535.22803)" style="fill:#fff" />
  <path
      d="M1709.20438,1842.16937c-6.37014,8.42069-25.67919,10.94447-49.84831,11.2614-.70269-3.54825-1.30751-12.88315,11.12983-15.163a25.70185,25.70185,0,0,0,17.53223-12.42766C1702.40993,1827.69906,1710.49468,1827.77919,1709.20438,1842.16937Z"
      transform="translate(-694.39479 -535.22803)" style="fill:#03abb0" />
  <path
      d="M1627.59158,1852.985c-9.38671-.31711-18.97133-.70216-28.377-1.003-.93268-7.06441,1.52119-20.20731,3.45181-27.44543C1610.68119,1827.394,1624.90951,1834.92445,1627.59158,1852.985Z"
      transform="translate(-694.39479 -535.22803)" style="fill:#03abb0" />
  <path
      d="M1682.78162,1824.98454c-1.83005,2.90292-4.65679,2.99291-7.36915,2.98287-24.43388-1.71264-36.82533-11.44389-41.338-15.59283-1.962-6.41442,3.417-6.44382,11.47722-1.42816A94.96447,94.96447,0,0,0,1682.78162,1824.98454Z"
      transform="translate(-694.39479 -535.22803)" style="fill:#03abb0" />
  <path
      d="M1653.75513,1854.3588c-12.53342-.04392-25.07366-.75289-35.33085-1.33243-9.01421-.50946-16.13491-.91279-19.04357-.56306l-.47037.057-.11347-.96262.47-.05611c2.99076-.36,10.14749.04517,19.2067.55767,28.69665,1.62176,82.07869,4.63869,91.25854-12.52768l.22694-.42431.82943.46751-.22658.42341C1704.23514,1851.82981,1679.0179,1854.4461,1653.75513,1854.3588Z"
      transform="translate(-694.39479 -535.22803)" style="fill:#d4e7f7" />
  <polygon
      points="977.406 1128.158 946.344 1128.006 946.344 1031.353 977.406 1031.528 977.406 1128.158"
      style="fill:#03abb0" />
  <path
      d="M1682.41719,1613.67615c0,15.51934-12.29358,28.03806-27.46174,27.96116-15.1714-.07708-27.47286-12.72559-27.47286-28.25138,0-15.526,12.30146-28.04451,27.47286-27.96116C1670.12361,1585.50813,1682.41719,1598.15664,1682.41719,1613.67615Z"
      transform="translate(-694.39479 -535.22803)" style="fill:#fff" />
  <path
      d="M1677.06434,1613.64783a22.23245,22.23245,0,0,1-22.10889,22.51007c-12.21345-.06256-22.11607-10.24518-22.11607-22.74383a22.23162,22.23162,0,0,1,22.11607-22.50989C1667.16674,1590.97068,1677.06434,1601.15331,1677.06434,1613.64783Z"
      transform="translate(-694.39479 -535.22803)" style="fill:#03abb0" />
  <polygon
      points="938.162 1065.738 934.643 1063.188 938.834 1057.113 942.352 1059.663 938.162 1065.738"
      style="fill:#fff" />
  <rect x="1625.5285" y="1613.55255" width="4.30022" height="7.4561"
      transform="translate(-891.90688 -308.49161) rotate(-7.51399)" style="fill:#fff" />
  <polygon
      points="982.765 1065.825 986.316 1063.367 982.216 1057.188 978.664 1059.646 982.765 1065.825"
      style="fill:#fff" />
  <polygon
      points="985.104 1086.054 989.364 1086.661 990.331 1079.281 986.071 1078.674 985.104 1086.054"
      style="fill:#fff" />
  <path
      d="M1655.01155,1614.74776l-10.79335-5.75134a1.07037,1.07037,0,0,1-.44385-1.42278,1.01447,1.01447,0,0,1,1.38908-.44689l9.73609,5.18739,13.7133-8.92171a1.021,1.021,0,0,1,1.42421.32625,1.06791,1.06791,0,0,1-.31173,1.4563Z"
      transform="translate(-694.39479 -535.22803)" style="fill:#fff" />
  <path
      d="M1433.38466,2038.03837c5.14222,1.616,12.52841,2.90956,20.95895,3.83238a317.8583,317.8583,0,0,0,44.91224,1.50093c14.15571-.56359,25.97586-2.22675,30.42453-5.129,0,0,9.44945-57.296-46.231-58.70782-.62364-.01685-1.26181-.026-1.89979-.02761C1423.71652,1979.35942,1433.38466,2038.03837,1433.38466,2038.03837Z"
      transform="translate(-694.39479 -535.22803)" style="fill:#03abb0" />
  <path
      d="M1454.34361,2041.87075a317.8583,317.8583,0,0,0,44.91224,1.50093c7.86337-52.04422-14.60064-63.271-15.80651-63.83677-.035-.01524-.04894-.02294-.04894-.02294l-1.85085-.00467C1452.21151,1996.18179,1453.64217,2033.56318,1454.34361,2041.87075Z"
      transform="translate(-694.39479 -535.22803)" style="fill:#fff" />
  <path
      d="M1523.66409,2040.42234s-15.74825,26.73413-88.845,20.54056c-31.29268-2.65142-1.43281-22.92255-1.43281-22.92255C1453.08647,2042.89,1491.02034,2045.18614,1523.66409,2040.42234Z"
      transform="translate(-694.39479 -535.22803)" style="fill:#03abb0" />
  <path
      d="M1637.403,1995.56872l33.6788.08228a35.30137,35.30137,0,0,1,35.04924,35.43554c-.04589,7.82626-2.4883,14.76125-8.37874,18.39052l-88.79284-.18123c-5.60937-2.67687-7.77069-11.979-6.278-23.11489A35.11343,35.11343,0,0,1,1637.403,1995.56872Z"
      transform="translate(-694.39479 -535.22803)" style="fill:#03abb0" />
  <path
      d="M1642.50287,1996.49155l.02492-.30062a12.80168,12.80168,0,0,1,25.53058.0622l.0251.3008,4.34667.01057-.05593-.67473a17.12629,17.12629,0,0,0-34.164-.08335l-.05593.67455Z"
      transform="translate(-694.39479 -535.22803)" style="fill:#03abb0" />
  <polygon
      points="956.818 1514.154 948.49 1514.137 948.49 1480.804 956.818 1480.823 956.818 1514.154"
      style="fill:#fff" />
  <polygon
      points="973.307 1514.188 964.98 1514.171 964.98 1480.841 973.307 1480.861 973.307 1514.188"
      style="fill:#fff" />
  <rect x="489.81089" y="1685.16843" width="604.17501" height="66.34371" style="fill:#04f2f5" />
  <polygon
      points="821.343 1738.426 784.938 1738.426 784.938 1712.13 803.14 1698.255 821.343 1712.13 821.343 1738.426"
      style="fill:#fff" />
  <rect x="560.68214" y="1706.32671" width="45.1035" height="24.02714" style="fill:#fff" />
  <rect x="1005.43417" y="1706.32671" width="45.1035" height="24.02714" style="fill:#fff" />
  <rect x="576.27838" y="1799.39738" width="624.37354" height="48.86471" style="fill:#0d0d0d" />
  <rect x="303.70128" y="1799.39738" width="712.61982" height="48.86471" style="fill:#4d4d4d" />
  <rect x="160.37969" y="1848.2621" width="817.4807" height="48.86471" style="fill:#4d4d4d" />
  <rect x="914.02971" y="1848.2621" width="286.62221" height="48.86471" style="fill:#0d0d0d" />
  <path
      d="M1260.16144,1873.19819c-15.617,45.77268-6.00249,142.85175-28.2763,206.85416-34.56183,99.31157-17.39313,143.08569-33.16325,219.68014l36.3978,2.7579c33.808-150.36629,109.50817-363.28138,118.84236-411.70978S1274.82284,1835.85354,1260.16144,1873.19819Z"
      transform="translate(-694.39479 -535.22803)" style="fill:#014a91" />
  <path
      d="M1317.51442,1929.18611c1.51007,17.83034,25.78925,120.41249,11.82337,169.3853-22.05959,77.354-10.55028,212.44489-10.55028,212.44489l29.30955-.1927c28.54249-125.4131,67.46712-308.262,64.36648-423.775C1408.15971,1838.48506,1308.39606,1821.50961,1317.51442,1929.18611Z"
      transform="translate(-694.39479 -535.22803)" style="fill:#014a91" />
  <ellipse cx="640.30988" cy="1353.41761" rx="77.75" ry="59.05074" style="fill:#014a91" />
  <path
      d="M1359.61946,2373.66674c-3.07877-1.71228-9.56185-3.27632-9.56185-3.27632l-6.30131-27.82635,32.75956-151.77975-62.428-5.89385.15793,147.24969-4.59351,17.019s21.301,31.73832,26.18148,31.73832c4.88068,0,23.74391.3743,26.72732.3743C1362.60143,2379.38617,1362.31157,2375.16409,1359.61946,2373.66674Z"
      transform="translate(-694.39479 -535.22803)" style="fill:#a64b30" />
  <polygon
      points="615.258 1813.931 619.696 1847.574 621.707 1847.574 636.558 1812.601 615.258 1813.931"
      style="fill:#a64b30" />
  <path
      d="M1239.22687,2373.66674c-2.97337-1.71228-9.35983-3.27632-9.35983-3.27632l-4.58938-27.82635,41.7363-158.62134-57.82-6.39416-12.78546,154.59159-6.24286,15.68874s19.95007,33.0686,24.83076,33.0686,23.72061.3743,26.70419.3743C1241.857,2379.38617,1241.8272,2375.16409,1239.22687,2373.66674Z"
      transform="translate(-694.39479 -535.22803)" style="fill:#a64b30" />
  <polygon
      points="495.771 1812.601 498.742 1847.574 500.752 1847.574 517.756 1812.601 495.771 1812.601"
      style="fill:#a64b30" />
  <path
      d="M1290.21042,1814.15157c-19.50928,23.31423-28.88093,46.82941-32.4688,69.14947,0,0,25.33555,19.39724,70.87968,19.57148,22.94513.08766,71.65622-5.77393,83.58429-19.14843-1.47763-12.31975-5.652-40.32177-18.61442-76.78536C1381.8377,1773.8764,1307.4173,1770.696,1290.21042,1814.15157Z"
      transform="translate(-694.39479 -535.22803)" style="fill:#014a91" />
  <path
      d="M1317.28138,1896.55687c4.59691-15.34993,5.48783-33.59168,5.48783-33.59168l-46.82134-4.06236c-1.63663,11.83216-3.08236,22.8772-3.36361,32.36376l19.97,15.04627Z"
      transform="translate(-694.39479 -535.22803)" style="fill:#0d64b8" />
  <path
      d="M1386.106,1899.4822c3.77161-15.57329,3.68843-33.83655,3.68843-33.83655l-46.97156-1.55973c-1.00313,11.90261-1.85766,23.00895-1.63251,32.49695l20.74384,13.96014Z"
      transform="translate(-694.39479 -535.22803)" style="fill:#0d64b8" />
  <path
      d="M1303.30779,1668.00288s-40.39186-29.73671-120.59927,103.10559c-10.18711,16.8722-44.86025,97.63908-44.86025,97.63908l20.80532,13.59768,62.22255-88.16435S1345.5315,1689.85866,1303.30779,1668.00288Z"
      transform="translate(-694.39479 -535.22803)" style="fill:#f7a58e" />
  <path
      d="M1121.72572,1929.1707a.57107.57107,0,0,1-.27982-.95223c.22246-.23106,22.23509-23.25041,21.21565-36.41214a7.98144,7.98144,0,0,0-3.17181-6.00266c-13.12659-9.96751-46.712,24.82879-47.04936,25.18157a.57148.57148,0,0,1-.82549-.79053c1.4079-1.4701,34.6364-35.883,48.56607-25.301a9.08091,9.08091,0,0,1,3.62013,6.82475c1.05817,13.67153-20.60939,36.3347-21.53221,37.29266A.571.571,0,0,1,1121.72572,1929.1707Z"
      transform="translate(-694.39479 -535.22803)" style="fill:#103558" />
  <path
      d="M1110.35874,1921.3231a.57129.57129,0,0,1-.19611-1.02428c.28126-.19683,28.1345-19.82353,28.36772-31.75858a6.15237,6.15237,0,0,0-2.65985-5.28868c-13.19668-10.02308-54.45974,19.65269-54.87472,19.95349a.57147.57147,0,0,1-.67061-.92552c1.72357-1.24907,42.37016-30.4706,56.23655-19.93789a7.317,7.317,0,0,1,3.11122,6.22118c-.24469,12.51281-27.68707,31.8552-28.8553,32.67226A.57083.57083,0,0,1,1110.35874,1921.3231Z"
      transform="translate(-694.39479 -535.22803)" style="fill:#103558" />
  <polygon
      points="361.985 1349.09 244.323 1488.778 285.129 1515.804 383.421 1363.288 361.985 1349.09"
      style="fill:#f05b5b" />
  <polygon
      points="388.437 1366.61 284.925 1515.668 351.919 1560.038 442.807 1402.619 388.437 1366.61"
      style="fill:#e54547" />
  <polygon
      points="377.806 1359.569 281.753 1482.145 285.129 1515.804 388.607 1366.722 377.806 1359.569"
      style="fill:#f1696a" />
  <polygon points="281.753 1482.145 244.118 1488.642 284.925 1515.668 281.753 1482.145"
      style="fill:#f05b5b" />
  <polygon
      points="404.688 1380.152 306.262 1538.479 351.439 1559.811 428.42 1391.359 404.688 1380.152"
      style="fill:#4cc3d1" />
  <polygon
      points="433.974 1393.981 351.212 1559.704 425.383 1594.728 494.167 1422.404 433.974 1393.981"
      style="fill:#26bdc5" />
  <polygon
      points="422.204 1388.423 343.104 1526.303 351.439 1559.811 434.162 1394.07 422.204 1388.423"
      style="fill:#6fcbd8" />
  <polygon points="343.104 1526.303 306.035 1538.372 351.212 1559.704 343.104 1526.303"
      style="fill:#4cc3d1" />
  <path
      d="M1159.54182,1880.94558l-7.50163,13.18556s6.43414,6.39686,3.62766,10.63041c-7.98652,8.90612-27.88228,5.768-31.99717,2.17334-4.11471-3.59468-8.10447-12.9502-4.94-19.9759,3.16445-7.02551,19.1176-18.21144,19.1176-18.21144S1157.36848,1872.984,1159.54182,1880.94558Z"
      transform="translate(-694.39479 -535.22803)" style="fill:#f7a58e" />
  <polygon
      points="658.06 1165.186 600.932 1166.948 612.776 1070.943 658.481 1069.533 658.06 1165.186"
      style="fill:#f7a58e" />
  <path
      d="M1383.92875,1568.3509c4.75467,38.41751-3.31413,67.2893-31.28425,70.1976-27.97013,2.90812-66.93652-30.16407-70.00472-59.66578-3.06819-29.50189,17.119-55.77532,45.08917-58.68362S1380.2855,1538.91462,1383.92875,1568.3509Z"
      transform="translate(-694.39479 -535.22803)" style="fill:#f7a58e" />
  <path
      d="M1374.78763,1577.36529a10.43913,10.43913,0,1,1-12.21918-8.28427A10.43817,10.43817,0,0,1,1374.78763,1577.36529Z"
      transform="translate(-694.39479 -535.22803)" style="fill:#f7a58e" />
  <path
      d="M1399.93227,1731.42611c-.24487,10.77865-1.08792,89.96322-1.08792,89.96322s-66.37454-4.1477-110.53443-4.90327c-20.17953-84.4139-45.01567-124.51358,4.53883-152.58068C1362.92732,1637.57315,1400.235,1693.8547,1399.93227,1731.42611Z"
      transform="translate(-694.39479 -535.22803)" style="fill:#0386c2" />
  <path
      d="M1363.69616,1659.22135c-51.34637,16.92311-70.8431,4.68547-70.8431,4.68547C1303.90472,1655.32157,1345.14556,1649.178,1363.69616,1659.22135Z"
      transform="translate(-694.39479 -535.22803)" style="fill:#f7a58e" />
  <path
      d="M1172.99466,1952.40677a.5711.5711,0,0,1-.43184-.45765c-.07027-.40154-7.19025-40.34239-20.87254-57.79181a.57126.57126,0,0,1,.89934-.70466c13.859,17.67474,21.028,57.89506,21.099,58.29929a.57184.57184,0,0,1-.69391.65483Z"
      transform="translate(-694.39479 -535.22803)" style="fill:#103558" />
  <path
      d="M1138.91521,1936.49683a.56646.56646,0,0,1-.26189-.1418c-.22408-.21278-22.40629-21.54423-21.60339-44.74552a.57138.57138,0,0,1,1.14206.04c-.78533,22.69256,21.02761,43.66782,21.24827,43.877a.5714.5714,0,0,1-.52505.97033Z"
      transform="translate(-694.39479 -535.22803)" style="fill:#103558" />
  <path
      d="M1594.80154,1631.73792c9.00561-9.64592,14.819-18.59829,13.07533-20.25715-1.74365-1.659-10.39738,4.59082-19.58529,14.06322C1581.94743,1632.18768,1589.93879,1635.95875,1594.80154,1631.73792Z"
      transform="translate(-694.39479 -535.22803)" style="fill:#f7a58e" />
  <path
      d="M1591.372,1622.54337l-22.03826,17.764c-6.89412,4.54224-16.803,11.07354-27.65,18.22471-21.1719,13.958-46.591,26.50773-59.016,34.70129,0,0-41.19459-15.005-81.54486-25.20505-32.26947-8.15718-64.37617-9.10761-69.91079,5.61188-11.37738,30.25836,24.07107,45.9756,81.26558,55.47614.00574-.01542.00986-.0303.01578-.04571,29.03079,4.97927,63.63905,9.05687,74.0366,2.99882,19.1461-11.15546,46.48649-28.70365,70.82375-54.10051,7.82949-8.17044,14.83188-15.754,20.30358-21.88106a12.47551,12.47551,0,0,0,2.88355.82908s17.2698-1.56511,20.48714-11.47938C1603.79442,1634.65894,1592.25141,1623.39485,1591.372,1622.54337Z"
      transform="translate(-694.39479 -535.22803)" style="fill:#f7a58e" />
  <path
      d="M1416.6962,1669.1514s5.97129,11.464,1.52065,35.48931a55.96539,55.96539,0,0,1-12.26919,25.89018c-29.2278-4.26959-85.50971-18.39-79.53842-55.40874S1416.6962,1669.1514,1416.6962,1669.1514Z"
      transform="translate(-694.39479 -535.22803)" style="fill:#0386c2" />
  <path
      d="M1302.10747,1656.96484s-41.57622,6.55155-73.02486,47.87341c18.5273,30.26428,46.11757,44.52576,46.11757,44.52576s47.4518-33.59742,52.16057-61.54065C1332.06934,1659.88031,1302.10747,1656.96484,1302.10747,1656.96484Z"
      transform="translate(-694.39479 -535.22803)" style="fill:#0386c2" />
  <path
      d="M1396.53316,1545.5273c.40853-23.67346-17.62419-29.527-17.62419-29.527,7.89994-27.00732-28.03609-44.29146-62.11768-26.96537,0,0-13.78143-7.95623-37.17686,6.36584-31.91507,18.80945-28.62477,58.35575-28.62477,58.35575-36.892,10.65407-51.42436,43.79115-40.691,73.50546,0,0-42.99847,16.3909-35.63021,60.02358,7.369,43.63251,43.65581,48.06235,43.65581,48.06235s9.99314,64.98421,59.29543,59.676c49.30264-5.30839,51.59518-45.49536,51.59518-45.49536s40.32859,14.12452,57.95009-30.42938c17.62133-44.5539-25.07509-69.223-25.07509-69.223s25.88821-11.61741,25.46588-39.61657c-.2714-17.992-10.32854-29.07938-17.49567-34.72854C1386.40414,1566.63414,1396.30622,1558.674,1396.53316,1545.5273Z"
      transform="translate(-694.39479 -535.22803)" style="fill:#0d0d0d" />
  <polygon
      points="1226.885 1190.877 1233.435 1211.543 1254.63 1211.543 1237.483 1224.316 1244.033 1244.981 1226.885 1232.209 1209.738 1244.981 1216.288 1224.316 1199.14 1211.543 1220.335 1211.543 1226.885 1190.877"
      style="fill:#fdda6d" />
  <polygon
      points="1302.9 1190.877 1309.45 1211.543 1330.646 1211.543 1313.498 1224.316 1320.048 1244.981 1302.9 1232.209 1285.753 1244.981 1292.303 1224.316 1275.155 1211.543 1296.351 1211.543 1302.9 1190.877"
      style="fill:#fdda6d" />
  <polygon
      points="1378.916 1190.877 1385.465 1211.543 1406.661 1211.543 1389.514 1224.316 1396.063 1244.981 1378.916 1232.209 1361.768 1244.981 1368.318 1224.316 1351.171 1211.543 1372.366 1211.543 1378.916 1190.877"
      style="fill:#fdda6d" />
  <polygon
      points="1454.931 1190.877 1461.481 1211.543 1482.676 1211.544 1465.529 1224.316 1472.078 1244.982 1454.931 1232.209 1437.784 1244.981 1444.333 1224.316 1427.186 1211.543 1448.381 1211.543 1454.931 1190.877"
      style="fill:#fdda6d" />
  <ellipse cx="1342.25393" cy="994.21357" rx="44.93953" ry="45.02114" style="fill:#029a65" />
  <path
      d="M2066.50622,1505.883c-11.289,3.51043-25.403,16.262-33.37263,30.22574-2.32033-5.65921-9.42256-10.06736-12.88064-10.741l-8.37175,11.294c6.62415,1.79725,14.61533,8.52932,16.76662,16.33855h10.1439c2.89808-8.73475,10.62629-29.74927,30.44084-43.4312A16.18065,16.18065,0,0,0,2066.50622,1505.883Z"
      transform="translate(-694.39479 -535.22803)" style="fill:#fff" />
  <path
      d="M2074.59258,1657.219h-79.855a3.65919,3.65919,0,0,1-3.48139-2.5582l-15.2967-48.01916a3.70713,3.70713,0,0,1,.5272-3.29692,3.64715,3.64715,0,0,1,2.954-1.51331h110.44874a3.6474,3.6474,0,0,1,2.954,1.51331,3.70713,3.70713,0,0,1,.5272,3.29692l-15.2967,48.01916A3.65919,3.65919,0,0,1,2074.59258,1657.219Zm-77.18869-7.36826h74.5224l12.94948-40.65089-100.42136-.00018Z"
      transform="translate(-694.39479 -535.22803)" style="fill:#0d0d0d" />
  <path
      d="M2068.03225,1677.55057h-68.10081a3.68424,3.68424,0,0,1,0-7.36826h65.43021c4.45243-.11221,6.46569-3.22271,6.78656-6.39559.28735-2.84341-.78462-5.73683-2.679-6.56715l22.99353-72.5622a3.659,3.659,0,0,1,3.48282-2.56341h23.77959a3.68424,3.68424,0,0,1,0,7.36826h-21.109l-21.07582,67.35186C2083.14126,1666.095,2075.5138,1677.55057,2068.03225,1677.55057Z"
      transform="translate(-694.39479 -535.22803)" style="fill:#0d0d0d" />
  <path
      d="M2022.2714,1689.89236a8.40856,8.40856,0,1,1-8.40832-8.47267A8.44055,8.44055,0,0,1,2022.2714,1689.89236Z"
      transform="translate(-694.39479 -535.22803)" style="fill:#0d0d0d" />
  <path
      d="M2064.59263,1689.89236a8.40856,8.40856,0,1,1-8.40832-8.47267A8.44055,8.44055,0,0,1,2064.59263,1689.89236Z"
      transform="translate(-694.39479 -535.22803)" style="fill:#0d0d0d" />
  <path
      d="M2036.64868,1657.219a3.67023,3.67023,0,0,1-3.65617-3.68413v-48.01933a3.65636,3.65636,0,1,1,7.31251,0v48.01933A3.67026,3.67026,0,0,1,2036.64868,1657.219Z"
      transform="translate(-694.39479 -535.22803)" style="fill:#0d0d0d" />
  <path
      d="M2016.26605,1657.21992a3.66347,3.66347,0,0,1-3.56223-2.86957l-10.81451-48.01951a3.65765,3.65765,0,1,1,7.13109-1.63054l10.81451,48.01933a3.68455,3.68455,0,0,1-2.75628,4.408A3.63872,3.63872,0,0,1,2016.26605,1657.21992Z"
      transform="translate(-694.39479 -535.22803)" style="fill:#0d0d0d" />
  <path
      d="M2056.18879,1657.21957a3.66584,3.66584,0,0,1-3.62264-4.21492l6.93212-48.01933a3.65683,3.65683,0,1,1,7.23614,1.06068l-6.93194,48.01915A3.66629,3.66629,0,0,1,2056.18879,1657.21957Z"
      transform="translate(-694.39479 -535.22803)" style="fill:#0d0d0d" />
  <path
      d="M2082.241,1633.50649h-95.05721a3.68424,3.68424,0,0,1,0-7.36826H2082.241a3.68424,3.68424,0,0,1,0,7.36826Z"
      transform="translate(-694.39479 -535.22803)" style="fill:#0d0d0d" />
  <path
      d="M1095.35369,1640.80877c-26.06836-.20507-77.46995-.45639-172.84588-.45639a26.84322,26.84322,0,0,1-26.84832-26.82555v-45.54645a26.82688,26.82688,0,0,1,26.82824-26.82556h169.939a26.82688,26.82688,0,0,1,26.82824,26.82556v49.09255A23.71672,23.71672,0,0,1,1095.35369,1640.80877Z"
      transform="translate(-694.39479 -535.22803)" style="fill:#fff" />
  <path
      d="M945.19553,1590.98216a9.11155,9.11155,0,1,1-9.11155-9.11066A9.111,9.111,0,0,1,945.19553,1590.98216Z"
      transform="translate(-694.39479 -535.22803)" style="fill:#b3b3b3" />
  <path
      d="M992.77764,1590.98216a9.11146,9.11146,0,1,1-9.11155-9.11066A9.111,9.111,0,0,1,992.77764,1590.98216Z"
      transform="translate(-694.39479 -535.22803)" style="fill:#b3b3b3" />
  <path
      d="M1040.35976,1590.98216a9.11146,9.11146,0,1,1-9.11137-9.11066A9.11084,9.11084,0,0,1,1040.35976,1590.98216Z"
      transform="translate(-694.39479 -535.22803)" style="fill:#b3b3b3" />
  <path
      d="M1087.94206,1590.98216a9.11155,9.11155,0,1,1-9.11155-9.11066A9.111,9.111,0,0,1,1087.94206,1590.98216Z"
      transform="translate(-694.39479 -535.22803)" style="fill:#b3b3b3" />
  <polygon points="332.882 1087.725 332.882 1129.134 280.16 1089.278 332.882 1087.725"
      style="fill:#fff" />
  <path
      d="M1111.70972,757.04069c0,23.4525-16.99667,41.01339-40.11128,41.01339s-40.11062-17.56089-40.11062-41.01339c0-23.45229,16.99609-41.01317,40.11062-41.01317S1111.70972,733.5884,1111.70972,757.04069Zm-13.824,0c0-15.29507-10.31069-28.09741-26.28729-28.09741s-26.28721,12.80234-26.28721,28.09741,10.31061,28.09763,26.28721,28.09763S1097.88573,772.33569,1097.88573,757.04069Z"
      transform="translate(-694.39479 -535.22803)" style="fill:#013466" />
  <path
      d="M1136.18149,717.38684l39.658,54.60888V717.38684h13.59657v79.30764h-12.237l-39.65751-54.49576v54.49576h-13.59708V717.38684Z"
      transform="translate(-694.39479 -535.22803)" style="fill:#013466" />
  <path d="M1206.20526,717.38684h13.59707v66.39187h33.76527v12.91577h-47.36234Z"
      transform="translate(-694.39479 -535.22803)" style="fill:#013466" />
  <path d="M1264.44517,717.38684h13.59707v79.30764h-13.59707Z"
      transform="translate(-694.39479 -535.22803)" style="fill:#013466" />
  <path
      d="M1308.63368,717.38684l39.65809,54.60888V717.38684h13.5965v79.30764h-12.237l-39.65751-54.49576v54.49576h-13.59708V717.38684Z"
      transform="translate(-694.39479 -535.22803)" style="fill:#013466" />
  <path
      d="M1392.25452,749.56314h31.72578V762.4789h-31.72578v21.29981h35.1253v12.91577h-48.72237V717.38684h48.04236V730.3026h-34.44529Z"
      transform="translate(-694.39479 -535.22803)" style="fill:#013466" />
  <path
      d="M1510.48593,763.612c-11.67073-4.07861-24.81412-10.42332-24.81412-25.15187,0-11.21639,9.97071-22.43257,25.94731-22.43257,16.54284,0,25.83411,12.57578,25.83411,12.57578l-9.4044,9.29027s-6.5717-8.95029-16.42971-8.95029c-6.7986,0-12.1239,4.19173-12.1239,9.51681,0,6.911,6.23165,9.06371,17.10922,13.14232,12.12441,4.532,22.20883,9.97028,22.20883,24.35878s-12.69079,22.09289-27.64733,22.09289c-19.82879,0-29.00678-16.20157-29.00678-16.20157l10.19748-8.61032s6.79854,11.89613,18.8093,11.89613c6.79854,0,13.82334-2.71921,13.82334-9.17713C1524.98928,769.27672,1519.89083,766.89748,1510.48593,763.612Z"
      transform="translate(-694.39479 -535.22803)" style="fill:#013466" />
  <path
      d="M1600.22414,717.38684h13.59649v79.30764h-13.59649V762.59232h-33.879v34.10216h-13.59707V717.38684h13.59707v32.28972h33.879Z"
      transform="translate(-694.39479 -535.22803)" style="fill:#013466" />
  <path
      d="M1706.279,757.04069c0,23.4525-16.99609,41.01339-40.1112,41.01339-23.11461,0-40.1107-17.56089-40.1107-41.01339,0-23.45229,16.99609-41.01317,40.1107-41.01317C1689.2829,716.02752,1706.279,733.5884,1706.279,757.04069Zm-13.824,0c0-15.29507-10.31062-28.09741-26.28722-28.09741s-26.28728,12.80234-26.28728,28.09741,10.31068,28.09763,26.28728,28.09763S1692.455,772.33569,1692.455,757.04069Z"
      transform="translate(-694.39479 -535.22803)" style="fill:#013466" />
  <path
      d="M1718.5143,717.38684h26.96731c15.74976,0,26.28728,10.87649,26.28728,25.37841s-10.53752,25.37842-26.28728,25.37842h-13.37023v28.55081H1718.5143Zm39.43118,25.37841c0-7.47755-4.87218-12.46265-14.16338-12.46265h-11.67072v24.92531h11.67072C1753.0733,755.22791,1757.94548,750.2428,1757.94548,742.76525Z"
      transform="translate(-694.39479 -535.22803)" style="fill:#013466" />
  <path
      d="M1782.64532,717.38684h26.9673c15.74969,0,26.28722,10.87649,26.28722,25.37841s-10.53753,25.37842-26.28722,25.37842h-13.37023v28.55081h-13.59707Zm39.43118,25.37841c0-7.47755-4.87219-12.46265-14.16339-12.46265h-11.67072v24.92531h11.67072C1817.20431,755.22791,1822.0765,750.2428,1822.0765,742.76525Z"
      transform="translate(-694.39479 -535.22803)" style="fill:#013466" />
  <path d="M1848.36263,717.38684h13.5965v79.30764h-13.5965Z"
      transform="translate(-694.39479 -535.22803)" style="fill:#013466" />
  <path
      d="M1892.55115,717.38684l39.65809,54.60888V717.38684h13.5965v79.30764h-12.237l-39.65752-54.49576v54.49576h-13.59707V717.38684Z"
      transform="translate(-694.39479 -535.22803)" style="fill:#013466" />
  <path
      d="M2015.71637,781.51282v-16.7681h-18.01615V752.05551h31.38631v36.02836s-10.08435,9.97021-29.34676,9.97021c-23.22831,0-41.697-17.56089-41.697-41.01339,0-23.45229,17.90238-41.01317,41.13069-41.01317,19.48875,0,29.34626,11.89612,29.34626,11.89612l-9.29127,9.06371s-6.57162-8.27091-20.055-8.27091c-15.9766,0-27.30735,13.02918-27.30735,28.32425s11.89706,28.32418,27.87366,28.32418C2011.07045,785.36487,2015.71637,781.51282,2015.71637,781.51282Z"
      transform="translate(-694.39479 -535.22803)" style="fill:#013466" />
</svg>