<svg id="Layer_1" data-name="Layer 1" xmlns="http://www.w3.org/2000/svg" viewBox="0 0 2707.53953 563.77512"><title>from_quockhanh</title><path d="M311.07224,1627.68988a67.46389,67.46389,0,0,1-7.82641.45462,64.448,64.448,0,0,1-26.067-5.21341,64.20683,64.20683,0,0,1-34.34716-34.34713,64.448,64.448,0,0,1-5.21341-26.067,67.03731,67.03731,0,0,1,19.01361-46.614,66.0698,66.0698,0,0,1,20.547-13.8002,64.60884,64.60884,0,0,1,26.067-5.2134,65.46989,65.46989,0,0,1,65.62762,65.62761,66.666,66.666,0,0,1-2.74645,19.32058l68.90826,66.66154a164.18455,164.18455,0,0,0,12.95933-24.34127,161.0061,161.0061,0,0,0,0-123.28174,155.98822,155.98822,0,0,0-83.10787-83.10787,161.0062,161.0062,0,0,0-123.28178,0,155.98825,155.98825,0,0,0-83.10786,83.10787q-12.27644,28.52042-12.26685,61.64089,0,33.12048,12.26685,61.64085a155.98825,155.98825,0,0,0,83.10786,83.10787q28.52042,12.27642,61.64089,12.26684,33.12048,0,61.64089-12.26684a165.67784,165.67784,0,0,0,18.66935-9.4553Z" transform="translate(-146.23023 -1160.06152)" style="fill:#001e51"/><path d="M423.77128,1637.60224a142.14865,142.14865,0,0,1-8.87778,12.74594l-66.95983-64.77655a49.89919,49.89919,0,0,0,4.77085-13.922l.00749-.04171q.247-1.347.4207-2.71785c.01572-.1229.03219-.2455.047-.36866q.249-2.08255.32546-4.21347c.00858-.24225.0134-.48535.0185-.72846.00741-.35459.02695-.70622.02695-1.06257a50.30469,50.30469,0,1,0-50.30484,50.30484c.39865,0,.79228-.02089,1.18872-.03017.21331-.005.42695-.0085.63963-.01621.47164-.017.94165-.03912,1.40993-.06907.10264-.00659.20447-.01617.307-.02339q1.40494-.09838,2.78759-.27388c.10444-.01325.209-.02606.3133-.03995a49.9643,49.9643,0,0,0,6.15315-1.20272l69.41888,67.15535a144.61364,144.61364,0,0,1-13.39511,8.37588l11.48456,11.11009a154.18257,154.18257,0,0,0,51.48428-49.30636Zm-111.63835-41.27309a34.96064,34.96064,0,1,1,26.07333-33.81229,35.29032,35.29032,0,0,1-.2425,4.13864c-.0033.02793-.0073.05559-.01067.08348q-.116.96241-.28593,1.913c-.009.05084-.018.10167-.02729.15244A34.52906,34.52906,0,0,1,334.31,1578.512l-.54019,1.043a35.115,35.115,0,0,1-21.11284,16.63624Zm91.59223,66.66652q-2.96219,2.96219-6.10976,5.74709l-66.52528-64.35593a50.68162,50.68162,0,0,0,7.71036-6.31626l65.99474,63.84307Q404.26334,1662.45765,403.72516,1662.99567Z" transform="translate(-146.23023 -1160.06152)" style="fill:#001e51"/><path d="M303.24576,1542.87943a19.63758,19.63758,0,1,0,19.63773,19.63743A19.65966,19.65966,0,0,0,303.24576,1542.87943Zm0,23.94161a4.304,4.304,0,1,1,4.30418-4.30418A4.30889,4.30889,0,0,1,303.24576,1566.821Z" transform="translate(-146.23023 -1160.06152)" style="fill:#001e51"/><path d="M767.09892,1405.50132v167.276a143.22665,143.22665,0,0,1-11.50411,57.20965,146.724,146.724,0,0,1-78.04142,78.04141,148.003,148.003,0,0,1-114.41928,0,146.724,146.724,0,0,1-78.04142-78.04141,143.06007,143.06007,0,0,1-11.50411-57.20965v-167.276h99.495v167.276q0,19.282,14.30241,32.64681,14.29755,13.37937,32.95773,13.36965,18.65532,0,32.95773-13.36965,14.29755-13.36479,14.30241-32.64681v-167.276Z" transform="translate(-146.23023 -1160.06152)" style="fill:#001e51"/><path d="M1082.19041,1500.876a155.98816,155.98816,0,0,0-83.10787-83.10786,161.00608,161.00608,0,0,0-123.28178,0A155.9881,155.9881,0,0,0,792.6929,1500.876q-12.27643,28.52041-12.26685,61.64089,0,33.12048,12.26685,61.64085a155.98816,155.98816,0,0,0,83.10786,83.10787q28.52042,12.27642,61.64089,12.26684,33.12048,0,61.64089-12.26684a155.98822,155.98822,0,0,0,83.10787-83.10787,161.0061,161.0061,0,0,0,0-123.28174ZM835.62685,1562.5169H795.75961a139.715,139.715,0,0,1,11.0174-55.57844,140.66261,140.66261,0,0,1,75.0862-75.0862,139.86,139.86,0,0,1,55.57844-11.0174v39.86724a100.24085,100.24085,0,0,0-39.81573,7.7689,100.82561,100.82561,0,0,0-54.22987,54.22927A100.1294,100.1294,0,0,0,835.62685,1562.5169Zm148.42881,0a45.56417,45.56417,0,0,0-3.271-17.99117A45.71418,45.71418,0,0,0,955.476,1519.193a51.09082,51.09082,0,0,0-36.02487-.01917,45.72148,45.72148,0,0,0-25.35128,25.35068,45.49257,45.49257,0,0,0-3.27215,17.99237H850.9604a84.917,84.917,0,0,1,6.52006-33.75418,85.50948,85.50948,0,0,1,46.2079-46.20761,90.62872,90.62872,0,0,1,67.53383.012,85.50682,85.50682,0,0,1,46.18155,46.19622,85.02036,85.02036,0,0,1,6.51916,33.75359Z" transform="translate(-146.23023 -1160.06152)" style="fill:#001e51"/><path d="M1107.50305,1525.94585a59.80545,59.80545,0,0,1,8.31815-10.043,69.98449,69.98449,0,0,1,20.85364-13.8002,63.10086,63.10086,0,0,1,25.4537-5.21341,62.37671,62.37671,0,0,1,34.04049,9.5068,66.88344,66.88344,0,0,1,23.00033,23.61368l81.57451-43.5473a164.04883,164.04883,0,0,0-57.34749-58.57418q-36.49866-22.38219-81.26784-22.387a154.39155,154.39155,0,0,0-61.64089,12.26685,163.18753,163.18753,0,0,0-38.72307,23.33107,173.71189,173.71189,0,0,1,35.94027,53.71435A163.40413,163.40413,0,0,1,1107.50305,1525.94585Z" transform="translate(-146.23023 -1160.06152)" style="fill:#001e51"/><path d="M1196.169,1618.94434a63.9072,63.9072,0,0,1-34.04049,9.20014,62.94056,62.94056,0,0,1-25.4537-5.21341,69.62119,69.62119,0,0,1-20.85364-13.80016,61.21653,61.21653,0,0,1-8.33238-9.975,163.35039,163.35039,0,0,1-9.78158,31.05831,173.719,173.719,0,0,1-35.9434,53.7212,162.87161,162.87161,0,0,0,38.72381,23.33021q28.52041,12.27642,61.64089,12.26684,44.76439,0,81.26784-22.387a163.8956,163.8956,0,0,0,57.34749-58.57418l-81.57451-43.54725A62.94249,62.94249,0,0,1,1196.169,1618.94434Z" transform="translate(-146.23023 -1160.06152)" style="fill:#001e51"/><path d="M1548.12793,1537.81414l116.65818,186.0225H1559.47846L1485.7,1607.80905l-17.65637,18.91754v97.11005h-91.43479v-314.0312h91.43479v92.696l78.82309-92.696h117.91935Z" transform="translate(-146.23023 -1160.06152)" style="fill:#001e51"/><polygon points="1920.564 249.744 1822.067 463.944 1822.067 452.162 1822.067 360.727 1822.067 249.744 1730.632 249.744 1730.632 360.727 1625.324 360.727 1625.324 249.744 1533.889 249.744 1533.889 360.096 1533.889 452.162 1533.889 563.775 1625.324 563.775 1625.324 452.162 1730.632 452.162 1730.632 563.775 1776.16 563.775 1822.067 563.775 1966.471 249.744 1920.564 249.744" style="fill:#001e51"/><path d="M2247.33076,1723.83664l-11.98111-25.854H2088.42341l-11.98111,25.854h-91.43479l144.40391-314.0312h78.1925l131.16163,314.0312Zm-121.07227-104.67707h72.51725l-34.68216-78.82309Z" transform="translate(-146.23023 -1160.06152)" style="fill:#001e51"/><path d="M2642.27633,1409.80544v314.0312h-83.907l-120.36318-170.25788v170.25788h-83.907v-314.0312h83.907l120.36318,177.19431V1409.80544Z" transform="translate(-146.23023 -1160.06152)" style="fill:#001e51"/><polygon points="2616.105 249.744 2616.105 360.727 2511.38 360.727 2511.38 452.162 2616.105 452.162 2616.105 563.775 2707.54 563.775 2707.54 452.162 2707.54 360.727 2707.54 249.744 2616.105 249.744" style="fill:#001e51"/><path d="M1269.34668,1206.25293h6.98242v-8.80859q0-13.749,3.49121-21.86036a22.185,22.185,0,0,1,11.81641-11.8164q8.32325-3.706,22.82715-3.70606,25.67284,0,25.67383,12.56836a9.91727,9.91727,0,0,1-2.68555,6.98242,8.37015,8.37015,0,0,1-6.33789,2.9004,45.276,45.276,0,0,1-5.90821-.64454,47.89053,47.89053,0,0,0-7.08984-.64453q-7.95117,0-10.20508,4.67285-2.25585,4.67286-2.25586,13.374v6.98242h7.19727q16.7578,0,16.75781,10.09766,0,7.19823-4.458,9.13086-4.459,1.93359-12.2998,1.93359h-7.19727v77.666q0,8.70119-4.13574,13.26661a13.76506,13.76506,0,0,1-10.68848,4.56543,13.39974,13.39974,0,0,1-10.36621-4.56543q-4.13672-4.56445-4.13574-13.26661v-77.666h-8.05664q-6.55371,0-10.09766-2.9541a9.52411,9.52411,0,0,1-3.54492-7.68067Q1254.62988,1206.25392,1269.34668,1206.25293Z" transform="translate(-146.23023 -1160.06152)" style="fill:#ffdf00"/><path d="M1374.083,1280.58887v24.49218q0,8.918-4.18946,13.374a13.96584,13.96584,0,0,1-10.63476,4.458,13.4243,13.4243,0,0,1-10.41992-4.51172q-4.084-4.51173-4.082-13.32032v-81.64062q0-19.76367,14.28711-19.76563,7.30371,0,10.52734,4.61915,3.22266,4.6201,3.54492,13.64257,5.26172-9.02343,10.7959-13.64257,5.53125-4.6172,14.77051-4.61915a37.82437,37.82437,0,0,1,17.93945,4.61915q8.70117,4.6201,8.70117,12.24609a11.6441,11.6441,0,0,1-3.70605,8.8623,11.4974,11.4974,0,0,1-8.00293,3.49121q-1.61133,0-7.78809-1.9873a36.24314,36.24314,0,0,0-10.90332-1.9873,15.94692,15.94692,0,0,0-10.52734,3.38378q-4.084,3.38379-6.33789,10.04395a70.08565,70.08565,0,0,0-3.11524,15.84473Q1374.08105,1267.376,1374.083,1280.58887Z" transform="translate(-146.23023 -1160.06152)" style="fill:#ffdf00"/><path d="M1542.73535,1263.294a69.32709,69.32709,0,0,1-4.082,24.16992,53.37881,53.37881,0,0,1-11.81641,19.01367,52.15734,52.15734,0,0,1-18.47656,12.19238,65.34253,65.34253,0,0,1-24.16992,4.24317,63.48282,63.48282,0,0,1-23.95508-4.29688,52.86685,52.86685,0,0,1-30.23926-31.20605,69.12064,69.12064,0,0,1-4.02832-24.11621,69.94828,69.94828,0,0,1,4.082-24.38477,53.05234,53.05234,0,0,1,11.709-18.90625,51.63364,51.63364,0,0,1,18.47656-12.085,69.93425,69.93425,0,0,1,48.125.05371A51.98184,51.98184,0,0,1,1538.707,1239.124,69.57616,69.57616,0,0,1,1542.73535,1263.294Zm-29.43359,0q0-17.93849-7.89551-27.92969-7.8955-9.99024-21.21582-9.99024a26.28305,26.28305,0,0,0-15.14648,4.458q-6.55372,4.459-10.09766,13.15918a59.725,59.725,0,0,0-.05371,40.39063,28.77738,28.77738,0,0,0,9.99023,13.15918,25.93678,25.93678,0,0,0,15.30762,4.56543q13.31836,0,21.21582-10.04395Q1513.30176,1281.01953,1513.30176,1263.294Z" transform="translate(-146.23023 -1160.06152)" style="fill:#ffdf00"/><path d="M1663.37012,1265.44238v38.99414q0,9.24024-4.18946,13.85743a14.22724,14.22724,0,0,1-11.06445,4.61914,13.80784,13.80784,0,0,1-10.7959-4.61914q-4.13672-4.6172-4.13574-13.85743V1257.708a150.34073,150.34073,0,0,0-.75195-17.1875,18.64506,18.64506,0,0,0-4.082-10.04395q-3.33107-3.91992-10.52735-3.9209-14.39647,0-18.96,9.88282-4.56738,9.88476-4.56543,28.35937v39.63867q0,9.13183-4.13574,13.80371a13.85649,13.85649,0,0,1-10.90332,4.67286,14.05893,14.05893,0,0,1-10.90332-4.67286q-4.24512-4.67285-4.24317-13.80371V1220.54q0-8.27051,3.81348-12.56836a12.78253,12.78253,0,0,1,10.04395-4.29688,13.632,13.632,0,0,1,10.04394,4.02833q4.02832,4.02831,4.02832,11.11816v2.793a51.0341,51.0341,0,0,1,16.32813-13.42774,43.08632,43.08632,0,0,1,19.33593-4.29687q11.0625,0,19.01368,4.4043a34.49288,34.49288,0,0,1,13.10547,13.32031,50.96152,50.96152,0,0,1,15.89843-13.374,40.593,40.593,0,0,1,18.79883-4.35058q12.0293,0,20.73242,4.72656a30.09213,30.09213,0,0,1,12.99805,13.53516q3.75879,7.95117,3.75977,25.02929v57.25586q0,9.24024-4.18946,13.85743a14.22725,14.22725,0,0,1-11.06445,4.61914,14.05893,14.05893,0,0,1-10.90332-4.67286q-4.24512-4.67285-4.24317-13.80371v-49.30664a112.9891,112.9891,0,0,0-.80566-15.14648,17.37412,17.37412,0,0,0-4.35059-9.56055q-3.54492-3.86718-10.74218-3.86719a19.67025,19.67025,0,0,0-11.01074,3.4375,23.34223,23.34223,0,0,0-8.11036,9.23829Q1663.37013,1246.64355,1663.37012,1265.44238Z" transform="translate(-146.23023 -1160.06152)" style="fill:#ffdf00"/></svg>