<svg xmlns="http://www.w3.org/2000/svg" viewBox="0 0 3783.40127 1441.24039">
  <title>header</title>
  <g style="isolation:isolate">
    <g id="Слой_1" data-name="Слой 1">
      <path
          d="M3651.1094,1590.6211s480.2597-672.3721,118.9941-930.1045c-204.2822-145.7373-414.1504-187.5171-599.6689-342.7695-185.5196-155.253-568.6338-161.0938-916.9688,57.7837-348.3349,218.8769-646.5654,77.0947-935.3628,46.0063S265.2329,490.7842,287.3413,821.54,94.6948,1182.6279,124.0879,1338.4277c29.3931,155.8008,253.6938,229.5411,253.6938,229.5411Z"
          transform="translate(-121.31838 -205.66075)" style="fill:#e7f3fe" />
      <path
          d="M287.3413,1545.3164s-122.5806-143.7881-59.5742-159.1152,108.0107,99.3359,108.0107,99.3359-36.0039-67.3037,0-60.9805c36.0035,6.3233,72.4058,120.7598,72.4058,120.7598l90.68849-12.6582s90.2666-62.3359,137.6035-62.5557c47.3369-.2187,51.52341,34.9014,51.52341,34.9014s107.35889-78.5859,146.09569-74.8545c38.73679,3.7305,60.41019,87.6973,60.41019,87.6973s14.2778-118.21,51.8076-110.0889c37.5298,8.1201,179.0737,110.0889,179.0737,110.0889l359.95762-1.5117s29.5517-266.2354,86.5576-249.3526S1593,1411.4326,1593,1411.4326s38.6309-83.0625,61.2715-70.8115c22.6401,12.251,0,89.5283,0,89.5283s31.4424-21.7334,57.0439,0c25.6026,21.7324,56.2403,25.8418,56.2403,25.8418l120.167,23.6065s-26.3765-149.2872,10.4194-147.0069c36.7954,2.2793,42.6245,67.8194,42.6245,67.8194s-3.8169-154.2305,20.7534-154.9131c24.5708-.6817,68.6675,21.4853,68.6675,21.4853l913.8145,222.501s111.538-36.5967,134.7949-8.5967c23.2578,28.001,24.2793,55.0362,24.2793,55.0362l290.1718,32.0459s179.6954-115.6485,218.6993-97.8663c39.0039,17.7832-9,85.9766-9,85.9766s109.4912-91.915,136.4941-68.5225c27.002,23.3916-109.5293,126.7872-109.5293,126.7872s-590.9287-24.7989-656.9033-35.125c-65.9736-10.3252-477.8662-27.4073-477.8662-27.4073l-923.2412,26.4815-559.93512-15.2617Z"
          transform="translate(-121.31838 -205.66075)" style="fill:#9cd499" />
      <path
          d="M984.76028,1508.3828c-348.95269-2.0058-810.99858-20.8984-798.99758,42.2832,12.001,63.1826,393.57369,86.0459,648.332,52.5694C1088.853,1569.7578,1137.05078,1652.0195,1593,1627.627c455.9492-24.3916,786.6182-48.2696,1086.3301-46.1807,299.7119,2.0898,836.7656,102.2187,974.7793,50.7764s-91.2354-80.9747-306.6436-84.1202c-215.4092-3.1455-313.3828-32.3369-466.916-41.164-153.5332-8.8281-1305.9966-45.2559-1485.8408-20.1533C1214.86568,1511.8887,984.76028,1508.3828,984.76028,1508.3828Z"
          transform="translate(-121.31838 -205.66075)" style="fill:#c4e7f2" />
      <path
          d="M1395.8525,1249.5986c150.0855-149.1738,185.8125-215.0283,199.503-412.5464s186.4106-462.58,101.9814-408.3501c-84.4292,54.2305-213.2793,248.3204-179.3335,409.6763s18.2881,212.1245-2.147,253.9546c-20.4345,41.8311-121.1474,144.0078-121.1474,144.0078Z"
          transform="translate(-121.31838 -205.66075)" style="fill:#9cd499" />
      <path
          d="M1488.1055,1150.3594c.5073-.6211,1.0034-1.2383,1.5058-1.8584,7.9312-15.2901,48.2227-94.2696,54.3306-132.249,6.7803-42.1592-21.6113-143.5318,7.7144-225.5557,29.3261-82.0244,36.8994-156.1499,47.7871-213.2837,14.3745-75.4341,81.6801-142.1597,120.2226-152.2217a6.36906,6.36906,0,0,0-1.0581-1.7944l-10.0229-.6499a60.99242,60.99242,0,0,0-11.2481,5.9555c-84.4287,54.231-213.2793,248.3204-179.3335,409.6763s18.2881,212.1245-2.147,253.9546c-5.5122,11.2842-16.8701,26.9609-30.5126,43.8369Z"
          transform="translate(-121.31838 -205.66075)" style="fill:#74b570" />
      <path
          d="M1318.167,1468.3369c151.206-194.3828,187.1572-271.6328,242.1919-467.2197s590.6431-391.9321,540.9136-331.8677c-49.7286,60.065-181.6031,204.5342-327.7867,256.6152-146.184,52.0811-203.4502,131.7896-241.1367,230.0083-37.6865,98.2178-182.1133,292.3174-182.1133,292.3174l-32.1328,31.1201Z"
          transform="translate(-121.31838 -205.66075)" style="fill:#9cd499" />
      <path
          d="M1383.2998,1389.2012a2.99992,2.99992,0,0,1-2.5-4.6543c.416-.6299,41.9775-63.6016,72.9238-117.2139,30.9619-53.6387,71.7373-153.0088,81.9493-189.4492,5.3945-19.249,20.4834-52.9942,46.6572-89.9766A429.747,429.747,0,0,1,1701.373,874.2793c53.9551-34.2793,92.0723-53.5098,144.8282-80.126,52.1181-26.2929,116.9804-59.0166,225.4873-120.1528a3.00006,3.00006,0,0,1,2.9453,5.2275c-108.627,61.2036-173.5576,93.9615-225.7295,120.2827-52.6025,26.5381-90.6094,45.7129-144.3145,79.8331-106.8388,67.8779-153.9873,167.5009-163.1396,200.1591-10.292,36.7276-51.3604,136.8301-82.5293,190.8301-31.0391,53.7715-72.6982,116.8906-73.1152,117.5225A2.99767,2.99767,0,0,1,1383.2998,1389.2012Z"
          transform="translate(-121.31838 -205.66075)" style="fill:#74b570" />
      <path
          d="M1468.6343,1293.5615c12.7363-266.7256,360.54-379.1753,372.7085-276.372,12.1689,102.8027-37.0908,393.5634-53.2471,377.5625-16.1562-16.002-51.7412-316.045-59.1851-306.7588-7.4443,9.2871-211.2851,34.2763-237.4907,126.9121-26.2051,92.6357-13.727,259.7529-13.727,259.7529S1457.5063,1526.6035,1468.6343,1293.5615Z"
          transform="translate(-121.31838 -205.66075)" style="fill:#9cd499" />
      <path
          d="M1473.4971,1482.6045a4.81883,4.81883,0,0,1-1.0157-.1094c-3.6298-.7705-7.6474-4.332-9.3779-37.0508-1.6474-31.1455-.7949-82.2949,2.5342-152.0254l2.9971.1426-2.9971-.1426a305.02941,305.02941,0,0,1,37.6025-133.1259c20.0196-36.5215,47.3584-69.7139,81.2549-98.6563,58.1358-49.6367,133.1182-83.0224,191.0274-85.0527,40.5439-1.4043,65.6035,13.2519,68.7998,40.2529,5.1709,43.6885-.2119,127.2022-14.4004,223.3985-5.9522,40.3593-12.8662,78.249-19.4688,106.6884-10.9336,47.0967-16.6562,49.8887-18.8105,50.9405a4.79019,4.79019,0,0,1-5.6582-.9805c-8.9541-8.8692-21.1826-83.8213-37.4795-188.7393-8.0039-51.5254-16.2598-104.6757-20.2158-116.2246-4.2549,1.9971-12.9434,4.2051-29.7657,8.3584-59.8671,14.7793-184.4404,45.5342-204.2168,115.4434-25.7627,91.0713-13.7461,257.0469-13.622,258.7129a2.98562,2.98562,0,0,1-.1953,1.3105C1479.832,1477.4375,1477.4922,1482.6045,1473.4971,1482.6045Zm307.3047-500.1143q-2.4903,0-5.0694.0899c-101.1123,3.5459-294.666,113.5254-304.1006,311.125-3.1513,65.9961-4.081,115.3301-2.7636,146.6318,1.0986,26.0967,3.5234,33.5801,4.6972,35.7012a12.064,12.064,0,0,0,1.084-1.8867c-.8486-12.1768-11.2822-171.1006,13.8838-260.0625,20.7266-73.2647,147.5859-104.585,208.5518-119.6358,14.1338-3.4892,27.4873-6.7861,29.5654-8.4336a3.40365,3.40365,0,0,1,3.4883-1.123c2.4883.664,4.2861,1.1435,10.8955,38.8691,3.8437,21.9395,8.4853,51.8213,13.3994,83.458,6.2363,40.1504,13.3057,85.6582,19.7393,120.9932,8.5673,47.0498,13.2236,60.2598,15.4619,63.6758,1.7236-2.0244,6.7295-10.6631,15.1191-46.9522,6.5566-28.3642,13.419-66.0742,19.3213-106.1826,14.0459-95.4433,19.3877-178.1406,14.2881-221.2158C1835.71,995.1191,1814.8281,982.4902,1780.8018,982.4902Zm-54.1973,103.583c-.0127.0147-.0244.0293-.0352.044Z"
          transform="translate(-121.31838 -205.66075)" style="fill:#74b570" />
      <path
          d="M1529.0625,1153.4434a175.72781,175.72781,0,0,0-24.9077,36.2187c52.3594-68.8642,209.938-90.2139,222.8628-98.8652l2.6196-2.4112C1685.3003,1056.2793,1580.5156,1096.5137,1529.0625,1153.4434Z"
          transform="translate(-121.31838 -205.66075)" style="fill:#74b570" />
      <path
          d="M1790.8115,1390.7979a2.8831,2.8831,0,0,1-.3418-.0196,2.999,2.999,0,0,1-2.6426-3.3183l10.0782-88.9424q.9609-8.48445,1.9619-17.2276c9.498-83.1386,21.3183-186.6074,10.8525-238.4111-1.6972-8.4033-16.8271-24.5107-43.9111-32.3955-36.7822-10.707-115.0596-11.4473-226.0029,103.9189a2.99959,2.99959,0,1,1-4.3243-4.1582c113.1329-117.6425,193.918-116.6074,232.0049-105.5214,29.7881,8.6718,46.0684,26.8378,48.1143,36.9687,10.6533,52.7315-.7295,152.3701-10.7715,240.2793q-.9975,8.73045-1.9629,17.2227l-10.0781,88.9423A2.99917,2.99917,0,0,1,1790.8115,1390.7979Z"
          transform="translate(-121.31838 -205.66075)" style="fill:#74b570" />
      <path
          d="M1767.5537,1237.8896a3.00163,3.00163,0,0,1-2.6728-4.3593c.3877-.7637,38.8642-77.3662,48.9072-169.1543a3.00018,3.00018,0,1,1,5.9648.6523c-10.167,92.916-49.1299,170.4473-49.5224,171.2197A3.00151,3.00151,0,0,1,1767.5537,1237.8896Z"
          transform="translate(-121.31838 -205.66075)" style="fill:#74b570" />
      <path
          d="M1761.1006,1179.2979a3.00153,3.00153,0,0,1-2.6709-4.3643c.3574-.7002,35.9014-70.7578,52.3281-133.4092a3.0004,3.0004,0,0,1,5.8047,1.5215c-16.5947,63.2891-52.4277,133.9082-52.7871,134.6143A3.00092,3.00092,0,0,1,1761.1006,1179.2979Z"
          transform="translate(-121.31838 -205.66075)" style="fill:#74b570" />
      <path
          d="M1859.8232,800.709c-8.5283,0-13.5214-.461-13.7138-.4805a3.00012,3.00012,0,0,1,.5947-5.9707c.7451.0742,75.3945,6.9014,146.2393-34.6655a3.00011,3.00011,0,1,1,3.0371,5.1748C1941.6719,796.6328,1885.1602,800.709,1859.8232,800.709Z"
          transform="translate(-121.31838 -205.66075)" style="fill:#74b570" />
      <path
          d="M1844.0156,858.7471c-52.6748,0-83.9609-10.9258-85.6494-11.5303a3.00009,3.00009,0,0,1,2.0215-5.6494c.5293.1894,53.8174,18.7353,137.3545,7.5a3.0003,3.0003,0,0,1,.7988,5.9472A409.36519,409.36519,0,0,1,1844.0156,858.7471Z"
          transform="translate(-121.31838 -205.66075)" style="fill:#74b570" />
      <path
          d="M1758.041,912.2051c-55.3818,0-78.7422-16.1533-79.8672-16.9571a2.99986,2.99986,0,0,1,3.4864-4.8828c.3017.2129,31.6904,21.6485,107.3623,14.2657a2.9995,2.9995,0,0,1,.582,5.9707C1778.0986,911.7246,1767.5918,912.2051,1758.041,912.2051Z"
          transform="translate(-121.31838 -205.66075)" style="fill:#74b570" />
      <path
          d="M1123.03128,1418.6523c-141.8448-280.6132-291.48249-392.7978-491.40828-435.413-199.9262-42.6148-223.4394-70.2574-223.4394-70.2574s151.47559,218.522,273.51069,254.6245c122.03471,36.1026,267.75489,31.4151,307.47029,63.5206s112.6333,174.207,112.6333,174.207l24.5874,19.2226Z"
          transform="translate(-121.31838 -205.66075)" style="fill:#9cd499" />
      <path
          d="M1096.51118,1450.8242c-.5903-5.3359-152.2358-253.209-271.88569-216.7471-119.6494,36.461-133.7769,74.751-216.5459,97.9502-59.0498,16.5518-109.2075,18.5635-109.2075,18.5635s63.4511,60.8477,177.8261,45.1387c80.8667-11.1065,157.0225-89.2051,215.24559-104.8281,58.2227-15.6231,139.2725,87.2119,139.2725,87.2119l36.9658,55.8613Z"
          transform="translate(-121.31838 -205.66075)" style="fill:#9cd499" />
      <path
          d="M1115.28518,1404.5781a2.99979,2.99979,0,0,1-2.7354-1.7656c-.209-.46-21.2812-46.7217-60.6357-103.7012-36.2637-52.5049-95.917-125.1172-174.16608-172.8759-77.45991-47.2774-142.15771-63.5899-204.72551-79.3663-59.23049-14.9355-115.1758-29.042-174.231-68.6259a3.00022,3.00022,0,0,1,3.3408-4.9844c58.1905,39.0049,113.6455,52.9883,172.357,67.792,63.0014,15.8857,128.1484,32.3125,206.38371,80.0635,79.18748,48.331,139.44538,121.6757,176.05178,174.6933,39.6348,57.4053,60.8818,104.0694,61.0918,104.5342a3.00236,3.00236,0,0,1-2.7314,4.2363Z"
          transform="translate(-121.31838 -205.66075)" style="fill:#74b570" />
      <path
          d="M1052.56048,1378.752a2.99021,2.99021,0,0,1-2.26748-1.0352c-75.31552-86.8652-135.27052-129.9365-188.68072-135.5498-46.958-4.9385-82.71089,19.8877-120.56789,46.168-9.5581,6.6357-19.4419,13.497-29.5053,19.8388-88.1392,55.5459-143.1626,53.7276-145.462,53.627a3.0002,3.0002,0,0,1,.2725-5.9942c.542.0264,55.6421,1.708,141.9902-52.7089,9.9507-6.2706,19.7789-13.0938,29.2828-19.6914,38.7983-26.9327,75.437-52.379,124.61669-47.2061,55.0166,5.7812,116.2128,49.501,192.5869,137.5869a3.00009,3.00009,0,0,1-2.2657,4.9649Z"
          transform="translate(-121.31838 -205.66075)" style="fill:#74b570" />
      <path
          d="M591.16109,1083.418a3.00055,3.00055,0,0,1-.9633-5.8418c80.7714-27.3985,155.9643-17.2158,156.7153-17.1104a3.0002,3.0002,0,0,1-.8394,5.9414c-.7353-.1045-74.581-10.0693-153.9482,16.8506A2.996,2.996,0,0,1,591.16109,1083.418Z"
          transform="translate(-121.31838 -205.66075)" style="fill:#74b570" />
      <path
          d="M897.38768,1137.8809a2.98976,2.98976,0,0,1-1.4844-.3955c-73.30079-41.8614-126.80859-32.7276-240.84519-8.0743a3.00031,3.00031,0,0,1-1.2676-5.8652c115.5982-24.9883,169.87551-34.2256,245.08739,8.7285a3.00076,3.00076,0,0,1-1.4902,5.6065Z"
          transform="translate(-121.31838 -205.66075)" style="fill:#74b570" />
      <path
          d="M2933.2412,1363.3867c4.9365-7.292,257.0313-190.4844,303.4443-386.8804,32.4981-137.5146,114.8077-273.205,114.8077-273.205s-159.4385,61.1303-224.7295,275.3432c-40.1856,131.8448-46.9082,171.3594-65.7149,205.417-18.8076,34.0576-143.4697,183.6084-143.4697,183.6084Z"
          transform="translate(-121.31838 -205.66075)" style="fill:#9cd499" />
      <path
          d="M2917.5791,1370.6699a3.00036,3.00036,0,0,1-2.3047-4.9209c1.2451-1.4931,124.6934-149.7177,143.1485-183.1377,12.2851-22.248,19.2207-46.4199,34.416-99.3818,7.7802-27.1172,17.4638-60.8662,31.0547-105.46,14.9794-49.1455,36.1894-94.2939,63.04-134.1933a438.7587,438.7587,0,0,1,74.7021-85.1895c47.8731-41.9297,87.1358-57.2544,88.7832-57.8862a3.00032,3.00032,0,0,1,3.6397,4.3569c-.8213,1.3535-82.4414,136.8819-114.4531,272.3399-17.3457,73.3974-65.0254,153.4033-141.7149,237.7949-61.2422,67.3926-123.5273,118.2695-150.125,139.9951-6.0449,4.9375-11.2715,9.207-12.0927,10.1563a2.99541,2.99541,0,0,1-1.6407,1.1367l-15.6621,4.2832A2.97513,2.97513,0,0,1,2917.5791,1370.6699Zm18.1465-5.6015c-.0108.0166-.0225.0322-.0332.0478C2935.7051,1365.0996,2935.7158,1365.083,2935.7256,1365.0684Zm408.4629-655.232c-14.124,6.752-44.5078,23.1621-78.8164,53.2544-43.4434,38.1035-102.2588,106.583-135.7383,216.4287-13.5781,44.5459-23.2529,78.2686-31.0274,105.3653-15.3242,53.4091-22.3173,77.7861-34.9316,100.6269-16.5547,29.9785-112.1904,145.9863-137.7031,176.7529l5.6396-1.5419c1.4893-1.4883,4.8321-4.2334,12.3584-10.3819,165.5147-135.1982,263.0166-261.206,289.7959-374.5244C3261.501,858.458,3326.1543,741.1621,3344.1885,709.8364Z"
          transform="translate(-121.31838 -205.66075)" style="fill:#74b570" />
      <path
          d="M3001.2207,1404.0215c-9.8154,10.959-20.873,31.2314-31.6787,54.6465l-12.1533-2.8067c89.7197-196.7363,205.6806-297.5527,361.8613-358.2275,193.4072-75.1358,212.4824-106.6484,212.4824-106.6484s-116.3203,243.5302-232.7392,299.5039S3035.8057,1365.4092,3001.2207,1404.0215Z"
          transform="translate(-121.31838 -205.66075)" style="fill:#9cd499" />
      <path
          d="M3049.9717,1434.1807c-14.96-2.8194-56.3496,13.5625-71.5596,23.0634v-16.7128c39.0703-41.5215,84.7617-72.6758,128.9688-62.792,111.5537,24.9404,127.0781,58.8535,204.1074,74.2636,54.9551,10.9932,100.8008,9.3545,100.8008,9.3545s-53.6075,59.8399-158.918,53.4444C3178.9121,1510.2803,3104.1084,1444.3857,3049.9717,1434.1807Z"
          transform="translate(-121.31838 -205.66075)" style="fill:#9cd499" />
      <path
          d="M2948.6201,1479.8516a3.00181,3.00181,0,0,1-2.7002-4.3047c40.4854-83.9209,89.6016-150.9727,145.9864-199.292,70.6376-60.5332,133.2441-87.5606,193.79-113.6983,56.4297-24.3603,109.7295-47.3701,161.7119-95.8994a3.0001,3.0001,0,0,1,4.0938,4.3867c-52.7432,49.2383-106.5069,72.4483-163.4278,97.0215-60.1347,25.96-122.3164,52.8037-192.2637,112.7461-54.9658,47.1035-104.9287,115.3428-144.4863,197.3428A3.00075,3.00075,0,0,1,2948.6201,1479.8516Z"
          transform="translate(-121.31838 -205.66075)" style="fill:#74b570" />
      <path
          d="M3344.2646,1476.8213c-17.1328,0-62.3437-4.001-128.8251-39.1631-9.6153-5.0859-19.0987-10.6553-28.2706-16.041-32.3857-19.0176-62.9638-36.9776-99.247-35.2608-41.0996,1.9493-83.375,28.877-133.044,84.7432a3,3,0,0,1-4.4843-3.9863c50.8134-57.1543,94.4238-84.7197,137.2441-86.75,38.0674-1.8008,69.3926,16.5967,102.5693,36.0801,9.1153,5.3525,18.541,10.8877,28.0371,15.9101,82.3653,43.5625,132.3926,38.2295,132.8907,38.1719a2.99978,2.99978,0,0,1,.7216,5.956A67.34563,67.34563,0,0,1,3344.2646,1476.8213Z"
          transform="translate(-121.31838 -205.66075)" style="fill:#74b570" />
      <path
          d="M3217.1641,1199.6279a3.00065,3.00065,0,0,1-.8887-5.8662c.7344-.2275,74.415-22.625,159.7803-8.2812a3.00042,3.00042,0,1,1-.9942,5.9179c-83.9746-14.1113-156.2861,7.8692-157.0068,8.0938A3.00731,3.00731,0,0,1,3217.1641,1199.6279Z"
          transform="translate(-121.31838 -205.66075)" style="fill:#74b570" />
      <path
          d="M3077.5625,1295.6943a2.99995,2.99995,0,0,1-1.8867-5.3339c68.3808-55.2334,124.2597-54.7833,244.125-48.501a3.00058,3.00058,0,0,1,2.8388,3.1533,3.03356,3.03356,0,0,1-3.1533,2.8389c-118.2744-6.1983-173.375-6.67-240.041,47.1767A2.985,2.985,0,0,1,3077.5625,1295.6943Z"
          transform="translate(-121.31838 -205.66075)" style="fill:#74b570" />
      <path
          d="M861.07231,389.53705h514.144a36.0781,36.0781,0,0,1,36.0781,36.0781v875.0015a36.0781,36.0781,0,0,1-36.0781,36.0781H861.07221a36.0781,36.0781,0,0,1-36.0781-36.0781V425.61525A36.0782,36.0782,0,0,1,861.07231,389.53705Z"
          style="fill:#3e6bab" />
      <path
          d="M895.9644,445.44615H1341.54a32.5225,32.5225,0,0,1,32.5225,32.5225v769.9902a32.522,32.522,0,0,1-32.522,32.522H895.9644a32.5225,32.5225,0,0,1-32.5225-32.5225V477.96865A32.5225,32.5225,0,0,1,895.9644,445.44615Z"
          style="fill:#ebeff2" />
      <path
          d="M1286.936,1516.335H1180.28268a6.837,6.837,0,0,1,0-13.6739H1286.936a6.837,6.837,0,0,1,0,13.6739Z"
          transform="translate(-121.31838 -205.66075)" style="fill:#2a538c" />
      <path
          d="M1261.3613,632.1567h-81.07862a6.83665,6.83665,0,0,1,0-13.6733h81.07862a6.83665,6.83665,0,0,1,0,13.6733Z"
          transform="translate(-121.31838 -205.66075)" style="fill:#2a538c" />
      <path
          d="M1301.0156,625.3198a8.20435,8.20435,0,1,1-8.2041-8.2046A8.20414,8.20414,0,0,1,1301.0156,625.3198Z"
          transform="translate(-121.31838 -205.66075)" style="fill:#2a538c" />
      <path
          d="M1440.4761,781.0361H1161.55568a3.70675,3.70675,0,0,1,0-7.4135H1440.4761a3.70675,3.70675,0,0,1,0,7.4135Z"
          transform="translate(-121.31838 -205.66075)" style="fill:#63acc2" />
      <path
          d="M1396.5576,773.6226h-91.3423a10.497,10.497,0,0,1-10.2602-12.7149l9.0527-41.874a10.49727,10.49727,0,0,1,10.2603-8.2788h77.456a10.49731,10.49731,0,0,1,10.4278,9.2934l4.8335,41.8741A10.49694,10.49694,0,0,1,1396.5576,773.6226Z"
          transform="translate(-121.31838 -205.66075)" style="fill:#d54a41" />
      <path
          d="M1380.6748,773.6226h-84.8154a8.94323,8.94323,0,0,1-8.7412-10.8326l9.7251-44.9819a8.94234,8.94234,0,0,1,8.7407-7.0532h78.4336a8.94287,8.94287,0,0,1,8.9179,9.6055l-3.3422,44.9824A8.94291,8.94291,0,0,1,1380.6748,773.6226Z"
          transform="translate(-121.31838 -205.66075)" style="fill:#f37168" />
      <path
          d="M1340.584,712.1963s-9.8848-7.2075-4.7363-8.4434c5.1484-1.2353,8.6196,8.4434,8.6196,8.4434s7.855-10.2964,11.9731-7.4136c4.1192,2.8833-2.8828,7.4136-2.8828,7.4136Z"
          transform="translate(-121.31838 -205.66075)" style="fill:#f37168" />
      <path
          d="M1397.5195,718.2715c-1.9331,0-3.5005,2.4433-3.5005,5.457,0,3.0142,1.5674,5.457,3.5005,5.457,1.9336,0,3.501-2.4428,3.501-5.457C1401.0205,720.7148,1399.4531,718.2715,1397.5195,718.2715Zm0,8.2373c-.9843,0-1.7832-1.2446-1.7832-2.7803,0-1.5351.7989-2.7803,1.7832-2.7803.9854,0,1.7837,1.2452,1.7837,2.7803C1399.3032,725.2642,1398.5049,726.5088,1397.5195,726.5088Z"
          transform="translate(-121.31838 -205.66075)" style="fill:#f37168" />
      <path
          d="M1239.13958,804.1221q-1.08537,0-2.1748-.0547c-28.84178-1.4522-34.9111-27.3233-34.9111-32.3565a2.97145,2.97145,0,0,1,.9414-2.2646c1.0381-.957,2.2363-.8594,3.8985-.7236,3.10442.2529,10.374.8466,27.3183-1.9502,25.66412-4.2339,57.86232-37.8838,66.13972-54.0669a2.49969,2.49969,0,1,1,4.4511,2.2763c-8.9033,17.4087-42.1582,52.1675-69.77632,56.7242-16.0752,2.6533-23.8858,2.3476-27.61038,2.0732,1.34768,6.1826,7.22758,24.1572,29.80078,25.2939,19.03032.9698,37.915-12.7392,50.40232-21.8056,6.0928-4.4238,10.1182-7.3467,12.9922-7.8174,2.2647-.3711,8.7979-.3066,21.1182-.1533,13.1191.167,29.4463.3711,43.3476-.1573,22.3174-.8486,25.379-3.2285,25.7667-3.6967,3.7441-6.2193,4.2792-31.7549,4.1679-41.0664a2.50018,2.50018,0,1,1,5-.0606c.043,3.5718.2705,35.1445-4.9092,43.7427-3.6211,6.0098-27.5693,6.8154-73.4365,6.2383-9.8242-.124-18.3076-.2305-20.2451.0869-1.7051.2793-6.3613,3.6601-10.8643,6.9297C1277.957,790.4609,1259.1416,804.1211,1239.13958,804.1221Z"
          transform="translate(-121.31838 -205.66075)" style="fill:#f5ce5c" />
      <path
          d="M1305.021,728.771c3.9995-3.7383,7.9297-15.5049,8.519-18.0161h-7.956a8.94331,8.94331,0,0,0-8.7412,7.0532l-3.8701,17.9043A47.2265,47.2265,0,0,0,1305.021,728.771Z"
          transform="translate(-121.31838 -205.66075)" style="fill:#f37168" />
      <path
          d="M1234.01608,1393.9473c0,9.6572-34.7515,17.4853-77.6196,17.4853s-77.6192-7.8281-77.6192-17.4853c0-12.9092,19.6089-23.3672,77.6192-23.3672C1208.52438,1370.5801,1234.01608,1381.3652,1234.01608,1393.9473Z"
          transform="translate(-121.31838 -205.66075)" style="fill:#63acc2" />
      <ellipse cx="1035.07823" cy="1181.09705" rx="71.81602" ry="16.1777" style="fill:#9bd6e8" />
      <path
          d="M1032.4633,1046.61175h5.2291a2.6147,2.6147,0,0,1,2.6147,2.6147v125.4976a2.6142,2.6142,0,0,1-2.6142,2.6142h-5.2295a2.6143,2.6143,0,0,1-2.6143-2.6143V1049.226A2.6142,2.6142,0,0,1,1032.4633,1046.61175Z"
          style="fill:#4490a6" />
      <path
          d="M1136.624,867.6064c.38228,18.8555-21.01952,34.3165-37.68752,36.2769-16.66748,1.9609-16.0971-4.6211,1.98152,55.5737,18.07808,60.1953,26.45208,77.7686-1.98152,123.8496-28.4331,46.0821-14.3559,182.3653-14.3559,206.876,0,24.5117,139.9253,17.6485,143.7695,8.8242s23.12992-150.2021-8.3872-210.7978c-28.0088-53.8496-13.2373-85.2998-.9805-125.4981,12.2564-40.1987,26.898-52.5673,9.1939-57.8466-36.1656-10.7852-47.5034-20.1651-48.6211-35.2969C1178.457,854.6973,1136.45168,859.1094,1136.624,867.6064Z"
          transform="translate(-121.31838 -205.66075)" style="fill:#63acc2" />
      <path
          d="M1177.96678,868.8325c0,4.1968-8.999,7.5982-20.0996,7.5982s-20.0991-3.4014-20.0991-7.5982c0-4.1963,8.9985-7.5976,20.0991-7.5976S1177.96678,864.6362,1177.96678,868.8325Z"
          transform="translate(-121.31838 -205.66075)" style="fill:#9bd6e8" />
      <rect x="1031.3198" y="624.03505" width="10.458" height="40.5254" rx="3.7583"
          style="fill:#4490a6" />
      <path
          d="M1090.35638,1104.209c-15.0336,45.1015-14.3803,158.1806-14.3803,158.1806a291.41547,291.41547,0,0,0,69.9394,9.1504c37.2574,0,53.0132-1.5586,53.0132-1.5586l4.96732-74.2626s9.10008,73.748,9.58938,73.7792c3.9218.2442,15.3671-1.2255,29.82219-3.1865,0-41.1797-2.6147-132.6885-13.07319-152.2978-10.458-19.6094-81.7046-44.7442-81.7046-44.7442Z"
          transform="translate(-121.31838 -205.66075)" style="fill:#f37168" />
      <path
          d="M1108.98338,1149.3105c27.9131-4.707,62.4238-25.0039,62.4238-25.0039s27.01082,14.5118,64.3272,9.8545c-1.5323-9.0439-3.3501-16.1172-5.5-20.1474-2.4639-4.6201-44.1416-50.0723-51.628-54.9053l-44.4565,10.1611-43.7935,34.9395c-4.1577,12.4726-7.1137,30.1474-9.2172,49.1885C1086.13378,1152.8555,1094.71918,1151.7148,1108.98338,1149.3105Z"
          transform="translate(-121.31838 -205.66075)" style="fill:#d54a41;opacity:0.5" />
      <path
          d="M1200.23778,894.0811c3.2393,34.0752-27.6865,85.583-34.4072,98.4379-2.562,4.8999-15.3399,103.438,6.7207,122.3121,18.7475,16.039,65.7954,6.8632,65.7954,6.8632s-24.126-65.6914-23.1455-92.163c.9804-26.4727,23.1455-122.5572,23.1455-122.5572Z"
          transform="translate(-121.31838 -205.66075)" style="fill:#f37168" />
      <path
          d="M1115.27248,895.8491c5.04152,53.5044,37.6694,99.1211,37.6694,99.1211s21.08012,104.1734-3.4312,117.4097c-24.51168,13.2363-70.103,5.8828-70.103,5.8828s31.8648-68.1416,24.5117-100.4971c-7.3535-32.355-19.6093-112.7524-19.6093-112.7524Z"
          transform="translate(-121.31838 -205.66075)" style="fill:#f37168" />
      <path
          d="M1106.65228,898.1665l4.2696,39.6919,13.5869,10.7852-6.7935,19.6093s27.9639,20.2022,33.5108,41.7725c5.5473,21.5693,9.6406,59.2139,9.6406,59.2139-.1172,1.413-.418-47.2325,12.4199-69.3667,12.3355-21.2691,30.60942-34.5611,30.60942-34.5611l-6.20072-15.6875L1212.75,936.8779l-4.43072-40.0625-14.186-5.6567s-2.9448,18.8364-17.8237,53.563a223.24308,223.24308,0,0,0-16.8404,66.5195s-4.5337-35.2593-18.7827-65.5391a435.69264,435.69264,0,0,1-20.2969-51.2285Z"
          transform="translate(-121.31838 -205.66075)" style="fill:#d54a41" />
      <path
          d="M1125.38618,1065.0723l-29.1684,7.5986s-18.3833,17.6484-13.7266,19.1191c4.6572,1.4707,20.4229-1.7158,29.5757-10.2949A70.925,70.925,0,0,0,1125.38618,1065.0723Z"
          transform="translate(-121.31838 -205.66075)" style="fill:#d54a41" />
      <path
          d="M1193.26218,1065.0723l29.1685,7.5986s18.38379,17.6484,13.7265,19.1191-20.4228-1.7158-29.57518-10.2949A70.9199,70.9199,0,0,1,1193.26218,1065.0723Z"
          transform="translate(-121.31838 -205.66075)" style="fill:#d54a41" />
      <path
          d="M1084.31008,905.0132c-6.6997-.1636-5.3926-1.4707-9.314,42.3232-3.9219,43.7935-30.3945,149.0288-36.604,180.4038l-6.2095,31.3741s15.6875,3.9218,22.2237,2.9414c6.5366-.9805,26.1455-69.8789,29.9038-92.7862s13.0376-64.9492,15.4248-72.0346C1102.12158,990.1494,1084.31008,905.0132,1084.31008,905.0132Z"
          transform="translate(-121.31838 -205.66075)" style="fill:#f37168" />
      <path
          d="M1237.42288,906.6475c6.69969-.1636,5.39249-1.4707,9.31439,42.3227,3.92193,43.794,30.394,149.0298,36.60353,180.4038l6.2095,31.375s-15.687,3.9219-22.2236,2.9414c-6.5362-.9804-26.14553-69.8789-29.90382-92.7861-3.7583-22.9082-15.564-65.9766-17.9512-73.0615C1217.08448,990.7573,1237.42288,906.6475,1237.42288,906.6475Z"
          transform="translate(-121.31838 -205.66075)" style="fill:#f37168" />
      <path
          d="M929.6039,491.20355h104.88a17.645,17.645,0,0,1,17.645,17.645v29.353a17.645,17.645,0,0,1-17.645,17.645H929.604a17.6451,17.6451,0,0,1-17.6451-17.6451v-29.3529a17.645,17.645,0,0,1,17.645-17.645Z"
          style="fill:#d54a41" />
      <path
          d="M1117.94818,733.5137h-34.2763a2.50113,2.50113,0,0,1-2.4512-2.0069l-3.5293-17.5464a2.50032,2.50032,0,0,1,4.9024-.9863l3.125,15.5396h32.2294a2.5,2.5,0,0,1,0,5Z"
          transform="translate(-121.31838 -205.66075)" style="fill:#fff" />
      <path d="M1119.90528,715.9673h-39.7627a2.5,2.5,0,0,1,0-5h39.7627a2.5,2.5,0,0,1,0,5Z"
          transform="translate(-121.31838 -205.66075)" style="fill:#fff" />
      <path d="M1118.59378,724.7734h-35.5245a4,4,0,0,1,0-8h35.5245a4,4,0,0,1,0,8Z"
          transform="translate(-121.31838 -205.66075)" style="fill:#fff" />
      <path
          d="M1115.66208,745.2285H1086.001a2.5,2.5,0,0,1,0-5h27.69428l8.543-35.269a2.49966,2.49966,0,0,1,2.42972-1.9116h13.56438a2.5,2.5,0,0,1,0,5h-11.5976l-8.543,35.269A2.49966,2.49966,0,0,1,1115.66208,745.2285Z"
          transform="translate(-121.31838 -205.66075)" style="fill:#fff" />
      <circle cx="968.9023" cy="544.36415" r="4.6265" style="fill:#fff" />
      <path
          d="M1116.06928,750.0249a4.6267,4.6267,0,1,1-4.6264-4.6265A4.6264,4.6264,0,0,1,1116.06928,750.0249Z"
          transform="translate(-121.31838 -205.66075)" style="fill:#fff" />
      <path
          d="M1209.86712,1141.12835h104.8798a17.6451,17.6451,0,0,1,17.6451,17.6451v29.3529a17.6455,17.6455,0,0,1-17.6455,17.6455h-104.8799a17.645,17.645,0,0,1-17.645-17.645v-29.353A17.6455,17.6455,0,0,1,1209.86712,1141.12835Z"
          style="fill:#d54a41" />
      <path
          d="M1398.2109,1383.4385h-34.2763a2.50113,2.50113,0,0,1-2.4512-2.0069l-3.5293-17.5459a2.50027,2.50027,0,0,1,4.9023-.9863l3.125,15.5391h32.2295a2.5,2.5,0,0,1,0,5Z"
          transform="translate(-121.31838 -205.66075)" style="fill:#fff" />
      <path d="M1400.168,1365.8926h-39.7627a2.5,2.5,0,0,1,0-5h39.7627a2.5,2.5,0,0,1,0,5Z"
          transform="translate(-121.31838 -205.66075)" style="fill:#fff" />
      <path d="M1398.8564,1374.6992H1363.333a4,4,0,0,1,0-8h35.5234a4,4,0,0,1,0,8Z"
          transform="translate(-121.31838 -205.66075)" style="fill:#fff" />
      <path
          d="M1395.9258,1395.1533h-29.6621a2.5,2.5,0,0,1,0-5h27.6953l8.542-35.2695a2.49975,2.49975,0,0,1,2.4297-1.9111h13.5644a2.5,2.5,0,0,1,0,5h-11.5976l-8.542,35.2695A2.49975,2.49975,0,0,1,1395.9258,1395.1533Z"
          transform="translate(-121.31838 -205.66075)" style="fill:#fff" />
      <path
          d="M1375.1104,1399.9502a4.62675,4.62675,0,1,1-4.627-4.627A4.62656,4.62656,0,0,1,1375.1104,1399.9502Z"
          transform="translate(-121.31838 -205.66075)" style="fill:#fff" />
      <path
          d="M1396.332,1399.9502a4.62645,4.62645,0,1,1-4.6264-4.627A4.62643,4.62643,0,0,1,1396.332,1399.9502Z"
          transform="translate(-121.31838 -205.66075)" style="fill:#fff" />
      <path
          d="M1303.85242,718.94325h15.129a10.9395,10.9395,0,0,1,10.9395,10.9395v15.1293a10.9395,10.9395,0,0,1-10.9395,10.9395h-15.1289a10.9395,10.9395,0,0,1-10.9395-10.9395v-15.1294A10.9394,10.9394,0,0,1,1303.85242,718.94325Z"
          style="fill:#9bd6e8" />
      <path
          d="M1303.85152,783.29965h15.1299a10.9395,10.9395,0,0,1,10.9395,10.9395v15.1289a10.939,10.939,0,0,1-10.939,10.939H1303.852a10.939,10.939,0,0,1-10.939-10.939v-15.1299A10.9385,10.9385,0,0,1,1303.85152,783.29965Z"
          style="fill:#3e6bab" />
      <rect x="1292.91302" y="654.58725" width="37.0079" height="37.0079" rx="10.9395"
          style="fill:#f37168" />
      <path
          d="M1384.7969,964.1123H1369.668a13.45517,13.45517,0,0,1-13.4395-13.4394v-15.129a13.45517,13.45517,0,0,1,13.4395-13.4394h15.1289a13.45515,13.45515,0,0,1,13.4394,13.4394v15.129A13.45515,13.45515,0,0,1,1384.7969,964.1123Zm-15.1289-37.0078a8.44924,8.44924,0,0,0-8.4395,8.4394v15.129a8.44924,8.44924,0,0,0,8.4395,8.4394h15.1289a8.44922,8.44922,0,0,0,8.4394-8.4394v-15.129a8.44922,8.44922,0,0,0-8.4394-8.4394Z"
          transform="translate(-121.31838 -205.66075)" style="fill:#bdccd4" />
      <path
          d="M1384.7969,1028.4678H1369.668a13.45434,13.45434,0,0,1-13.4395-13.4385V999.8994A13.45517,13.45517,0,0,1,1369.668,986.46h15.1289a13.45515,13.45515,0,0,1,13.4394,13.4394v15.1299A13.45431,13.45431,0,0,1,1384.7969,1028.4678ZM1369.668,991.46a8.44924,8.44924,0,0,0-8.4395,8.4394v15.1299a8.44847,8.44847,0,0,0,8.4395,8.4385h15.1289a8.44845,8.44845,0,0,0,8.4394-8.4385V999.8994a8.44922,8.44922,0,0,0-8.4394-8.4394Z"
          transform="translate(-121.31838 -205.66075)" style="fill:#bdccd4" />
      <path
          d="M1384.7969,899.7559H1369.668a13.45519,13.45519,0,0,1-13.4395-13.4395V871.1875a13.45519,13.45519,0,0,1,13.4395-13.4395h15.1289a13.45517,13.45517,0,0,1,13.4394,13.4395v15.1289A13.45517,13.45517,0,0,1,1384.7969,899.7559ZM1369.668,862.748a8.44932,8.44932,0,0,0-8.4395,8.4395v15.1289a8.44932,8.44932,0,0,0,8.4395,8.4395h15.1289a8.4493,8.4493,0,0,0,8.4394-8.4395V871.1875a8.4493,8.4493,0,0,0-8.4394-8.4395Z"
          transform="translate(-121.31838 -205.66075)" style="fill:#bdccd4" />
      <path
          d="M1377.2324,888.9619a4.00634,4.00634,0,0,1-3.3594-1.8291l-9.8212-15.1963a3.99975,3.99975,0,0,1,6.7187-4.3418l7.1426,11.0518,23.1435-22.9951a4.00027,4.00027,0,1,1,5.6387,5.6757l-26.6435,26.4727A4.001,4.001,0,0,1,1377.2324,888.9619Z"
          transform="translate(-121.31838 -205.66075)" style="fill:#d54a41" />
      <path
          d="M1446.6816,1256.624H1330.6431a4.5576,4.5576,0,1,1,0-9.1152h116.0385a4.5576,4.5576,0,1,1,0,9.1152Z"
          transform="translate(-121.31838 -205.66075)" style="fill:#7396c7" />
      <path
          d="M1446.6816,1276.0986H1330.6431a4.5581,4.5581,0,1,1,0-9.1162h116.0385a4.5581,4.5581,0,0,1,0,9.1162Z"
          transform="translate(-121.31838 -205.66075)" style="fill:#7396c7" />
      <path
          d="M1446.6816,1295.5459h-78.791a4.5581,4.5581,0,1,1,0-9.1162h78.791a4.5581,4.5581,0,0,1,0,9.1162Z"
          transform="translate(-121.31838 -205.66075)" style="fill:#7396c7" />
      <path
          d="M1495.3809,683.6289a32.44117,32.44117,0,0,0-10.357-23.7349L984.76028,1346.3057v107.3134a32.61751,32.61751,0,0,0,32.5219,32.5225h72.8623L1495.3809,936.9023Z"
          transform="translate(-121.31838 -205.66075)" style="fill:#4d4d4d;mix-blend-mode:screen" />
      <polygon
          points="1374.063 947.206 1374.063 788.805 1015.724 1280.481 1131.169 1280.481 1374.063 947.206"
          style="fill:#4d4d4d;mix-blend-mode:screen" />
      <path
          d="M2370.0479,695.9951a1.50094,1.50094,0,0,1-1.3614-2.1284c23.2588-50.4629,54.083-129.5137,43.6748-140.4648-3.1142-3.274-15.3095-4.2051-62.0127,26.3608-26.998,17.6704-52.5293,37.4824-52.7841,37.6802a1.5,1.5,0,1,1-1.8418-2.3682c.2558-.1987,25.8837-20.0859,52.9834-37.8218,15.9502-10.4399,29.2959-18.1108,39.665-22.7998,13.706-6.1977,22.2656-7.2187,26.1641-3.1177,3.7851,3.982,3.8046,13.6485.0605,29.5513-2.8838,12.2486-8.0088,28.1875-15.2305,47.3736-12.6162,33.5146-27.3339,65.5161-27.9541,66.8623A1.50046,1.50046,0,0,1,2370.0479,695.9951Z"
          transform="translate(-121.31838 -205.66075)" style="fill:#d54a41" />
      <path
          d="M2316.3838,585.9502s48.1133,71.2197,61.9922,80.4727l13.8789,9.2524-51.124,135.1597-39.5518,5.6928s-6.4766,4.6158-48.1133-21.393c-41.6367-26.0083-55.5674-93.7373-55.5674-93.7373Z"
          transform="translate(-121.31838 -205.66075)" style="fill:#3e6bab" />
      <path
          d="M2350.1055,690.562c-1.3057,2.0532-3.4278,3.0415-4.7412,2.207-1.3125-.8344-1.3184-3.1757-.0127-5.229,1.3047-2.0537,3.4277-3.042,4.7402-2.207C2351.4043,686.1675,2351.4102,688.5083,2350.1055,690.562Z"
          transform="translate(-121.31838 -205.66075)" style="fill:#2e5b9a" />
      <path
          d="M2348.7666,688.3442a1.50023,1.50023,0,0,1-1.3018-2.2436c.1866-.3281,18.9151-33.2246,35.6846-66.8081,30.958-61.9956,27.5088-70.6392,25.7139-71.8115-.8076-.5284-2.2051-.2764-3.2334.0273-22.5733,6.6812-100.2754,97.8032-102.6524,103.1743a1.532,1.532,0,0,1-1.9492.8159,1.4697,1.4697,0,0,1-.8564-1.8774c1.8603-5.0254,79.6494-96.7593,104.1513-104.8467,2.5909-.855,4.6719-.79,6.1807.1948,4.0293,2.6324,3.0996,11.1495-3.0127,27.6167-4.4902,12.0938-11.7783,28.2622-21.6621,48.0562-16.8066,33.6562-35.5713,66.6157-35.7588,66.9448A1.50037,1.50037,0,0,1,2348.7666,688.3442Z"
          transform="translate(-121.31838 -205.66075)" style="fill:#d54a41" />
      <path
          d="M2341.1318,635.6016a1.4998,1.4998,0,0,1-.8535-2.7339c26.3457-18.2012,67.7051-59.0987,68.9238-75.126a5.00352,5.00352,0,0,0-1.3222-4.2822c-2.0469-1.9322-11.6641-4.4405-56.5645,13.9546-24.9912,10.2392-48.833,22.0195-49.0703,22.1372a1.50019,1.50019,0,0,1-1.332-2.6885c.2392-.1182,24.164-11.9395,49.2519-22.2192,51.5489-21.1226,57.7393-15.2842,59.7735-13.3658a7.90579,7.90579,0,0,1,2.2558,6.6914c-1.4375,18.897-46.2754,60.8306-70.2109,77.3667A1.49335,1.49335,0,0,1,2341.1318,635.6016Z"
          transform="translate(-121.31838 -205.66075)" style="fill:#497ec9" />
      <path
          d="M2316.3838,560.2344l-165.6221,59.372s10.1778,44.9659,37.0108,90.3033c26.833,45.3379,33.249,50.8891,33.249,50.8891l135.1484-116.8901Z"
          transform="translate(-121.31838 -205.66075)" style="fill:#f5ce5c" />
      <path
          d="M2365.8789,639.5903s-90.207,134.1626-112.4131,134.1626-29.8574-7.6928-38.8076-21.1152c-8.9512-13.4224,136.8477-118.5361,136.8477-118.5361Z"
          transform="translate(-121.31838 -205.66075)" style="fill:#dbb64c" />
      <path
          d="M2316.3838,560.2344l49.4951,79.3559s-12.0664-.6391-14.373-5.4887C2349.2002,629.252,2316.3838,560.2344,2316.3838,560.2344Z"
          transform="translate(-121.31838 -205.66075)" style="fill:#dbb64c" />
      <path
          d="M2373.8125,668.2734s-81.708,148.2544-76.9707,148.2544,42.4736-.8925,44.2891-5.6928c1.8164-4.7998,51.124-135.1597,51.124-135.1597Z"
          transform="translate(-121.31838 -205.66075)" style="fill:#497ec9" />
      <path
          d="M2302.5791,578.0493c.917,1.228-.0391,3.4946-2.1367,5.062-2.0986,1.5679-4.543,1.8433-5.46.6153-.9179-1.2281.0381-3.4942,2.1367-5.062C2299.2168,577.0967,2301.6611,576.8213,2302.5791,578.0493Z"
          transform="translate(-121.31838 -205.66075)" style="fill:#dbb64c" />
      <path
          d="M2323.0889,624.6538c.917,1.228-.0391,3.4946-2.1368,5.062-2.0986,1.5679-4.5419,1.8433-5.4599.6153s.0391-3.4942,2.1367-5.0621S2322.1709,623.4258,2323.0889,624.6538Z"
          transform="translate(-121.31838 -205.66075)" style="fill:#dbb64c" />
      <path
          d="M2321.418,627.6333a2.15147,2.15147,0,0,1-1.2422-.3555,1.5,1.5,0,0,1,1.3594-2.6518c3.1425-.2803,21.8711-12.4942,44.2431-29.9326,24.3496-18.979,40.5518-34.3511,42.2832-40.1182.0733-.2432.2217-.8223.0205-.9551-8.2461-5.4472-44.1972.5679-105.9257,26.2876a1.50021,1.50021,0,1,1-1.1543-2.7695c55.1806-22.9912,97.8603-33.2036,108.7343-26.021a3.24955,3.24955,0,0,1,1.4385,3.0478c-.4336,6.9673-20.2529,24.2691-36.8037,37.5572-19.1738,15.3945-40.1904,30.2475-48.8857,34.5493A10.235,10.235,0,0,1,2321.418,627.6333Z"
          transform="translate(-121.31838 -205.66075)" style="fill:#497ec9" />
      <path
          d="M3053.667,616.3525a1.4931,1.4931,0,0,1-.9111-.309c-10.9883-8.4156-31.2159-29.2466-48.0967-49.5318-14.6182-17.5674-31.1729-39.9892-27.0176-47.041,1.2666-2.1519,4.6309-7.8662,61.8467,4.0166,27.7988,5.773,55.1494,12.9976,55.4219,13.0698a1.50013,1.50013,0,0,1-.7676,2.9004c-.2725-.0722-27.5547-7.2788-55.2754-13.0351-51.125-10.6172-57.8106-6.8409-58.6416-5.4292-1.8242,3.0971,4.084,16.374,26.7402,43.5996,16.4854,19.8105,36.9551,40.9057,47.6143,49.0688a1.50021,1.50021,0,0,1-.9131,2.6909Z"
          transform="translate(-121.31838 -205.66075)" style="fill:#497ec9" />
      <path
          d="M3075.0947,608.7061a1.49335,1.49335,0,0,1-.8593-.271c-9.0987-6.3697-88.9024-62.7339-89.085-80.2403a5.01524,5.01524,0,0,1,2.0859-4.2734c15.0459-11.0044,98.4102,23.1328,107.8653,27.062a1.49992,1.49992,0,0,1-1.1504,2.7705c-25.2617-10.4971-93.3584-35.8838-104.9434-27.4111a2.02591,2.02591,0,0,0-.8574,1.8208c.1406,13.5097,63.4307,60.751,87.8057,77.8135a1.50026,1.50026,0,0,1-.8614,2.729Z"
          transform="translate(-121.31838 -205.66075)" style="fill:#497ec9" />
      <path
          d="M3176.0234,711.7603s34.125,15.3891,42.0079,9.0825c7.8818-6.3067,51.6474-105.5801,56.5976-154.9458,4.9492-49.3662-199.5332-33.8994-199.5332-33.8994s10.1777,17.7187-27.7578,64.9687S3176.0234,711.7603,3176.0234,711.7603Z"
          transform="translate(-121.31838 -205.66075)" style="fill:#f39892" />
      <path
          d="M3036.4824,635.6016a1.49806,1.49806,0,0,1-1.2373-.6509c-.168-.2442-16.9306-24.6909-32.6533-50.6133-32.1777-53.0532-28.7588-60.4858-27.6348-62.9282a4.50463,4.50463,0,0,1,3.8164-2.669c19.6036-2.0927,97.6319,58.3877,100.9444,60.9639a1.5,1.5,0,0,1-1.8418,2.3682c-27.7237-21.5625-84.0244-61.938-98.7822-60.3487a1.53472,1.53472,0,0,0-1.4122.9395c-4.6806,10.1748,33.3389,71.7104,60.0362,110.5893a1.50043,1.50043,0,0,1-1.2354,2.3492Z"
          transform="translate(-121.31838 -205.66075)" style="fill:#f37168" />
      <path
          d="M3075.0957,560.2344l142.9356,116.2192s-71.6905,100.0747-124.4297,118.6812c-72.17-69.4956-105.4805-155.5445-105.4805-155.5445Z"
          transform="translate(-121.31838 -205.66075)" style="fill:#9bd6e8" />
      <path
          d="M3082.498,552.3687c2.7754,3.9482,141.504,87.2216,141.504,87.2216s3.5683,24.1426-5.9707,36.8633c-9.5401,12.7207-142.9356-116.2192-142.9356-116.2192Z"
          transform="translate(-121.31838 -205.66075)" style="fill:#63acc2" />
      <path
          d="M3075.0957,525.1323c6.4766,2.5015,199.5332,0,199.5332,0s5.2275,32.7647,0,40.7647c-5.2285,8-199.5332-20.3824-199.5332-20.3824Z"
          transform="translate(-121.31838 -205.66075)" style="fill:#f37168" />
      <path
          d="M3014.834,659.7432c-1.291-2.6172-.9551-5.42.749-6.2598s4.1309.6011,5.4209,3.2187c1.29,2.6172.9541,5.4195-.749,6.2593C3018.5508,663.8013,3016.123,662.3608,3014.834,659.7432Z"
          transform="translate(-121.31838 -205.66075)" style="fill:#63acc2" />
      <path
          d="M3069.1924,600.9893c-1.2901-2.6172-.9541-5.42.749-6.2598,1.7041-.8399,4.1309.6011,5.4219,3.2183,1.29,2.6176.9541,5.4199-.75,6.2597S3070.4824,603.6064,3069.1924,600.9893Z"
          transform="translate(-121.31838 -205.66075)" style="fill:#63acc2" />
      <path
          d="M3017.7285,657.9692a1.48989,1.48989,0,0,1-.792-.227c-10.0986-6.2915-32.8818-73.5332-36.5224-114.5161-1.4727-16.5635.288-27.2251,5.2314-31.6885a4.24851,4.24851,0,0,1,3.3428-1.0024c15.9795,1.3569,75.8818,76.8945,82.6601,85.5034a1.5,1.5,0,1,1-2.3574,1.8554c-18.1943-23.1088-68.1347-83.3149-80.5566-84.3696-.749-.063-.9961.1646-1.0791.2398-2.8916,2.6113-5.9776,9.7963-4.2539,29.1967,3.7382,42.0625,26.5459,106.8921,35.1211,112.2354a1.49976,1.49976,0,0,1-.794,2.7729Z"
          transform="translate(-121.31838 -205.66075)" style="fill:#f37168" />
      <path
          d="M2571.3975,592.0938c-12.4815-9.8697-10.5362-32.647,0-35.1143,10.5351-2.4673,11.7685-11.6743,13.0029-24.9819,1.2334-13.3081,16.1484-30.8814,41.3828-26.7212,25.2354,4.1606,31.4043-3.8584,35.1055-8.1763s20.3554.3149,31.459,8.1763c11.1025,7.8618,16.0371-2.0078,28.9912-3.8584,12.9531-1.8506,46.2627,0,53.0478,20.3559,6.7852,20.3555,17.0029,25.9073,26.0821,26.524,9.0781.6171,22.0312,35.1601,8.4609,36.3935-13.5703,1.2339-3.7012,19.7388-5.5508,25.2905-1.8516,5.5513-16.0391,1.9952-14.8047,14.9488,1.2334,12.9536,1.2334,15.0947-16.0381,21.354s-27.8017,14.895-30.5556,19.8296-137.8418,19.122-145.2432,2.4672c-7.4023-16.6543-12.3369-19.7382-20.3564-24.6728-8.0186-4.9351-13.6309-16.0386-5.6299-27.3687C2576.4443,608.478,2576.7539,596.3286,2571.3975,592.0938Z"
          transform="translate(-121.31838 -205.66075)" style="fill:#d54a41" />
      <path
          d="M2763.9004,582.8408c12.3369-12.9536,20.9726-1.1836,12.3369,3.1094s-9.8691,6.0981-10.4863,15.6816c-.6172,9.584-14.8037,5.8828-19.7393,8.9668-4.9336,3.0845,9.8985,22.0601.6172,25.2906s-83.8935,30.6215-111.0312,21.5893c-27.1368-9.0322-28.9913-20.3555-25.2901-27.1411,3.7012-6.7852-7.4023-3.7007-8.6357-9.8691-1.2344-6.1685-1.8506-12.3819,3.7011-18.8365,5.5508-6.4541-7.4023-15.7065-3.7011-23.1089,3.7011-7.4018,32.0752-14.8041,32.0752-14.8041l101.7783,6.7856Z"
          transform="translate(-121.31838 -205.66075)" style="fill:#b83b34" />
      <path
          d="M2944.002,536.6802c5.2587-.7193,23.6093-23.8506,29.0068-22.4624,5.3975,1.3877,30.8428-7.5225,38.2441-.0601,7.4024,7.4619-1.8506,26.4297-16.1924,28.7427-14.3408,2.3135-19.8925,0-19.8925,0s-.9258,12.9536-16.1914,20.8184C2943.709,571.5835,2944.002,536.6802,2944.002,536.6802Z"
          transform="translate(-121.31838 -205.66075)" style="fill:#f09959" />
      <path
          d="M2446.8457,576.21s-8.3281-30.9961-13.417-32.8467-38.8603-5.0889-38.8603,0-3.2383,15.2666,8.3271,20.3555c11.5654,5.0893,17.6025,5.0893,17.6025,5.0893s-.9482,17.5796,8.7676,21.7432C2438.9805,594.7148,2446.8457,576.21,2446.8457,576.21Z"
          transform="translate(-121.31838 -205.66075)" style="fill:#f09959" />
      <path
          d="M2670.3809,641.1963s-89.2373,11.1308-122.0704,1.8706c-32.832-9.2607-101.2011-72.5625-101.2011-72.5625s-25.7735,16.1572-23.7422,19.5249c2.0312,3.3672,68.5381,86.3872,98.8457,104.0518,27.9922,16.3149,133.6006,35.6977,133.6006,35.6977Z"
          transform="translate(-121.31838 -205.66075)" style="fill:#c1c765" />
      <path
          d="M2655.8135,729.7788l4.5449-20.1865,10.0225-65.6836s-47.5909,53.624-80.5508,71.8638C2623.4648,723.8408,2655.8135,729.7788,2655.8135,729.7788Z"
          transform="translate(-121.31838 -205.66075)" style="fill:#a1a654" />
      <path
          d="M2703.1504,628.4873c64.7598,27.7578,129.4951,9.6948,159.9297-17.1372,31.459-27.7349,85.872-79.3525,85.872-79.3525l24.0567,24.9819s-63.5342,75.2085-82.0391,101.1157-79.1357,50.8892-106.4052,69.3945-9.7188,126.9058-9.7188,126.9058l-109.6396,2.5962s-27.9561-68.772-39.4229-113.0161c-11.4658-44.2437,47.75-106.2359,47.75-106.2359Z"
          transform="translate(-121.31838 -205.66075)" style="fill:#c1c765" />
      <path
          d="M2724.4229,661.7964s-27.7403,49.0386-21.2725,74.0205c6.4687,24.9819,38.3769,132.1943,38.3769,132.1943h40.2618L2772,752.6377s-8.0273,15.7134-26.2959-4.792C2721.6475,720.8428,2724.4229,661.7964,2724.4229,661.7964Z"
          transform="translate(-121.31838 -205.66075)" style="fill:#a1a654" />
      <path
          d="M2690.2822,552.3687l17.6905,81.8813s-15.9786,52.5938-37.5918,52.5938c-21.6123,0,1.2968-39.7598,1.2968-39.7598l-14.1543-68.5611Z"
          transform="translate(-121.31838 -205.66075)" style="fill:#f09959" />
      <path
          d="M2701.1367,602.5796l-9.1484-42.3452-34.4649,18.2885,13.9893,67.7618C2684.2422,637.2163,2694.418,625.6772,2701.1367,602.5796Z"
          transform="translate(-121.31838 -205.66075)" style="fill:#e38540" />
      <path
          d="M2686.7031,591.0112c-9.6504,22.5498-30.5381,35.2393-46.6543,28.3423-16.1152-6.897-21.3564-30.7685-11.705-53.3183,9.6503-22.5498,30.538-35.2393,46.6533-28.3423C2691.1133,544.5894,2696.3535,568.4609,2686.7031,591.0112Z"
          transform="translate(-121.31838 -205.66075)" style="fill:#f09959" />
      <path
          d="M2601.6719,540.896c6.7851,25.2905,6.1679,37.6269,41.3281,16.0835,9.6846-5.9341,14.1875-.0459,17.8887,4.272s8.6347-7.9273,15.4199-4.272c6.7861,3.6553-4.3916,37.876,13.9736,36.3301,16.4473-1.3848,15.0166,10.268,39.4668-2.0684,19.2393-9.7075-31.833-59.5981-55.2822-65.1494C2651.0186,520.54,2601.6719,540.896,2601.6719,540.896Z"
          transform="translate(-121.31838 -205.66075)" style="fill:#d54a41" />
      <path
          d="M2774.3867,570.5044c-14.8037,21.5894-21.9668,19.7622-28.2842,18.5049s-19.6171,3.6596-26.4209,4.2929c-6.8037.6329,7.209-40.0693,7.209-40.0693Z"
          transform="translate(-121.31838 -205.66075)" style="fill:#d54a41" />
      <path
          d="M2958.8477,1517.8467H2013.1719a37.58224,37.58224,0,0,1-36.0669-48.1475l170.4751-581.9111a54.22758,54.22758,0,0,1,52.04-38.9824h933.208a37.58267,37.58267,0,0,1,36.0664,48.1484l-173.9804,593.877A37.581,37.581,0,0,1,2958.8477,1517.8467Z"
          transform="translate(-121.31838 -205.66075)" style="fill:#2e5b9a" />
      <path
          d="M2915.1348,1430.1494H2079.6025a33.20508,33.20508,0,0,1-31.8662-42.54L2185.1289,922.21a47.91314,47.91314,0,0,1,45.9795-34.4419H3055.624a33.20532,33.20532,0,0,1,31.8662,42.54L2947,1406.2793A33.20536,33.20536,0,0,1,2915.1348,1430.1494Z"
          transform="translate(-121.31838 -205.66075)" style="fill:#ebeff2" />
      <rect x="1471.68162" y="1244.63125" width="1412" height="74.5283" rx="28.5674"
          style="fill:#6087bd" />
      <path
          d="M2356.55752,1244.63125h504.292a22.8321,22.8321,0,0,1,22.8321,22.8321v28.8642a22.832,22.832,0,0,1-22.832,22.832h-504.2921a22.832,22.832,0,0,1-22.832-22.832v-28.8643A22.832,22.832,0,0,1,2356.55752,1244.63125Z"
          style="fill:#4170b3" />
      <path
          d="M2344.8662,1076.8916s-2.3701,35.4219,27.1719,34.1572c16.0449-.6875,38.6123-34.1572,38.6123-34.1572s45.7695,10.1201,65.1309,55.6631l19.3613,45.543s-17.4492,17.3252-36.4102,28.0459a139.804,139.804,0,0,1-35.2412,13.7021l-11.1719-32.8926-29.4326,126.5088s-34.8457,12.7158-94.7148,12.6504c-51.4317-.0557-68.4073-16.4453-68.4073-16.4453l56.8184-125.2432-35.7822,40.4825s-26.3692-14.3262-44.957-30.3624c2.6767-7.5908,33.1044-39.4267,56.164-64.9101C2282.9443,1095.4463,2344.8662,1076.8916,2344.8662,1076.8916Z"
          transform="translate(-121.31838 -205.66075)" style="fill:#c1c765" />
      <polygon
          points="2162.584 957.029 2299.22 957.029 2302.914 946.12 2166.257 946.12 2162.584 957.029"
          style="fill:#f5ce5c" />
      <polygon
          points="2139.629 1013.228 2283.571 1013.228 2286.035 1002.319 2144.578 1002.319 2139.629 1013.228"
          style="fill:#f5ce5c" />
      <polygon
          points="2296.049 966.39 2159.432 966.39 2155.265 978.763 2148.825 992.957 2288.287 992.957 2291.001 981.292 2296.049 966.39"
          style="fill:#f5ce5c" />
      <path
          d="M2778.8633,1072.0869s-37.7637,12.3145-63.4922,25.249c-25.7266,12.9356-129.8643,128.1729-129.8643,128.1729s16.6787,29.3975,26.085,29.3975c9.4082,0,91.4697-72.6465,91.4697-72.6465s3.3526,33.8418-26.126,90.5195c-17.4082,33.4717-29.0771,52.6797-29.0771,52.6797s26.1475,5.8799,72.7686,7.0556,95.8671-11.7587,95.8671-11.7587-.6367-48.212,13.3204-86.0801c6.9472-18.8487,19.2851-59.7305,19.2851-59.7305s41.0352,81.3926,44.1484,82.5684,46.1348-28.4776,46.1348-28.4776-24.2988-107.7832-37.2939-138.4599c-5.6797-13.4082-52.3516-20.1621-52.3516-20.1621s-19.4883,44.3554-48.5195,46.9121C2774.5186,1119.6787,2778.8633,1072.0869,2778.8633,1072.0869Z"
          transform="translate(-121.31838 -205.66075)" style="fill:#f39892" />
      <path
          d="M2647.8584,1325.459s17.5293,3.9385,49.4551,6.0127l82.8867-235.0362a94.4922,94.4922,0,0,1-1.3369-24.3486s-37.7637,12.3145-63.4922,25.249c-25.7266,12.9356-129.8643,128.1729-129.8643,128.1729s16.6787,29.3975,26.086,29.3975,91.4687-72.6465,91.4687-72.6465,3.3526,33.8418-26.126,90.5195C2659.5273,1306.251,2647.8584,1325.459,2647.8584,1325.459Z"
          transform="translate(-121.31838 -205.66075)" style="fill:#f37168" />
      <path
          d="M2703.3721,1331.832q3.22845.1758,6.6347.3194l77.4893-219.7325a24.04325,24.04325,0,0,1-4.3799-6.7128Z"
          transform="translate(-121.31838 -205.66075)" style="fill:#f37168" />
      <path
          d="M2445.7305,1014.3906H2332.4824c-10.4785,0-16.0293-8.5742-12.334-19.0532l11.1778-31.6948c3.6953-10.479,15.2929-19.0528,25.7715-19.0528h113.248c10.4785,0,16.0283,8.5738,12.334,19.0528l-11.1777,31.6948C2467.8066,1005.8164,2456.209,1014.3906,2445.7305,1014.3906Z"
          transform="translate(-121.31838 -205.66075)" style="fill:#d54a41" />
      <path
          d="M2416.4678,983.9639h-37.0117a2.5,2.5,0,0,1-2.4717-2.875l2.8711-18.9463a2.49994,2.49994,0,1,1,4.9433.75l-2.4355,16.0713h34.1045a2.5,2.5,0,0,1,0,5Z"
          transform="translate(-121.31838 -205.66075)" style="fill:#fff" />
      <path d="M2425.2617,965.0176h-42.9346a2.5,2.5,0,0,1,0-5h42.9346a2.5,2.5,0,0,1,0,5Z"
          transform="translate(-121.31838 -205.66075)" style="fill:#fff" />
      <path d="M2421.0635,974.4072h-38.3574a4,4,0,0,1,0-8h38.3574a4,4,0,0,1,0,8Z"
          transform="translate(-121.31838 -205.66075)" style="fill:#fff" />
      <path
          d="M2409.5381,996.6133h-32.0274a2.5,2.5,0,0,1,0-5h30.6055l23.1553-38.9258a2.49821,2.49821,0,0,1,2.1484-1.2217h14.6475a2.5,2.5,0,0,1,0,5h-13.2256l-23.1553,38.9258A2.49821,2.49821,0,0,1,2409.5381,996.6133Z"
          transform="translate(-121.31838 -205.66075)" style="fill:#fff" />
      <path
          d="M2384.2842,1001.9922a7.78928,7.78928,0,0,1-6.7569,4.9951c-2.7597,0-4.207-2.2363-3.2343-4.9951a7.78827,7.78827,0,0,1,6.7578-4.9961C2383.8096,996.9961,2385.2568,999.2329,2384.2842,1001.9922Z"
          transform="translate(-121.31838 -205.66075)" style="fill:#fff" />
      <path
          d="M2407.1992,1001.9922a7.788,7.788,0,0,1-6.7578,4.9951c-2.7588,0-4.206-2.2363-3.2334-4.9951a7.78833,7.78833,0,0,1,6.7568-4.9961C2406.7246,996.9961,2408.1719,999.2329,2407.1992,1001.9922Z"
          transform="translate(-121.31838 -205.66075)" style="fill:#fff" />
      <path
          d="M2878.2129,1014.3906H2764.9648c-10.4785,0-16.0293-8.5742-12.333-19.0532l11.1768-31.6948c3.6953-10.479,15.293-19.0528,25.7715-19.0528h113.248c10.4785,0,16.0293,8.5738,12.334,19.0528l-11.1777,31.6948C2900.2891,1005.8164,2888.6914,1014.3906,2878.2129,1014.3906Z"
          transform="translate(-121.31838 -205.66075)" style="fill:#d54a41" />
      <path
          d="M2848.9502,983.9639h-37.0107a2.49983,2.49983,0,0,1-2.4717-2.8741l2.8701-18.9462a2.49984,2.49984,0,1,1,4.9434.748l-2.4346,16.0723h34.1035a2.5,2.5,0,0,1,0,5Z"
          transform="translate(-121.31838 -205.66075)" style="fill:#fff" />
      <path d="M2857.7441,965.0176h-42.9345a2.5,2.5,0,0,1,0-5h42.9345a2.5,2.5,0,0,1,0,5Z"
          transform="translate(-121.31838 -205.66075)" style="fill:#fff" />
      <path d="M2853.5469,974.4072h-38.3584a4,4,0,0,1,0-8h38.3584a4,4,0,0,1,0,8Z"
          transform="translate(-121.31838 -205.66075)" style="fill:#fff" />
      <path
          d="M2842.0215,996.6133h-32.0283a2.5,2.5,0,0,1,0-5h30.6064l23.1553-38.9258a2.49821,2.49821,0,0,1,2.1484-1.2217h14.6465a2.5,2.5,0,0,1,0,5h-13.2246l-23.1553,38.9258A2.49821,2.49821,0,0,1,2842.0215,996.6133Z"
          transform="translate(-121.31838 -205.66075)" style="fill:#fff" />
      <path
          d="M2816.7666,1001.9922a7.788,7.788,0,0,1-6.7568,4.9951c-2.7598,0-4.2071-2.2363-3.2344-4.9951a7.78827,7.78827,0,0,1,6.7578-4.9961C2816.292,996.9961,2817.7402,999.2329,2816.7666,1001.9922Z"
          transform="translate(-121.31838 -205.66075)" style="fill:#fff" />
      <path
          d="M2839.6816,1001.9922a7.78786,7.78786,0,0,1-6.7568,4.9951c-2.7588,0-4.207-2.2363-3.2344-4.9951a7.79085,7.79085,0,0,1,6.7578-4.9961C2839.207,996.9961,2840.6553,999.2329,2839.6816,1001.9922Z"
          transform="translate(-121.31838 -205.66075)" style="fill:#fff" />
      <polygon
          points="2854.668 1102.415 2922.771 871.682 2496.337 1224.489 2707.119 1224.489 2854.668 1102.415"
          style="fill:#4d4d4d;mix-blend-mode:screen" />
      <path
          d="M3055.624,887.7681H2838.4473l-674.503,542.3813h336.5703L3078.8115,957.377l9.6367-31.3941A33.20911,33.20911,0,0,0,3055.624,887.7681Z"
          transform="translate(-121.31838 -205.66075)" style="fill:#4d4d4d;mix-blend-mode:screen" />
      <path
          d="M2052.2051,779.583c-1.1719,26.7324,13.3545,49.8921,32.4863,49.9199,31.6904.0469,50.3701.0005,44.5322-48.415-3.2021-26.5654-21.1748-47.5527-40.2881-48.3906C2069.8213,731.8594,2053.377,752.8506,2052.2051,779.583Z"
          transform="translate(-121.31838 -205.66075)" style="fill:#f3b570" />
      <path
          d="M2052.1387,767.0908l-12.2246,78.2197s25.0996,26.2676,35.6074,25.1001c10.5068-1.1674,12.1885-2.3349,11.6738-5.8374-.5146-3.5019,10.5078-72.3823,10.5078-72.3823Z"
          transform="translate(-121.31838 -205.66075)" style="fill:#f3b570" />
      <path
          d="M2066.1816,798.6123s3.8907,12.647,12.6475,20.1572c5.8398,5.0088,18.4619,4.9502,42.1611,4.7071-6.664,5.0898-16.6445,5.9013-29.1015,6.0127-2.0586,13.5703-4.003,26.9409-4.5547,32.5122-4.3262-7.6836-8.8828-16.21-11.2295-21.9449C2070.8516,827.2148,2066.1816,798.6123,2066.1816,798.6123Z"
          transform="translate(-121.31838 -205.66075)" style="fill:#e38540" />
      <path
          d="M2173.835,1536.123c8.9795,13.2266,62.0146,25.3106,58.6572,30.6807-3.3565,5.3701-38.9551,12.084-57.0723,6.042-18.1162-6.042-34.6455-1.0635-43.164-5.3711-8.5186-4.3066,5.5791-37.5937,5.5791-37.5937Z"
          transform="translate(-121.31838 -205.66075)" style="fill:#2e2d3d" />
      <path
          d="M1956.5767,1538.6074c4.6992,11.4131,69.0883,27.5244,24.8095,29.5391-44.2778,2.0137-45.6284-4.9785-62.7436-4.9785-17.1148,0-1.003-32.6162,3.6963-37.9864C1927.0381,1519.8105,1956.5767,1538.6074,1956.5767,1538.6074Z"
          transform="translate(-121.31838 -205.66075)" style="fill:#2e2d3d" />
      <path
          d="M1981.3862,1080.1387c-16.082,179.1972-1.1362,203.0019-20.6928,277.7002-19.5572,74.6992-47.753,170.4287-41.0396,178.2841s32.312,3.795,36.9229,2.4844c4.6108-1.3095,88.1401-124.8662,112.1118-212.1386,30.0156-109.2784,22.8252-225.961,22.8252-225.961Z"
          transform="translate(-121.31838 -205.66075)" style="fill:#3a384d" />
      <path
          d="M2012.4902,1452.3662c-7.9326-40.0771,7.7315-112.3105-38.8506-250.8867.8633-25.3975,2.4146-56.2324,5.5362-95.2871,1.1987-7.3692,2.4072-15.8438,3.5874-25.7988l108.7505,20.1142s7.1904,116.6826-22.8252,225.961C2057.8574,1365.9023,2034.8662,1412.7412,2012.4902,1452.3662Z"
          transform="translate(-121.31838 -205.66075)" style="fill:#2e2d3d" />
      <path
          d="M2132.2559,1100.5078c-13.8887,80.9541.8798,281.0098,18.3339,349.4844,17.4551,68.4756,24.8301,91.3008,24.8301,91.3008s-22.6465,11.8047-43.164-5.17c-20.5176-16.9755-95.4844-145.2734-87.5391-178.2841s-29.7344-75.6787-41.8184-142.8106a1058.29763,1058.29763,0,0,1-14.7695-120.8398Z"
          transform="translate(-121.31838 -205.66075)" style="fill:#3a384d" />
      <path
          d="M2025.6875,845.6904c-45.6143,39.7159-93.2783,154.5127-97.3066,174.6524-4.0279,20.1396,39.5903,48.4424,59.748,57.3154C2008.2871,1086.5313,2025.6875,845.6904,2025.6875,845.6904Z"
          transform="translate(-121.31838 -205.66075)" style="fill:#7dc1d6" />
      <path
          d="M2041,833.2402s-49.981,25.9781-51.2803,113.919c-1.8359,124.2441-13.7168,168.5127-13.7168,168.5127s119.7764,22.7754,152.169,22.9179c21.0761.0928,31.8906-69.9287,31.8906-149.1284,0-79.2002-61.8359-127.5517-73.9199-131.5796C2074.0596,853.8535,2041,833.2402,2041,833.2402Z"
          transform="translate(-121.31838 -205.66075)" style="fill:#9bd6e8" />
      <path
          d="M2092.2686,1034.835c-32.8125-35.8565-45.7334-122.5757-30.294-159.4991l94.6309,82.1455a148.95468,148.95468,0,0,1,3.457,31.98c0,32.563-1.2187,63.2349-4.8984,88.1968C2141.9004,1072.8359,2116.0127,1060.7832,2092.2686,1034.835Z"
          transform="translate(-121.31838 -205.66075)" style="fill:#7dc1d6;opacity:0.5" />
      <path
          d="M2316.6523,964.6406c14.9932-7.1426,32.8379-34.0498,32.5957-25.0913a55.185,55.185,0,0,1-1.8906,14.0689s36.8174-21.0928,42.0078-13.9414c5.1895,7.1513-7.4004,29.5605-17.3964,34.3222-9.9952,4.7617-58.5616,11.8457-58.5616,11.8457Z"
          transform="translate(-121.31838 -205.66075)" style="fill:#f3b570" />
      <path
          d="M2057.2764,872.6509c-19.9502,55.4966,53.1074,140.3071,102.7861,158.4331,49.6777,18.126,169.3193-40.6817,169.3193-40.6817s-4.5273-28.4863-12.583-27.7983c-8.0566.688-124.5859,9.4033-124.5859,9.4033s-57.0625-75.2344-83.916-93.9424C2079.9268,858.2998,2058.7822,868.4609,2057.2764,872.6509Z"
          transform="translate(-121.31838 -205.66075)" style="fill:#9bd6e8" />
      <path
          d="M2130.2871,722.1436c17.7119,35.8896-13.1963,49.6171-19.0332,49.6171-5.8379,0,3.6514,32.44-4.2119,32.3965-7.8623-.0429-3.0313-27.0171-12.1777-24.5293s-11.8174,39.1836-23.169,46.0122c-11.3515,6.8282-24.2842,3.2203-28.0332-4.3154-3.748-7.5356-5.0801-26.5532-11.9209-40.2353-11.6748-23.3492,1.751-71.2041,28.0195-74.7066,26.2676-3.5024,32.1045,5.2539,48.4493,3.5025C2124.5547,708.1343,2127.957,717.4238,2130.2871,722.1436Z"
          transform="translate(-121.31838 -205.66075)" style="fill:#2e2d3d" />
      <path
          d="M2082.4326,790.7051c2.4727,6.8193,8.4082,10.9219,13.2578,9.1631,4.8487-1.7583,6.7754-8.7119,4.3028-15.5308-2.4727-6.8193-8.4082-10.9219-13.2578-9.1636C2081.8867,776.9326,2079.96,783.8862,2082.4326,790.7051Z"
          transform="translate(-121.31838 -205.66075)" style="fill:#f3b570" />
      <path
          d="M3236.9355,1534.7354s-12.0302,16.8974-28.2451,23.6972-45.5049,16.2959-34.5215,20.0987c10.9844,3.8027,40.7178,1.9511,54.6192,0s18.6084,6.8955,25.9316,2.2109c7.3223-4.6856,5.753-35.0225,5.753-35.0225Z"
          transform="translate(-121.31838 -205.66075)" style="fill:#58556e" />
      <path
          d="M3448.6406,1551.708a32.96764,32.96764,0,0,1-8.3681,30.1025c-13.0772,14.1231-34.5225,21.4454-14.6465,24.584,19.876,3.1377,44.4599-7.8457,49.167-14.6455,4.708-6.7998,6.7998-8.1064,10.4619-12.4219,3.6611-4.3164,0-35.1767,0-35.1767Z"
          transform="translate(-121.31838 -205.66075)" style="fill:#58556e" />
      <path
          d="M3302.9121,755.2837c-33.5322,21.001-35.5908,74.1006-12.2344,93.2041,23.3575,19.1035,82.9932,23.9604,110.9004,14.1226,28.2305-9.9522,54.9541-17.5528,70.0772-4.5801,22.4121,19.2256,37.1367,26.6269,55.4443,22.3637,32.6309-7.5991,40.7979-2.0922,46.5508,17.2613,5.7539,19.3525,15.1689,2.9355,30.8613,18.4673,15.6914,15.5307,2.0918,33.2006-3.1387,37.1806s33.9981,17.0562,35.045-28.4492c1.0459-45.5059-41.8448-17.7842-46.5528-30.3374-4.707-12.5532,6.7998-47.5977-12.5527-48.644-19.3535-1.0459-35.0449,5.8012-37.6602-10.9605-2.6152-16.7612-36.1035-25.6533-51.2597-14.6689-15.1563,10.9839-25.0899-10.2373-31.5391-23.0147-7.3906-14.6455-28.0889-7.8457-44.8262-14.1225-16.7382-6.2764-8.6972-31.2701-46.748-43.9585C3346.457,732.8706,3323.6309,742.3076,3302.9121,755.2837Z"
          transform="translate(-121.31838 -205.66075)" style="fill:#58556e" />
      <path
          d="M3353.7432,803.0122s17.1338,46.5049,44.0576,62.8223,54.6631,16.1469,51.3994,41.1162-3.2061,162.1714-3.2061,162.1714-56.7753,28.5732-71.4609,28.1152S3295,974.0771,3299.8955,953.8535c4.8955-20.2241,49.2344-76.5967,46.6455-90.4668-2.5879-13.8696-18.9062-37.269-18.9062-37.269Z"
          transform="translate(-121.31838 -205.66075)" style="fill:#f09959" />
      <path
          d="M3346.4346,866.812a9.78516,9.78516,0,0,0,.1064-3.4253c-2.5879-13.8696-18.9062-37.269-18.9062-37.269l26.1084-23.1055a197.85784,197.85784,0,0,0,11.5361,24.5786A176.378,176.378,0,0,1,3346.4346,866.812Z"
          transform="translate(-121.31838 -205.66075)" style="fill:#e38540" />
      <path
          d="M3289.2188,821.0244c3.8701,20.7134,13.9433,39.8652,31.1425,36.6514,17.2012-3.2139,35.0147-27.5767,31.1446-48.2901-3.8711-20.7133-20.9512-34.8999-38.1524-31.686C3296.1543,780.9136,3285.3477,800.3105,3289.2188,821.0244Z"
          transform="translate(-121.31838 -205.66075)" style="fill:#f09959" />
      <path
          d="M3376.6816,1066.041s-7.1748,138.292-77.0488,330.7754c-29.1728,80.3633-70.8564,147.334-70.8564,147.334s35.8427,32.3086,39.5146,24.9658c3.6709-7.3428,143.3789-151.5478,183.9238-330.2617,24.3809-107.4688-40.1748-196.3203-40.1748-196.3203Z"
          transform="translate(-121.31838 -205.66075)" style="fill:#f37168" />
      <path
          d="M3376.4678,1066.5635s-1.5596,29.9863-10.2725,81.4482c38.1524,99.7881,8.5117,233.2871-22.3389,324.1875,41.0479-59.6074,87.4776-141.7236,108.1456-232.8222,24.3808-107.4688-40.1758-196.3204-40.1758-196.3204Z"
          transform="translate(-121.31838 -205.66075)" style="fill:#d54a41;opacity:0.5" />
      <path
          d="M3436.8809,1053.3945s89.333-.7724,90.5576,94.3819c1.2236,95.1533-11.0147,241.0781-24.4756,325.5166s-13.7852,95.8232-13.7852,95.8232-35.1455-1.2236-44.0566-4.8955c0-24.5137-4.3467-136.0322-14.8594-207.1836-10.5137-71.1523-37.4355-274.7246-37.4355-274.7246Z"
          transform="translate(-121.31838 -205.66075)" style="fill:#f37168" />
      <path
          d="M3337.8105,885.7769c-84.9052,17.2495-132.5722,39.976-144.8691,50.5297-17.4668,14.9913-9.1338,50.7422-2.8555,52.0879,26.5909,5.7002,150.8799-10.08,150.8799-10.08Z"
          transform="translate(-121.31838 -205.66075)" style="fill:#dbb64c" />
      <path
          d="M3397.8008,865.8345c21.9922,10.6933,50.584,15.3174,56.2949,25.1997,5.7109,9.8828-13.0547,133.0791,0,148.581a82.98564,82.98564,0,0,0,29.8106,22.0284s-26.9102,63.6377-76.0889,69.3496c-49.1787,5.7109-50.9932-13.1143-50.9932-13.1143s-61.0078-118.9258-56.9287-164.0254c1.6836-18.6118,38.3281-68.0766,38.3281-68.0766s-5.5791,19.6367,8.2334,23.0996C3360.2705,912.3389,3397.8008,865.8345,3397.8008,865.8345Z"
          transform="translate(-121.31838 -205.66075)" style="fill:#f5ce5c" />
      <path
          d="M3454.9502,910.7612c-1.7148,37.9204-11.1182,116.6665-.8545,128.854a82.98564,82.98564,0,0,0,29.8106,22.0284,160.6798,160.6798,0,0,1-15.0977,26.4101c-4.8037-1.6797-11.9375-2.1269-19.3457-6.7627-32.7002-20.4629-46.3633-47.7236-57.6602-75.1269-11.2959-27.4029,11.709-63.6377,38.459-118.2847Z"
          transform="translate(-121.31838 -205.66075)" style="fill:#dbb64c" />
      <path
          d="M3327.6348,870.8335s22.0293,18.5278,53.9775,13.3794c15.5967-2.5137,17.0039,0,17.0039,0s35.6074,74.3105,50.8467,117.7119,20.9502,40.1377,15.2392,43.4014c-5.7119,3.2636-54.2822,19.6338-54.2822,19.6338l-25.6543-111.6568s-15.2588,8.6807-15.2656,55.3091c-.0059,39.2315,57.042,99.4893,70.7725,103.8438,5.1357,1.6289,11.1582,23.3632-56.8389,42.1933-60.2393,16.6817-130.8584-16.6631-130.8584-16.6631s31.8193-167.311,41.6094-186.6884c9.79-19.378-44.0576,96.6298-44.0576,96.6298s-26.753,2.0411-3.2627-48.9746c23.4902-51.0161,38.792-96.8115,46.7158-111.0737C3303.3916,870.2207,3298.9629,862.1816,3327.6348,870.8335Z"
          transform="translate(-121.31838 -205.66075)" style="fill:#3e6bab" />
      <path
          d="M3440.7256,883.0059c-22.3838,9.7524-12.7666,70.8476-12.7666,70.8476s106.2373,66.6113,105.4209,75.1074c-.8154,8.4952-27.2598,48.3672-70.4424,70.5938-2.9795-6.7715-27.7227-4.0283-43.0947-2.3125l4.1543,4.499c2.6425.9072,12.3857,4.8096,12.3857,4.8096s-23.2363,1.1582-28.5654,5.1904c-11.7178,8.8652,33.501,17.8018,59.0566,4.2022,19.083-10.1553,64.0606-21.4463,98.3252-73.4092C3604.5527,982.8516,3440.7256,883.0059,3440.7256,883.0059Z"
          transform="translate(-121.31838 -205.66075)" style="fill:#f09959" />
      <path
          d="M3424.8301,876.2607c54.5576,12.418,131.5595,90.7862,142.9297,118.5992,8.0293,19.6401,3.0058,29.1186-18.2071,41.8325-21.2129,12.7129-33.4511,5.8418-33.4511,5.8418s-22.9346-36.7295-49.043-54.5679c-26.1074-17.8384-42.334-21.4487-42.334-21.4487s-10.6064-28.646-7.3437-55.2822C3420.6445,884.5996,3424.8301,876.2607,3424.8301,876.2607Z"
          transform="translate(-121.31838 -205.66075)" style="fill:#f5ce5c" />
      <path
          d="M3406.5039,977.627c-4.8828-6.6954-5.2148-14.1109-4.7939-25.5694.5898-16.0644,1.2588-25.4658,7.8076-44.5805,11.3691,24.6357,28.9033,63.7407,38.9492,91.6518A65.02274,65.02274,0,0,1,3406.5039,977.627Z"
          transform="translate(-121.31838 -205.66075)" style="fill:#3e6bab" />
      <path
          d="M3182.5859,967.0039c4.1075,24.6787,7.3965,26.6567,19.6094,27.9424,19.377,2.0395,45.8926-22.4365,53.8477-36.7144,7.9541-14.2778,6.9101-20.5258,6.9101-20.5258Z"
          transform="translate(-121.31838 -205.66075)" style="fill:#f5ce5c" />
      <path
          d="M3266.2129,930.2881c-14.4541,39.1621-62.5742,55.9888-72.3809,51.3999-9.8056-4.5884-13.2607-23.7793-12.0371-24.5557C3183.0195,956.3564,3266.2129,930.2881,3266.2129,930.2881Z"
          transform="translate(-121.31838 -205.66075)" style="fill:#e38540" />
      <path d="M3256.2461,911.9312c-7.5469-3.6714-12.5147-.4566-12.5147-.4566l-27.5419,10.5982Z"
          transform="translate(-121.31838 -205.66075)" style="fill:#f5ce5c" />
      <path
          d="M3193.832,932.4668c-19.2334,14.7373-14.6884,40.0474,0,39.8389,14.6895-.2085,108.5118-51.1817,116.67-60.7823,8.1582-9.601,54.664-5.7871,58.7421-14.1963,4.0801-8.4091-40.7412-15.4897-49.3593-11.5502-8.6192,3.9389-20.1846,14.3095-20.1846,14.3095S3212.5977,918.0884,3193.832,932.4668Z"
          transform="translate(-121.31838 -205.66075)" style="fill:#f09959" />
      <path
          d="M3285.4473,792.8667c9.416,33.4751,64.3808,14.6753,64.3808,14.6753a80.59585,80.59585,0,0,0,24.7198,35.0146c18.6494,15.1685,27.0302-8.3686,27.0302-8.3686l-51.7949-61.1978s-43.9365,1.5694-46.5518,2.6153C3300.6162,776.6519,3285.4473,792.8667,3285.4473,792.8667Z"
          transform="translate(-121.31838 -205.66075)" style="fill:#58556e" />
      <path
          d="M3347.1963,811.457c-2.3838,7.729-.2891,15.2373,4.6797,16.7701,4.9697,1.5327,10.9297-3.4908,13.3135-11.2203,2.3847-7.729.289-15.2373-4.6797-16.7695C3355.541,798.7046,3349.5801,803.728,3347.1963,811.457Z"
          transform="translate(-121.31838 -205.66075)" style="fill:#f09959" />
      <path
          d="M722.47509,770.4526c10.627,54.9048-12.78609,76.1744-55.9849,84.0889-43.1987,7.9141-70.4038-36.6035-110.4697-23.248-40.0659,13.3549,95.9761-76.1748,95.9761-76.1748Z"
          transform="translate(-121.31838 -205.66075)" style="fill:#303c60" />
      <path
          d="M796.416,1509.4463c25.72119,18.3017,45.50689,25.7207,59.35688,27.6992s2.4732,11.377-23.248,14.3447-24.2373-4.9463-39.5713-4.4511c-15.334.4941-26.1899,5.0761-23.7427-10.3877a196.09192,196.09192,0,0,0,2.4732-27.2051Z"
          transform="translate(-121.31838 -205.66075)" style="fill:#d54a41" />
      <path
          d="M444.2319,1500.0557c-6.9253,16.3232-.9892,36.1084,10.88189,41.5498,11.8716,5.4414,1.9785,9.8925-22.25879,8.4091-24.2373-1.4843-28.1944-13.8505-27.2051-28.6894s-8.9038-12.3662-7.9145-21.2695,31.165-23.7422,31.164-23.7422Z"
          transform="translate(-121.31838 -205.66075)" style="fill:#d54a41" />
      <path
          d="M666.49019,856.6851c71.2286,27.6997,195.82619,18.747,195.82619,18.747l-58.42579,41.9287s-36.1728,20.105-83.6723,14.4927C672.71879,926.2417,666.49019,856.6851,666.49019,856.6851Z"
          transform="translate(-121.31838 -205.66075)" style="fill:#d54a41" />
      <path
          d="M655.875,1054.4502s111.96479,201.4014,119.38429,236.8926c7.4189,35.4922,31.61371,222.5244,31.61371,222.5244s-27.77,9.7998-38.15721,6.832c-10.3867-2.9678-64.6816-173.0908-66.1655-201.2842-1.4834-28.1923-79.32029-97.9287-120.8677-145.0927-41.5478-47.1631,0-144.4659,0-144.4659Z"
          transform="translate(-121.31838 -205.66075)" style="fill:#3e6bab" />
      <path
          d="M687.79979,1114.0713c-13.3306-25.1524-24.1543-45.249-29.0679-54.3428l-79.4736-23.6904c-8.248,22.1211-32.8389,98.2558,2.4243,138.2842,23.1997,26.3359,59.7007,59.0146,88.1846,93.7529C666.08979,1229.1279,670.84079,1184.7354,687.79979,1114.0713Z"
          transform="translate(-121.31838 -205.66075)" style="fill:#2e5b9a" />
      <path
          d="M662.10059,1080.5518c-34.1289,143.8632-84.1909,223.7216-113.8682,274.4365-29.6767,50.7148-98.06539,142.8847-102.51659,145.5537-4.4516,2.6689-30.6679-8.4092-29.1841-21.7637s41.88089-151.3457,68.59039-172.9599c26.709-21.6133,29.7334-45.6221,42.373-118.8184,12.6397-73.1953,46.7681-144.4199,60.1226-144.4199S662.10059,1080.5518,662.10059,1080.5518Z"
          transform="translate(-121.31838 -205.66075)" style="fill:#3e6bab" />
      <path
          d="M651.99659,801.1201s-17.586,47.6568-26.4893,51.3135c-8.9028,3.6567-42.8301,19.9868-48.7656,94.0151-5.9351,74.0279-5.6592,116.1841-5.6592,116.1841s70.2442,35.3399,91.0181,17.919,64.5098-114.5738,60.0586-140.7432c-4.4517-26.169-36.1646-75.7554-46.9429-84.4326-10.77829-8.6768,6.8789-50.7822,6.8789-50.7822L652.418,778.3291Z"
          transform="translate(-121.31838 -205.66075)" style="fill:#f09959" />
      <path
          d="M625.50729,852.4336c24.4951,25.356,52.9121,41.4907,56.5879,28.3237,3.6753-13.167-13.0088-31.8686-6.8789-25.3813a74.96372,74.96372,0,0,1,5.2456,5.4223c12.336,14.7134,40.0474,51.1324,46.7046,74.4043,7.9141,27.6651-33.6357,107.3775-45.0713,127.4302-7.749,13.5879,8.1084,55.9785,8.1084,55.9785s-31.2978,10.6104-64.6963-8.3408c-27.7929-15.7705-38.5981-14.6572-54.4267-14.6572h-22.9742s13.60061-39.8994,19.45561-65.7569c7.86429-34.729,6.59519-126.3457,19.541-148.2265C602.123,856.2432,625.50729,852.4336,625.50729,852.4336Z"
          transform="translate(-121.31838 -205.66075)" style="fill:#f37168" />
      <path
          d="M680.46189,860.7983a42.19536,42.19536,0,0,0-5.2456-5.4223c-10.77829-8.6768,6.8789-50.7822,6.8789-50.7822L652.418,778.3291l-9.25391,21.8013s-1.1758,6.5322-3.1026,14.9868C652.61039,859.0415,667.95749,865.6758,680.46189,860.7983Z"
          transform="translate(-121.31838 -205.66075)" style="fill:#e38540" />
      <path
          d="M724.72169,965.3018c-24.7905,17.1386-51.7183,4.0542-77.9439-26.6714-27.4433-32.1519-43.7465-57.4912-57.5932-38.5889-13.8467,18.9028-15.7744,89.4634,11.145,135.9966,20.5205,35.4717,57.3603,69.374,79.7187,84.7344a60.9158,60.9158,0,0,0,10.1558-2.1612s-15.8574-42.3906-8.1089-55.9785C690.56349,1047.7832,715.54149,1000.2207,724.72169,965.3018Z"
          transform="translate(-121.31838 -205.66075)" style="fill:#d54a41;opacity:0.5" />
      <path
          d="M1028.86958,875.6592,842.86379,1140.7334a10.55237,10.55237,0,0,1-14.6992,2.5762l-146.8433-103.042a10.55125,10.55125,0,0,1-2.5767-14.6983L864.75048,760.4946a10.55279,10.55279,0,0,1,14.6992-2.5766L1026.293,860.96A10.55236,10.55236,0,0,1,1028.86958,875.6592Z"
          transform="translate(-121.31838 -205.66075)" style="fill:#9bd6e8" />
      <path
          d="M788.87449,1019.9004l-29.8779,41.7607a8.66875,8.66875,0,0,1-12.0591,2l-12.7598-9.1289a8.6691,8.6691,0,0,1-2-12.0595l29.878-41.7603a8.66911,8.66911,0,0,1,12.059-2.0005l12.75931,9.1289A8.66946,8.66946,0,0,1,788.87449,1019.9004Z"
          transform="translate(-121.31838 -205.66075)" style="fill:#63acc2" />
      <path
          d="M866.99318,1024.3037l-58.44239,78.5029a6.78471,6.78471,0,0,1-10.88479-8.1025l58.44238-78.5039a6.785,6.785,0,0,1,10.8848,8.1035Z"
          transform="translate(-121.31838 -205.66075)" style="fill:#3e6bab;opacity:0.5" />
      <path
          d="M900.91648,1012.498l-76.19379,102.3487a6.785,6.785,0,0,1-10.8848-8.1035l76.19429-102.3487a6.78481,6.78481,0,1,1,10.8843,8.1035Z"
          transform="translate(-121.31838 -205.66075)" style="fill:#3e6bab;opacity:0.5" />
      <path
          d="M832.23929,959.2896l-29.8785,41.7602a8.66966,8.66966,0,0,1-12.059,2.001L777.542,993.9214a8.66911,8.66911,0,0,1-2-12.0591l29.87789-41.7607a8.66928,8.66928,0,0,1,12.0596-2l12.7593,9.1289A8.66915,8.66915,0,0,1,832.23929,959.2896Z"
          transform="translate(-121.31838 -205.66075)" style="fill:#63acc2" />
      <path
          d="M823.0536,891.41871h51.348a8.64393,8.64393,0,0,1,8.64393,8.64393V915.751a8.6438,8.6438,0,0,1-8.6438,8.6438H823.05309a8.64335,8.64335,0,0,1-8.64335-8.64335v-15.6889A8.64386,8.64386,0,0,1,823.0536,891.41871Z"
          transform="matrix(0.58187, -0.81328, 0.81328, 0.58187, -504.82356, 864.22001)"
          style="fill:#63acc2" />
      <path
          d="M920.44038,836.0098l-29.8779,41.7607a8.66868,8.66868,0,0,1-12.0591,2l-12.7597-9.1289a8.66888,8.66888,0,0,1-2-12.0591l29.8779-41.7607a8.66868,8.66868,0,0,1,12.0591-2l12.7597,9.1289A8.66913,8.66913,0,0,1,920.44038,836.0098Z"
          transform="translate(-121.31838 -205.66075)" style="fill:#63acc2" />
      <path
          d="M949.69238,907.6997a26.4406,26.4406,0,1,1-36.9976,5.4199A26.44109,26.44109,0,0,1,949.69238,907.6997Z"
          transform="translate(-121.31838 -205.66075)" style="fill:#63acc2;opacity:0.5" />
      <path
          d="M974.74168,874.0522a26.4404,26.4404,0,1,1-36.9976,5.4195A26.44045,26.44045,0,0,1,974.74168,874.0522Z"
          transform="translate(-121.31838 -205.66075)" style="fill:#3e6bab;opacity:0.5" />
      <path
          d="M803.79,1134.832s48.61088-3.957,49.917,2.6387c1.30618,6.5947-10.33251,33.6357-24.95851,32.9756-14.62549-.6592-33.0922-13.9434-33.0922-13.9434Z"
          transform="translate(-121.31838 -205.66075)" style="fill:#f09959" />
      <path
          d="M612.40969,867.8833c-27.9361,6.9976-30.668,52.4453-14.8394,114.77,15.8286,62.3252,101.896,128.6065,148.7222,151.002,22.4619,10.7422,58.0376,28.0576,58.0376,28.0576l12.8608-28.0576s-106.4331-73.1797-129.3911-114.0694S640.10939,860.9448,612.40969,867.8833Z"
          transform="translate(-121.31838 -205.66075)" style="fill:#f37168" />
      <path
          d="M1016.30958,893.5586c-18.76658-.7617-28.89258,30.4097-24.8057,35.3501,4.0874,4.9399,26.978-14.5825,30.4683-21.002C1025.438,901.5322,1031.09178,894.1587,1016.30958,893.5586Z"
          transform="translate(-121.31838 -205.66075)" style="fill:#f09959" />
      <path
          d="M716.70609,784.917c7.5566,24.6479-2.89509,50.3613-16.8189,53.9805-17.0527,4.4326-36.6274-10.6294-44.1841-35.2774s-.0268-48.8159,16.8184-53.9809C689.36719,744.4746,709.14889,760.269,716.70609,784.917Z"
          transform="translate(-121.31838 -205.66075)" style="fill:#f09959" />
      <path
          d="M684.627,730.7979s-15.82821-23.1646-53.91561-14.2613c-38.08739,8.9038-45.5068,37.0982-67.271,34.1304-21.7646-2.9678-56.3891,2.9678-71.2285,49.0942-14.8393,46.126,31.1626,68.9629,31.1626,68.9629s-5.936-6.7632,3.4624-21.4277c9.398-14.6651,46.9907-16.4976,65.78711-12.0181,18.79639,4.48,23.24809,6.4024,47.43749,0,24.19-6.4018,34.6729-41.0097,34.6729-41.0097s8.7573-1.17,16.85061-2.3379c-.31841-5.5264,1.94579-13.6016,1.94579-13.6016l5.1391,12.5454c1.5044-.2344,2.8364-.4512,3.8809-.6362a36.61078,36.61078,0,0,0,5.893-1.5811l-9.4721-30.5708s9.3965,13.8931,13.3374,28.9688a54.03449,54.03449,0,0,0,15.852-11.6563S718.26269,721.9775,684.627,730.7979Z"
          transform="translate(-121.31838 -205.66075)" style="fill:#303c60" />
    </g>
  </g>
</svg>