<svg id="Layer_1" data-name="Layer 1" xmlns="http://www.w3.org/2000/svg"
    viewBox="0 0 962.53492 1683.39112">
  <title>splash_screen_background</title>
  <text transform="translate(466.44831 637.99812)"
      style="font-size:12.484258651733398px;fill:aqua;font-family:MyriadPro-Regular, Myriad Pro">e
    <tspan x="6.25439" y="0" style="letter-spacing:-0.00598409832205993em">c</tspan>
    <tspan x="11.77246" y="0">omme</tspan>
    <tspan x="45.70459" y="0" style="letter-spacing:-0.01001260895717217em">r</tspan>
    <tspan x="49.66211" y="0" style="letter-spacing:-0.00598409832205993em">c</tspan>
    <tspan x="55.18018" y="0">e</tspan>
  </text>
  <path
      d="M369.85372,833.91272H340.56061v19.83413h34.37867v12.25624H325.30365V791.95644h49.53389v12.358H340.56061v17.64728h29.29311Z"
      transform="translate(-258.72906 -790.93938)" style="fill:#007acc" />
  <path
      d="M447.2267,841.33787q-.86544,11.95133-8.82364,18.8168-7.9599,6.86533-20.97814,6.86547-14.24034,0-22.40242-9.58622-8.16222-9.58578-8.16223-26.31817v-4.52617a44.38027,44.38027,0,0,1,3.76331-18.81679,28.20274,28.20274,0,0,1,10.756-12.48521,30.12684,30.12684,0,0,1,16.24851-4.3482q12.81591,0,20.64772,6.86548,7.8311,6.86576,9.05233,19.27445H432.07147q-.56024-7.17054-3.99227-10.40009-3.43288-3.22884-10.4511-3.22941-7.62834,0-11.41714,5.46727-3.78909,5.46727-3.89054,16.96037v5.59422q0,12.00276,3.63634,17.54555,3.63522,5.54336,11.46816,5.54322,7.06809,0,10.55255-3.22941,3.483-3.22886,3.99227-9.99316Z"
      transform="translate(-258.72906 -790.93938)" style="fill:#007acc" />
  <path
      d="M523.27714,830.65809a44.70621,44.70621,0,0,1-3.865,19.17272A29.11042,29.11042,0,0,1,508.35089,862.545a32.68587,32.68587,0,0,1-32.92946.05072A29.39046,29.39046,0,0,1,464.233,849.95805a43.4143,43.4143,0,0,1-4.01749-18.89331v-3.66157a44.46186,44.46186,0,0,1,3.94126-19.249,29.33951,29.33951,0,0,1,11.13745-12.7649,32.63746,32.63746,0,0,1,32.904,0,29.34906,29.34906,0,0,1,11.13773,12.7649,44.34887,44.34887,0,0,1,3.94127,19.19823ZM507.817,827.30144q0-11.64526-4.17024-17.698a14.73135,14.73135,0,0,0-23.74989-.07623q-4.17081,5.97651-4.22125,17.52v3.61085q0,11.34133,4.17024,17.59627a14.60283,14.60283,0,0,0,23.8009.22869q4.11938-6.02625,4.17024-17.57077Z"
      transform="translate(-258.72906 -790.93938)" style="fill:#007acc" />
  <path
      d="M559.50714,791.95644l19.02026,53.70413,18.91853-53.70413h20.03731v74.04665H602.17556V845.7623l1.52572-34.93835-19.98659,55.17914H573.23837L553.30279,810.875l1.52573,34.88734v20.24079h-15.257V791.95644Z"
      transform="translate(-258.72906 -790.93938)" style="fill:#007acc" />
  <path
      d="M655.95082,791.95644l19.02026,53.70413,18.91853-53.70413h20.03732v74.04665H698.61924V845.7623L700.145,810.824l-19.98659,55.17914H669.68206L649.74648,810.875l1.52572,34.88734v20.24079h-15.257V791.95644Z"
      transform="translate(-258.72906 -790.93938)" style="fill:#007acc" />
  <path
      d="M777.00928,833.91272H747.71617v19.83413h34.37867v12.25624H732.45892V791.95644h49.5339v12.358H747.71617v17.64728h29.29311Z"
      transform="translate(-258.72906 -790.93938)" style="fill:#007acc" />
  <path
      d="M823.66459,838.89683H811.51037v27.10626H796.25313V791.95644h27.51348q13.12111,0,20.24078,5.84842,7.1191,5.849,7.11967,16.5282A22.78161,22.78161,0,0,1,847.8472,826.971a22.36876,22.36876,0,0,1-9.94271,8.0605L853.924,865.29123v.71186H837.54857Zm-12.15422-12.35826h12.30724q5.74613,0,8.89987-2.92421a10.45222,10.45222,0,0,0,3.1529-8.06077q0-5.23731-2.97493-8.23874-2.9755-2.99974-9.12884-3.00044H811.51037Z"
      transform="translate(-258.72906 -790.93938)" style="fill:#007acc" />
  <path
      d="M926.05928,841.33787q-.86545,11.95133-8.82449,18.8168t-20.97758,6.86547q-14.24075,0-22.40241-9.58622-8.16223-9.58578-8.16252-26.31817v-4.52617a44.38452,44.38452,0,0,1,3.76331-18.81679,28.20621,28.20621,0,0,1,10.756-12.48521,30.12752,30.12752,0,0,1,16.24851-4.3482q12.81591,0,20.64772,6.86548,7.83153,6.86576,9.05233,19.27445H910.90405q-.56109-7.17054-3.99227-10.40009-3.43289-3.22884-10.45167-3.22941-7.62834,0-11.41686,5.46727-3.78909,5.46727-3.89082,16.96037v5.59422q0,12.00276,3.63635,17.54555,3.63521,5.54336,11.46843,5.54322,7.06809,0,10.55255-3.22941,3.48219-3.22886,3.99227-9.99316Z"
      transform="translate(-258.72906 -790.93938)" style="fill:#007acc" />
  <path
      d="M985.8357,833.91272H956.542v19.83413h34.37924v12.25624H941.28535V791.95644h49.53389v12.358H956.542v17.64728H985.8357Z"
      transform="translate(-258.72906 -790.93938)" style="fill:#007acc" />
  <path
      d="M1047.79813,845.20291h-33.61581l-7.62862,20.80018h-6.56027l28.02186-74.04665h5.94987l28.02187,74.04665h-6.50927Zm-31.68315-5.289H1045.815l-14.85031-40.32911Z"
      transform="translate(-258.72906 -790.93938)" style="fill:#007acc" />
  <path
      d="M1084.33277,835.84538v30.15771H1078.078V791.95644h25.22432q11.5441,0,18.23218,5.89914,6.68638,5.90043,6.68723,16.22329,0,10.42573-6.43332,16.096-6.43389,5.6713-18.63855,5.67046Zm0-5.289h18.96953q9.10334,0,13.884-4.32921,4.77951-4.32894,4.78064-12.072,0-7.69039-4.75514-12.24915-4.75655-4.558-13.50254-4.66049h-19.37647Z"
      transform="translate(-258.72906 -790.93938)" style="fill:#007acc" />
  <path
      d="M1153.67047,835.84538v30.15771h-6.25479V791.95644H1172.64q11.54409,0,18.23218,5.89914,6.68637,5.90043,6.68723,16.22329,0,10.42573-6.43332,16.096-6.43389,5.6713-18.63855,5.67046Zm0-5.289H1172.64q9.10334,0,13.884-4.32921,4.77949-4.32894,4.78064-12.072,0-7.69039-4.75514-12.24915-4.75656-4.558-13.50255-4.66049h-19.37647Z"
      transform="translate(-258.72906 -790.93938)" style="fill:#007acc" />
  <path
      d="M1117.30045,1889.90326A479.11946,479.11946,0,0,0,1221.264,1591.17121c0-265.77027-215.47077-481.21939-481.26746-481.21939s-481.26746,215.44912-481.26746,481.21939a479.11951,479.11951,0,0,0,103.96352,298.73205Z"
      transform="translate(-258.72906 -790.93938)" style="fill:#d9ffff" />
  <rect x="759.73818" y="989.81845" width="85.20373" height="109.39813" style="fill:#ffa305" />
  <polygon
      points="844.942 1099.217 844.942 989.818 894.971 989.818 894.191 1099.217 844.942 1099.217"
      style="fill:#de7f04" />
  <rect x="791.56368" y="989.81845" width="12.73291" height="24.89747" style="fill:#ffc766" />
  <polygon
      points="720.412 1099.216 720.412 989.818 759.738 989.818 759.125 1099.216 720.412 1099.216"
      style="fill:#de7f04" />
  <rect x="701.28312" y="904.48082" width="63.1248" height="85.33763" style="fill:#de7f04" />
  <polygon points="708.654 989.818 708.654 904.481 658.917 904.481 659.578 989.818 708.654 989.818"
      style="fill:#ffa305" />
  <rect x="729.64954" y="904.48082" width="9.93248" height="19.42166" style="fill:#ffc766" />
  <rect x="806.3723" y="904.48082" width="63.1248" height="85.33763" style="fill:#ffa305" />
  <polygon points="806.372 989.818 806.372 904.481 764.007 904.481 764.667 989.818 806.372 989.818"
      style="fill:#ffa305" />
  <rect x="831.63005" y="904.48082" width="37.86705" height="85.33763" style="fill:#de7f04" />
  <rect x="634.22328" y="989.81845" width="88.26123" height="109.39813" style="fill:#ffa305" />
  <rect x="671.98744" y="989.81845" width="12.73291" height="24.89747" style="fill:#ffc766" />
  <rect x="792.40751" y="904.48082" width="9.93258" height="19.42166" style="fill:#ffc766" />
  <rect x="748.17338" y="820.5638" width="63.1248" height="85.33752" style="fill:#de7f04" />
  <polygon points="755.545 905.901 755.545 820.564 705.808 820.564 706.468 905.901 755.545 905.901"
      style="fill:#ffa305" />
  <rect x="776.5397" y="820.5638" width="9.93258" height="19.42166" style="fill:#ffc766" />
  <ellipse cx="1087.0173" cy="1109.95179" rx="41.58302" ry="41.58718"
      transform="translate(-285.05517 1402.55569) rotate(-89.82094)" style="fill:#d9ffff" />
  <path
      d="M925.512,1085.83971c-6.36957-37.72858-64.47611-54.76117-63.33786-30.13648l-266.37076,1.5599c-18.44945.1081-33.40934,16.70415-33.42536,37.0869l-.55264,700.4861c-.01654,21.11609,15.20344,38.38067,34.00692,38.542l271.9221,2.33269c1.68714,3.54345,4.8467,6.76813,9.82355,9.46026,31.18434.66437,46.14152-14.73465,51.60557-32.14323a41.91819,41.91819,0,0,0,2.70316-15.28053C930.79828,1788.62812,927.48308,1094.68648,925.512,1085.83971Z"
      transform="translate(-258.72906 -790.93938)" style="fill:#4d4d4d" />
  <path
      d="M874.67122,1845.282l-312.12746-2.01163c-19.47763-.12557-35.23193-17.85728-35.19656-39.58426l1.17133-720.38643c.03413-20.9514,15.53937-37.97016,34.64008-38.03216l306.06354-.99427c19.25188-.06253,34.99588,16.9322,35.15724,37.97868l5.5477,723.717C910.09438,1827.79812,894.30605,1845.40852,874.67122,1845.282Z"
      transform="translate(-258.72906 -790.93938)" style="fill:#4d4d4d" />
  <path
      d="M878.98006,1840.04205a28.18885,28.18885,0,0,1-3.94378.24667l-312.03164-2.36035c-16.73671-.12672-30.41655-15.67181-30.38815-34.63624l1.07812-719.596c.02747-18.29059,13.49112-33.2174,29.90761-33.28846l306.04336-1.33124c.47846-.00187.96222.00812,1.43808.03018a28.9608,28.9608,0,0,1,20.27787,9.86849,34.58586,34.58586,0,0,1,8.62215,22.91018l5.47415,724.45016C905.58787,1823.50561,894.24477,1837.99651,878.98006,1840.04205Z"
      transform="translate(-258.72906 -790.93938)" style="fill:#0d0d0d" />
  <polygon
      points="630.523 294.588 634.911 1016.516 284.269 1014.411 285.166 294.588 630.523 294.588"
      style="fill:#fff" />
  <polygon points="391.154 445.647 429.894 445.33 554.401 292.033 515.488 292.352 391.154 445.647"
      style="fill:#f13005" />
  <polygon points="429.894 445.33 468.607 445.014 593.315 291.714 554.401 292.033 429.894 445.33"
      style="fill:#f1e3e0" />
  <polygon points="468.607 445.014 507.349 444.698 632.202 291.394 593.315 291.714 468.607 445.014"
      style="fill:#f13005" />
  <polygon points="352.442 445.963 391.154 445.647 515.488 292.352 476.603 292.671 352.442 445.963"
      style="fill:#f1e3e0" />
  <polygon points="274.993 446.596 313.704 446.28 437.691 292.99 398.808 293.309 274.993 446.596"
      style="fill:#f1e3e0" />
  <polygon points="162.621 447.514 197.547 447.228 321.015 293.947 285.961 294.235 162.621 447.514"
      style="fill:#f13005" />
  <polygon points="197.547 447.228 236.256 446.912 359.897 293.628 321.015 293.947 197.547 447.228"
      style="fill:#f1e3e0" />
  <polygon points="313.704 446.28 352.442 445.963 476.603 292.671 437.691 292.99 313.704 446.28"
      style="fill:#f13005" />
  <polygon points="236.256 446.912 274.993 446.596 398.808 293.309 359.897 293.628 236.256 446.912"
      style="fill:#f13005" />
  <path
      d="M727.33633,1235.9537l-.014,23.3361c-.01478,24.72768,38.67291,24.41215,38.71546-.31595l.04016-23.33662Z"
      transform="translate(-258.72906 -790.93938)" style="fill:#d62b04" />
  <path
      d="M688.62305,1236.26987l.01217,23.33579c.013,24.72716,38.67229,24.41182,38.68707-.31586l.014-23.3361Z"
      transform="translate(-258.72906 -790.93938)" style="fill:#f1c5bc" />
  <path
      d="M649.88283,1236.58634l.03839,23.33527c.04078,24.72675,38.727,24.41121,38.714-.316l-.01217-23.33579Z"
      transform="translate(-258.72906 -790.93938)" style="fill:#d62b04" />
  <path
      d="M611.171,1236.90251l.06461,23.33485c.06846,24.72633,38.72639,24.411,38.68561-.31575l-.03839-23.33527Z"
      transform="translate(-258.72906 -790.93938)" style="fill:#f1c5bc" />
  <path
      d="M572.43286,1237.219l.09082,23.33444c.09624,24.72581,38.78039,24.41027,38.71193-.31606l-.06461-23.33485Z"
      transform="translate(-258.72906 -790.93938)" style="fill:#d62b04" />
  <path
      d="M533.72239,1237.53515l.117,23.334c.12391,24.72539,38.78049,24.41006,38.68425-.31575l-.09082-23.33444Z"
      transform="translate(-258.72906 -790.93938)" style="fill:#f1c5bc" />
  <path
      d="M494.98508,1237.85152l.14315,23.3336c.15179,24.725,38.83511,24.40944,38.7112-.316l-.117-23.334Z"
      transform="translate(-258.72906 -790.93938)" style="fill:#d62b04" />
  <path
      d="M456.27606,1238.16768l.16937,23.33319c.17947,24.72456,38.83459,24.40923,38.6828-.31575l-.14315-23.3336Z"
      transform="translate(-258.72906 -790.93938)" style="fill:#f1c5bc" />
  <path
      d="M421.34989,1238.45305l.193,23.33277c.20443,24.724,35.082,24.43961,34.90256-.28495l-.16937-23.33319Z"
      transform="translate(-258.72906 -790.93938)" style="fill:#d62b04" />
  <polygon points="507.349 444.698 504.315 445.118 632.371 443.983 632.202 291.394 507.349 444.698"
      style="fill:#f1e3e0" />
  <polygon points="611.66 802.993 304.987 802.683 304.987 798.629 611.66 798.954 611.66 802.993"
      style="fill:#04f2f5" />
  <polygon points="611.66 916.374 304.987 916.064 304.987 912.009 611.66 912.335 611.66 916.374"
      style="fill:#04f2f5" />
  <polygon points="611.66 687.016 304.987 686.633 304.987 683.291 611.66 683.688 611.66 687.016"
      style="fill:#04f2f5" />
  <path
      d="M842.99022,1330.897l-251.356-1.47252a16.70931,16.70931,0,0,1-16.41234-16.82275,16.46029,16.46029,0,0,1,16.41234-16.61873l251.356,1.653a16.57713,16.57713,0,0,1,16.22444,16.7313A16.33008,16.33008,0,0,1,842.99022,1330.897Zm-251.356-33.80343a15.36714,15.36714,0,0,0-15.32194,15.51492,15.59963,15.59963,0,0,0,15.32194,15.70541l251.356,1.47845a15.24529,15.24529,0,0,0,15.14716-15.43169,15.47609,15.47609,0,0,0-15.14716-15.6201Z"
      transform="translate(-258.72906 -790.93938)" style="fill:#04f2f5" />
  <path
      d="M842.99032,1298.18816l-26.15223-.17166v32.17476l26.15223.15355a15.77,15.77,0,0,0,15.68575-15.98079A16.00847,16.00847,0,0,0,842.99032,1298.18816Z"
      transform="translate(-258.72906 -790.93938)" style="fill:#04f2f5" />
  <path
      d="M833.30233,1318.873a8.03155,8.03155,0,0,1-5.74932-2.4749,8.48316,8.48316,0,0,1,0-11.78,7.92939,7.92939,0,0,1,5.74932-2.40249,8.0324,8.0324,0,0,1,5.74807,2.47635h0a8.48357,8.48357,0,0,1,0,11.77713A7.92975,7.92975,0,0,1,833.30233,1318.873Zm0-14.648a6.01573,6.01573,0,0,0-4.362,1.823,6.43639,6.43639,0,0,0,0,8.93758,6.09382,6.09382,0,0,0,4.362,1.878,6.01606,6.01606,0,0,0,4.36127-1.82385,6.43653,6.43653,0,0,0,0-8.93592A6.0941,6.0941,0,0,0,833.30233,1304.225Z"
      transform="translate(-258.72906 -790.93938)" style="fill:#4489c8" />
  <polygon points="585.096 531.926 578.935 525.521 580.321 524.109 586.482 530.514 585.096 531.926"
      style="fill:#4489c8" />
  <path
      d="M846.57508,1324.27975h0a1.73457,1.73457,0,0,1-2.4953-.015l-5.16151-5.32007,2.49581-2.542,5.161,5.32017A1.83976,1.83976,0,0,1,846.57508,1324.27975Z"
      transform="translate(-258.72906 -790.93938)" style="fill:#4489c8" />
  <polygon points="402.506 668.862 316.493 668.456 316.493 580.616 402.506 581.119 402.506 668.862"
      style="fill:#04f2f5" />
  <polygon points="502.618 669.335 416.824 668.93 416.824 581.202 502.618 581.704 502.618 669.335"
      style="fill:#04f2f5" />
  <polygon points="600.241 669.796 514.663 669.392 514.663 581.774 600.241 582.274 600.241 669.796"
      style="fill:#04f2f5" />
  <polygon points="402.506 786.655 316.493 786.378 316.493 698.538 402.506 698.912 402.506 786.655"
      style="fill:#04f2f5" />
  <polygon points="502.618 786.977 416.824 786.701 416.824 698.974 502.618 699.346 502.618 786.977"
      style="fill:#04f2f5" />
  <polygon points="600.241 787.291 514.663 787.016 514.663 699.398 600.241 699.769 600.241 787.291"
      style="fill:#04f2f5" />
  <polygon points="402.506 902.395 316.493 902.246 316.493 814.406 402.506 814.651 402.506 902.395"
      style="fill:#04f2f5" />
  <polygon points="502.618 902.568 416.824 902.42 416.824 814.692 502.618 814.937 502.618 902.568"
      style="fill:#04f2f5" />
  <polygon points="600.241 902.738 514.663 902.589 514.663 814.972 600.241 815.216 600.241 902.738"
      style="fill:#04f2f5" />
  <path
      d="M641.79781,1438.06069l-1.91612-.58552c.04057-.14055,3.36222-14.6818,3.62751-20.21472a22.84136,22.84136,0,0,0-5.8984-17.06339c-4.77742-5.148-12.05231-8.12621-19.96005-8.17032-7.732-.04317-14.46052,2.58424-18.94549,7.3988-4.12282,4.42577-6.09794,10.49885-5.71124,17.562.30556,5.58463,3.10182,19.63515,3.13012,19.77643l-1.95972.398c-.11631-.58271-2.8539-14.33828-3.16757-20.07116-.41791-7.63766,1.7453-14.23393,6.25556-19.07553,4.86657-5.224,12.11119-8.07524,20.39834-8.02874,8.45216.04744,16.2543,3.25944,21.40677,8.81181a24.86911,24.86911,0,0,1,6.44687,18.57232C645.22745,1423.14543,641.96625,1437.47809,641.79781,1438.06069Z"
      transform="translate(-258.72906 -790.93938)" style="fill:#03abb0" />
  <path
      d="M594.28594,1427.684l2.61254,14.21967a3.01787,3.01787,0,0,0,3.13594,2.49436l-3.67516-20.185A3.03753,3.03753,0,0,0,594.28594,1427.684Z"
      transform="translate(-258.72906 -790.93938)" style="fill:#03abb0" />
  <path
      d="M600.38731,1444.356l5.61906-1.04837-3.71428-20.21847-5.61958,1.04691a2.961,2.961,0,0,0-.31325.077l3.67516,20.185A2.9581,2.9581,0,0,0,600.38731,1444.356Z"
      transform="translate(-258.72906 -790.93938)" style="fill:#03abb0" />
  <path
      d="M607.49564,1445.30062h0a3.1839,3.1839,0,0,1-3.69045-2.59412l-3.35494-18.2624a3.20416,3.20416,0,0,1,2.52442-3.75308h0a3.18489,3.18489,0,0,1,3.69056,2.59517l3.35452,18.26093A3.20509,3.20509,0,0,1,607.49564,1445.30062Z"
      transform="translate(-258.72906 -790.93938)" style="fill:#fff" />
  <path
      d="M641.88915,1428.13143l-2.95835,14.112a2.97578,2.97578,0,0,1-3.19285,2.38075l4.16662-20.03453A3.07358,3.07358,0,0,1,641.88915,1428.13143Z"
      transform="translate(-258.72906 -790.93938)" style="fill:#03abb0" />
  <path
      d="M635.38662,1444.56967,629.8,1443.3228l4.20772-20.06949,5.586,1.24812a2.98607,2.98607,0,0,1,.31085.08822l-4.16662,20.03453A2.952,2.952,0,0,1,635.38662,1444.56967Z"
      transform="translate(-258.72906 -790.93938)" style="fill:#03abb0" />
  <path
      d="M628.26321,1445.26161h0a3.14352,3.14352,0,0,0,3.75037-2.46127l3.80032-18.12694a3.244,3.244,0,0,0-2.42892-3.84089h0a3.14247,3.14247,0,0,0-3.75027,2.46023l-3.80084,18.12829A3.243,3.243,0,0,0,628.26321,1445.26161Z"
      transform="translate(-258.72906 -790.93938)" style="fill:#fff" />
  <polygon
      points="470.577 612.528 468.558 616.204 431.728 616.005 431.728 648.215 487.741 648.494 487.741 616.694 485.524 612.61 470.577 612.528"
      style="fill:#fff" />
  <polygon points="466.202 617.813 453.286 617.744 453.286 612.434 466.202 612.504 466.202 617.813"
      style="fill:#fff" />
  <polygon points="448.981 617.72 436.06 617.651 436.06 612.34 448.981 612.41 448.981 617.72"
      style="fill:#fff" />
  <polygon points="487.741 642.254 431.728 641.97 431.728 623.381 487.741 623.678 487.741 642.254"
      style="fill:#03abb0" />
  <path
      d="M742.57681,1423.88543a12.90321,12.90321,0,0,1-12.83747,13.05719,13.06546,13.06546,0,0,1-12.84162-13.19035,12.90286,12.90286,0,0,1,12.84162-13.05709A13.06577,13.06577,0,0,1,742.57681,1423.88543Z"
      transform="translate(-258.72906 -790.93938)" style="fill:#03abb0" />
  <path
      d="M739.69232,1423.87055a10.00347,10.00347,0,0,1-9.953,10.12287,10.1293,10.1293,0,0,1-9.95547-10.22617,10.00333,10.00333,0,0,1,9.95547-10.12287A10.12956,10.12956,0,0,1,739.69232,1423.87055Z"
      transform="translate(-258.72906 -790.93938)" style="fill:#fff" />
  <path
      d="M734.4998,1423.84361a4.78437,4.78437,0,0,1-4.76046,4.8414,4.84457,4.84457,0,0,1-4.761-4.89082,4.78427,4.78427,0,0,1,4.761-4.84139A4.8446,4.8446,0,0,1,734.4998,1423.84361Z"
      transform="translate(-258.72906 -790.93938)" style="fill:#4489c8" />
  <path
      d="M651.5345,1675.01437c-.43831-8.83647-20.20693-14.40289-20.20693-14.40289s-18.09417-19.91125-25.66046-29.89055c-12.88012,5.02284-15.95166,11.25-14.03179,22.08987,6.2774-5.33026,16.98692,4.46853,30.00218,22.14468Z"
      transform="translate(-258.72906 -790.93938)" style="fill:#03abb0" />
  <path
      d="M591.63532,1652.8108l4.29438,23.03939,2.07186.00395c.5747-10.36755,1.867-22.11909,8.72869-18.35863C606.73025,1648.249,591.63532,1648.21419,591.63532,1652.8108Z"
      transform="translate(-258.72906 -790.93938)" style="fill:#03abb0" />
  <path
      d="M624.05247,1503.2972a15.59131,15.59131,0,0,1-.75155-3.573l-.9617-.00406a13.38516,13.38516,0,0,1-.43269,2.8719c-.674,2.52391-2.56957,4.42245-4.81528,4.53689-2.24592-.133-4.14176-2.04732-4.816-4.577a13.43938,13.43938,0,0,1-.43269-2.87586l-.962-.00406a15.5068,15.5068,0,0,1-.75187,3.56728,18.71891,18.71891,0,0,1-4.59493,7.14048l1.5339,14.401,9.60435.03735.83842.00322,9.60185.03735,1.533-14.38478A18.92536,18.92536,0,0,1,624.05247,1503.2972Z"
      transform="translate(-258.72906 -790.93938)" style="fill:#fff" />
  <path
      d="M639.43589,1562.58891c-4.27076,4.37334-39.38732,4.69471-44.70208-.15231,2.39708-13.61991,5.53552-26.777,12.32842-37.65586l20.05544.07792C633.19324,1534.29375,636.6622,1547.88713,639.43589,1562.58891Z"
      transform="translate(-258.72906 -790.93938)" style="fill:#fff" />
  <path
      d="M618.83291,1528.26863c-8.12216-.03121-11.96637-3.50714-12.12628-3.65487a.30954.30954,0,0,1-.02122-.431.29491.29491,0,0,1,.42238-.02122c.03777.03475,3.85275,3.46573,11.72533,3.49611h.012c7.01033.02351,7.97724-2.85921,7.98618-2.88823a.29767.29767,0,0,1,.37235-.20121.30623.30623,0,0,1,.2013.377c-.03911.1368-1.04326,3.3488-8.55931,3.32352Z"
      transform="translate(-258.72906 -790.93938)" style="fill:#4489c8" />
  <path
      d="M618.0102,1533.7951a.83585.83585,0,0,1-.65106-.37068c-1.46638-1.83518,2.19182-5.29509,2.61389-5.68346l.65584-.60392-.16063.88794c-.23,1.26955-1.07437,5.43513-2.284,5.74786A.684.684,0,0,1,618.0102,1533.7951Zm1.67549-4.91162c-1.13617,1.2142-2.62992,3.19649-1.86307,4.1557.0593.07407.1444.1625.21275.14139C618.53505,1533.05156,619.22523,1531.00258,619.68569,1528.88348Z"
      transform="translate(-258.72906 -790.93938)" style="fill:#4489c8" />
  <path
      d="M619.85755,1528.708l.01727-.74791c.004-.18237.12068-4.4857,1.773-5.92378a1.848,1.848,0,0,1,1.51725-.461,1.06662,1.06662,0,0,1,.97669.70193c.51175,1.57437-3.04148,5.19969-3.75912,5.91078Zm3.03659-6.541a1.25987,1.25987,0,0,0-.85673.33468c-1.05867.92113-1.40479,3.39239-1.51486,4.67619,1.50165-1.58488,3.32185-3.8773,3.05126-4.71031-.01842-.0566-.07481-.2295-.4871-.28662A1.39384,1.39384,0,0,0,622.89414,1522.167Z"
      transform="translate(-258.72906 -790.93938)" style="fill:#4489c8" />
  <path
      d="M625.85666,1533.17349a.30037.30037,0,0,1-.26914-.17259,9.3887,9.3887,0,0,0-5.489-4.737.30752.30752,0,0,1-.21421-.37359.29852.29852,0,0,1,.36485-.21754,9.86241,9.86241,0,0,1,5.87614,5.06237.30734.30734,0,0,1-.13764.40781A.29579.29579,0,0,1,625.85666,1533.17349Z"
      transform="translate(-258.72906 -790.93938)" style="fill:#4489c8" />
  <path
      d="M708.5702,1512.76672s6.0352,2.02983,14.87125-.245c5.65953,6.993-4.31,10.32855-10.53432,8.81129C706.68185,1519.81544,708.5702,1512.76672,708.5702,1512.76672Z"
      transform="translate(-258.72906 -790.93938)" style="fill:#fff" />
  <path
      d="M723.44145,1512.52171a7.17339,7.17339,0,0,1-3.27712,4.63718c-4.23528,2.49363-9.70381-.17915-11.59413-4.39217a40.53686,40.53686,0,0,0-8.396,1.86941v48.24408l33.31581.1135v-48.22358A38.74461,38.74461,0,0,0,723.44145,1512.52171Z"
      transform="translate(-258.72906 -790.93938)" style="fill:#03abb0" />
  <polygon points="441.445 723.697 427.09 734.997 436.531 747.644 450.584 736.992 441.445 723.697"
      style="fill:#03abb0" />
  <polygon points="474.869 723.831 489.223 735.238 479.794 747.804 465.736 737.051 474.869 723.831"
      style="fill:#03abb0" />
  <path
      d="M784.32418,1555.13851l-.6624-.00229v2.87117s35.86552,2.6064,49.9822.17353c14.11159-2.43193,15.0762-7.18157,15.0762-7.18157v-2.951l-.48459-.00167Z"
      transform="translate(-258.72906 -790.93938)" style="fill:#03abb0" />
  <path
      d="M848.15777,1549.44361c-3.697,4.88706-14.90319,6.35178-28.92989,6.53571-5.77719.08656-12.02952-.05181-18.43478-.25873-5.44771-.18414-11.01018-.40751-16.46892-.58208-.54119-4.09994.883-11.72761,2.00331-15.92825a16.57428,16.57428,0,0,1,.91135-2.7738l.2089-.077c1.87,2.59007,6.45488,4.16059,9.16938,4.11242,4.44169-.0904,9.44268-3.18827,8.00959-6.93136a10.44064,10.44064,0,0,1-.54078-1.39044c-1.13867-3.7227,1.98313-3.73976,6.661-.82885a55.11388,55.11388,0,0,0,21.60693,8.14723c1.23271.19861,2.39906.3583,3.50828.49823C844.21451,1541.04565,848.90662,1541.09205,848.15777,1549.44361Z"
      transform="translate(-258.72906 -790.93938)" style="fill:#fff" />
  <path
      d="M847.68867,1549.44194c-3.697,4.88707-14.90329,6.35179-28.93019,6.53572-.40782-2.05928-.75884-7.47693,6.45935-8.80005a14.91643,14.91643,0,0,0,10.17509-7.21258C843.74541,1541.04388,848.43752,1541.09039,847.68867,1549.44194Z"
      transform="translate(-258.72906 -790.93938)" style="fill:#03abb0" />
  <path
      d="M800.32349,1555.71892c-5.44772-.184-11.01029-.4075-16.469-.58208-.5413-4.09993.88284-11.72761,2.00331-15.92835C790.5093,1540.86681,798.76691,1545.23724,800.32349,1555.71892Z"
      transform="translate(-258.72906 -790.93938)" style="fill:#03abb0" />
  <path
      d="M832.35384,1539.46847c-1.0621,1.68475-2.70264,1.737-4.2768,1.73115-14.18056-.994-21.37212-6.64162-23.99111-9.04953-1.13867-3.7227,1.98313-3.73976,6.661-.82885A55.11388,55.11388,0,0,0,832.35384,1539.46847Z"
      transform="translate(-258.72906 -790.93938)" style="fill:#03abb0" />
  <path
      d="M815.50789,1556.51625c-7.274-.02549-14.55187-.43695-20.50478-.77329a97.57085,97.57085,0,0,0-11.05221-.32678l-.273.03308-.06586-.55867.27279-.03256a96.9139,96.9139,0,0,1,11.14688.32365c16.65453.94121,47.63557,2.69213,52.96323-7.27062l.13171-.24625.48137.27132-.1315.24573C844.8047,1555.04852,830.16951,1556.56692,815.50789,1556.51625Z"
      transform="translate(-258.72906 -790.93938)" style="fill:#d4e7f7" />
  <polygon points="567.252 654.743 549.225 654.655 549.225 598.561 567.252 598.662 567.252 654.743"
      style="fill:#03abb0" />
  <path
      d="M832.14233,1416.83255a16.02754,16.02754,0,0,1-15.93782,16.22767,16.23274,16.23274,0,0,1-15.94428-16.3961,16.027,16.027,0,0,1,15.94428-16.22767A16.23322,16.23322,0,0,1,832.14233,1416.83255Z"
      transform="translate(-258.72906 -790.93938)" style="fill:#fff" />
  <path
      d="M829.03573,1416.81611a12.90294,12.90294,0,0,1-12.83122,13.06406,13.06817,13.06817,0,0,1-12.83538-13.19972,12.90244,12.90244,0,0,1,12.83538-13.06395A13.06841,13.06841,0,0,1,829.03573,1416.81611Z"
      transform="translate(-258.72906 -790.93938)" style="fill:#03abb0" />
  <polygon points="544.476 618.517 542.434 617.037 544.866 613.511 546.908 614.991 544.476 618.517"
      style="fill:#fff" />
  <rect x="799.12615" y="1416.76082" width="2.49569" height="4.32726"
      transform="translate(-437.40655 -674.09147) rotate(-7.51399)" style="fill:#fff" />
  <polygon points="570.362 618.567 572.423 617.141 570.043 613.554 567.982 614.981 570.362 618.567"
      style="fill:#fff" />
  <polygon points="571.72 630.307 574.192 630.659 574.753 626.377 572.281 626.024 571.72 630.307"
      style="fill:#fff" />
  <path
      d="M816.23707,1417.45448l-6.26408-3.33788a.6212.6212,0,0,1-.25759-.82573.58876.58876,0,0,1,.80617-.25936l5.65048,3.01058,7.95872-5.17785a.59254.59254,0,0,1,.82656.18935.61977.61977,0,0,1-.18092.84518Z"
      transform="translate(-258.72906 -790.93938)" style="fill:#fff" />
  <path
      d="M687.61266,1663.11739a68.28352,68.28352,0,0,0,12.16383,2.22417,184.47424,184.47424,0,0,0,26.06548.87109c8.21547-.32709,15.07547-1.29233,17.65732-2.97666,0,0,5.48413-33.25256-26.83086-34.07195-.36194-.00978-.73231-.01508-1.10257-.016C682.00161,1629.06219,687.61266,1663.11739,687.61266,1663.11739Z"
      transform="translate(-258.72906 -790.93938)" style="fill:#03abb0" />
  <path
      d="M699.77649,1665.34156a184.47424,184.47424,0,0,0,26.06548.87109c4.56362-30.20463-8.4737-36.72027-9.17354-37.04861l-.02841-.01331-1.07416-.00271C698.53909,1638.8253,699.3694,1660.52014,699.77649,1665.34156Z"
      transform="translate(-258.72906 -790.93938)" style="fill:#fff" />
  <path
      d="M740.00765,1664.501s-9.13973,15.51555-51.5625,11.921c-18.16117-1.53879-.83155-13.30344-.83155-13.30344C699.04689,1665.93311,721.06237,1667.2657,740.00765,1664.501Z"
      transform="translate(-258.72906 -790.93938)" style="fill:#03abb0" />
  <path
      d="M806.01766,1638.4695l19.546.04775a20.48766,20.48766,0,0,1,20.34133,20.56553c-.02663,4.54209-1.44411,8.56691-4.86272,10.67322l-51.53222-.10518c-3.25548-1.55357-4.50984-6.95218-3.64354-13.41507A20.37861,20.37861,0,0,1,806.01766,1638.4695Z"
      transform="translate(-258.72906 -790.93938)" style="fill:#03abb0" />
  <path
      d="M808.97747,1639.00507l.01446-.17446a7.42964,7.42964,0,0,1,14.817.0361l.01457.17457,2.52265.00614-.03246-.39159a9.93949,9.93949,0,0,0-19.8276-.04838l-.03246.39149Z"
      transform="translate(-258.72906 -790.93938)" style="fill:#03abb0" />
  <polygon points="555.304 878.761 550.47 878.752 550.47 859.406 555.304 859.417 555.304 878.761"
      style="fill:#fff" />
  <polygon points="564.873 878.781 560.04 878.771 560.04 859.428 564.873 859.439 564.873 878.781"
      style="fill:#fff" />
  <rect x="284.26893" y="978.01219" width="350.64182" height="38.50354" style="fill:#04f2f5" />
  <polygon
      points="476.678 1008.921 455.55 1008.921 455.55 993.66 466.114 985.607 476.678 993.66 476.678 1008.921"
      style="fill:#fff" />
  <rect x="325.4001" y="990.29171" width="26.17648" height="13.9445" style="fill:#fff" />
  <rect x="583.51845" y="990.29171" width="26.17648" height="13.9445" style="fill:#fff" />
  <rect x="334.4516" y="1044.30664" width="362.36433" height="28.35935" style="fill:#0d0d0d" />
  <rect x="176.25749" y="1044.30664" width="413.57935" height="28.35935" style="fill:#4d4d4d" />
  <rect x="93.0787" y="1072.66599" width="474.4369" height="28.35935" style="fill:#4d4d4d" />
  <rect x="530.47053" y="1072.66599" width="166.3454" height="28.35935" style="fill:#0d0d0d" />
  <path
      d="M587.08,1567.45c-9.06357,26.56484-3.48363,82.90611-16.41056,120.05084-20.05846,57.63693-10.09436,83.04188-19.24678,127.49459l21.124,1.60059c19.621-87.26728,63.55467-210.83567,68.9719-238.9418S595.589,1545.77646,587.08,1567.45Z"
      transform="translate(-258.72906 -790.93938)" style="fill:#014a91" />
  <path
      d="M620.36566,1599.94338c.8764,10.3481,14.96718,69.88315,6.86187,98.30524-12.80261,44.89351-6.123,123.2955-6.123,123.2955l17.01023-.11183c16.56505-72.78533,39.15553-178.90436,37.356-245.944C672.973,1547.3037,615.07369,1537.45174,620.36566,1599.94338Z"
      transform="translate(-258.72906 -790.93938)" style="fill:#014a91" />
  <ellipse cx="371.61322" cy="785.47574" rx="45.12335" ry="34.27096" style="fill:#014a91" />
  <path
      d="M644.80194,1857.90422a29.75533,29.75533,0,0,0-5.54936-1.90145l-3.657-16.14944,19.01249-88.08759-36.231-3.42059.09166,85.45852-2.66591,9.87724s12.36233,18.4198,15.1948,18.4198,13.78013.21722,15.51159.21722C646.53257,1861.22358,646.36435,1858.77323,644.80194,1857.90422Z"
      transform="translate(-258.72906 -790.93938)" style="fill:#a64b30" />
  <polygon
      points="357.074 1052.742 359.65 1072.267 360.817 1072.267 369.436 1051.97 357.074 1052.742"
      style="fill:#a64b30" />
  <path
      d="M574.93034,1857.90422a28.14413,28.14413,0,0,0-5.43211-1.90145l-2.66352-16.14944,24.22228-92.05821-33.55666-3.71095-7.42023,89.7195-3.62314,9.10519s11.57832,19.19185,14.4109,19.19185,13.7666.21722,15.49817.21722C576.45675,1861.22358,576.43948,1858.77323,574.93034,1857.90422Z"
      transform="translate(-258.72906 -790.93938)" style="fill:#a64b30" />
  <polygon
      points="287.728 1051.97 289.452 1072.267 290.619 1072.267 300.487 1051.97 287.728 1051.97"
      style="fill:#a64b30" />
  <path
      d="M604.51939,1533.1814c-11.3225,13.53075-16.76147,27.17813-18.84374,40.13191,0,0,14.70385,11.25747,41.136,11.35859,13.31655.05088,41.58674-3.351,48.50937-11.11307a207.70134,207.70134,0,0,0-10.80315-44.56351C657.69662,1509.80711,614.50565,1507.96132,604.51939,1533.1814Z"
      transform="translate(-258.72906 -790.93938)" style="fill:#014a91" />
  <path
      d="M620.23042,1581.00652a95.65852,95.65852,0,0,0,3.18494-19.49542l-27.17345-2.35765a184.76334,184.76334,0,0,0-1.95212,18.78278l11.58986,8.73232Z"
      transform="translate(-258.72906 -790.93938)" style="fill:#0d64b8" />
  <path
      d="M660.17381,1582.70428a95.66219,95.66219,0,0,0,2.14064-19.63754l-27.26064-.90521a184.77278,184.77278,0,0,0-.94745,18.86008l12.039,8.102Z"
      transform="translate(-258.72906 -790.93938)" style="fill:#0d64b8" />
  <path
      d="M612.12064,1448.36187s-23.442-17.25814-69.99156,59.83883c-5.91223,9.792-26.0353,56.66627-26.0353,56.66627l12.07467,7.89162,36.11177-51.16748S636.62579,1461.04619,612.12064,1448.36187Z"
      transform="translate(-258.72906 -790.93938)" style="fill:#f7a58e" />
  <path
      d="M506.73683,1599.93443a.33142.33142,0,0,1-.1624-.55263c.1291-.13411,12.90446-13.49372,12.31281-21.13232a4.63213,4.63213,0,0,0-1.84081-3.48373c-7.61821-5.7848-27.11,14.40975-27.30578,14.61449a.33167.33167,0,0,1-.47909-.4588c.8171-.85319,20.10175-20.8252,28.186-14.68378a5.27021,5.27021,0,0,1,2.101,3.96084c.61412,7.93448-11.961,21.08738-12.49654,21.64334A.33132.33132,0,0,1,506.73683,1599.93443Z"
      transform="translate(-258.72906 -790.93938)" style="fill:#103558" />
  <path
      d="M500.13983,1595.38a.33156.33156,0,0,1-.11382-.59446c.16324-.11423,16.32827-11.50487,16.46363-18.43156a3.57062,3.57062,0,0,0-1.54368-3.06936c-7.65889-5.817-31.60651,11.40573-31.84736,11.5803a.33166.33166,0,0,1-.38919-.53714c1.0003-.72492,24.59014-17.68406,32.63771-11.57124a4.24654,4.24654,0,0,1,1.80564,3.61055c-.142,7.262-16.0686,18.48763-16.7466,18.96183A.3313.3313,0,0,1,500.13983,1595.38Z"
      transform="translate(-258.72906 -790.93938)" style="fill:#103558" />
  <polygon points="210.083 782.964 141.796 864.034 165.479 879.719 222.524 791.204 210.083 782.964"
      style="fill:#f05b5b" />
  <polygon points="225.435 793.132 165.36 879.64 204.241 905.391 256.99 814.03 225.435 793.132"
      style="fill:#e54547" />
  <polygon points="219.265 789.046 163.52 860.185 165.479 879.719 225.534 793.197 219.265 789.046"
      style="fill:#f1696a" />
  <polygon points="163.52 860.185 141.678 863.955 165.36 879.64 163.52 860.185"
      style="fill:#f05b5b" />
  <polygon points="234.867 800.992 177.744 892.879 203.963 905.259 248.64 807.496 234.867 800.992"
      style="fill:#4cc3d1" />
  <polygon points="251.863 809.017 203.831 905.197 246.877 925.524 286.797 825.513 251.863 809.017"
      style="fill:#26bdc5" />
  <polygon points="245.032 805.792 199.125 885.812 203.963 905.259 251.972 809.069 245.032 805.792"
      style="fill:#6fcbd8" />
  <polygon points="199.125 885.812 177.612 892.817 203.831 905.197 199.125 885.812"
      style="fill:#4cc3d1" />
  <path
      d="M528.684,1571.94628l-4.35368,7.65244s3.73415,3.7125,2.10537,6.16951c-4.6351,5.1688-16.18189,3.34755-18.57,1.26133s-4.70355-7.51584-2.867-11.59331,11.09518-10.56928,11.09518-10.56928S527.42262,1567.32565,528.684,1571.94628Z"
      transform="translate(-258.72906 -790.93938)" style="fill:#f7a58e" />
  <polygon points="381.915 676.233 348.76 677.255 355.634 621.537 382.159 620.719 381.915 676.233"
      style="fill:#f7a58e" />
  <path
      d="M658.9102,1390.52738c2.75944,22.29616-1.92341,39.05233-18.15628,40.7402s-38.84759-17.50616-40.62826-34.62791,9.93529-32.37,26.16815-34.05789S656.79578,1373.4436,658.9102,1390.52738Z"
      transform="translate(-258.72906 -790.93938)" style="fill:#f7a58e" />
  <path
      d="M653.605,1395.759a6.0585,6.0585,0,1,1-7.09158-4.80789A6.05794,6.05794,0,0,1,653.605,1395.759Z"
      transform="translate(-258.72906 -790.93938)" style="fill:#f7a58e" />
  <path
      d="M668.19807,1485.17046c-.14211,6.25556-.63139,52.21148-.63139,52.21148s-38.52144-2.40718-64.15027-2.84569c-11.71149-48.99084-26.12551-72.26327,2.63417-88.55243C646.72171,1430.70153,668.37379,1463.36535,668.19807,1485.17046Z"
      transform="translate(-258.72906 -790.93938)" style="fill:#0386c2" />
  <path
      d="M647.16792,1443.26538c-29.79962,9.82157-41.11484,2.71928-41.11484,2.71928C612.46708,1441.00208,636.4018,1437.43658,647.16792,1443.26538Z"
      transform="translate(-258.72906 -790.93938)" style="fill:#f7a58e" />
  <path
      d="M536.4915,1613.41983a.33145.33145,0,0,1-.25062-.2656c-.04078-.233-4.173-23.4133-12.11369-33.54033a.33154.33154,0,0,1,.52195-.409c8.0433,10.2578,12.20389,33.60025,12.24508,33.83485a.33188.33188,0,0,1-.40272.38Z"
      transform="translate(-258.72906 -790.93938)" style="fill:#103558" />
  <path
      d="M516.713,1604.18626a.32872.32872,0,0,1-.152-.08229c-.13-.12349-13.00381-12.50351-12.53784-25.96872a.33161.33161,0,0,1,.66281.0232c-.45578,13.17,12.20368,25.34326,12.33175,25.46467a.33162.33162,0,0,1-.30472.56314Z"
      transform="translate(-258.72906 -790.93938)" style="fill:#103558" />
  <path
      d="M781.29331,1427.315c5.22654-5.59815,8.60041-10.79379,7.58846-11.75653s-6.03427,2.66435-11.36661,8.16179C773.83324,1427.576,778.47114,1429.76458,781.29331,1427.315Z"
      transform="translate(-258.72906 -790.93938)" style="fill:#f7a58e" />
  <path
      d="M779.3029,1421.97877l-12.79023,10.30961c-4.0011,2.63616-9.75187,6.42669-16.04706,10.577-12.28743,8.10072-27.03977,15.38415-34.25078,20.1394,0,0-23.90788-8.7084-47.32575-14.62812-18.72806-4.73414-37.36165-5.28573-40.57375,3.25694-6.603,17.56088,13.97,26.68261,47.16367,32.19639l.00915-.02653c16.84845,2.88979,36.93386,5.25629,42.96823,1.74041,11.11172-6.47424,26.97911-16.65858,41.1036-31.398,4.544-4.74184,8.6079-9.14306,11.78348-12.699a7.24024,7.24024,0,0,0,1.67351.48117s10.02279-.90834,11.89-6.66223C786.51246,1429.01022,779.8133,1422.47294,779.3029,1421.97877Z"
      transform="translate(-258.72906 -790.93938)" style="fill:#f7a58e" />
  <path
      d="M677.92727,1449.02842s3.46552,6.65328.88253,20.59675a32.4804,32.4804,0,0,1-7.12061,15.02574c-16.96278-2.47792-49.62681-10.6729-46.16128-32.15727S677.92727,1449.02842,677.92727,1449.02842Z"
      transform="translate(-258.72906 -790.93938)" style="fill:#0386c2" />
  <path
      d="M611.424,1441.95578s-24.12937,3.80229-42.38105,27.784a76.20141,76.20141,0,0,0,26.765,25.84118s27.53934-19.49876,30.27215-35.716S611.424,1441.95578,611.424,1441.95578Z"
      transform="translate(-258.72906 -790.93938)" style="fill:#0386c2" />
  <path
      d="M666.22535,1377.28137c.2371-13.73924-10.22846-17.13642-10.22846-17.13642,4.58485-15.67409-16.27115-25.7052-36.05091-15.64975,0,0-7.99825-4.61751-21.57613,3.69451-18.52238,10.91634-16.61281,33.86762-16.61281,33.86762-21.41082,6.18325-29.84487,25.41483-23.61564,42.66,0,0-24.95479,9.51269-20.67852,34.83556,4.27669,25.32277,25.33629,27.89369,25.33629,27.89369s5.79967,37.71454,34.413,34.63384c28.61352-3.0808,29.944-26.4039,29.944-26.4039s23.40528,8.19738,33.63218-17.66013-14.5527-40.17456-14.5527-40.17456,15.02461-6.74234,14.7795-22.99206a25.72769,25.72769,0,0,0-10.15387-20.15522C660.34682,1389.531,666.09364,1384.91123,666.22535,1377.28137Z"
      transform="translate(-258.72906 -790.93938)" style="fill:#0d0d0d" />
  <polygon
      points="712.041 691.143 715.842 703.137 728.143 703.137 718.191 710.549 721.993 722.543 712.041 715.131 702.089 722.543 705.89 710.549 695.939 703.137 708.24 703.137 712.041 691.143"
      style="fill:#fdda6d" />
  <polygon
      points="756.157 691.143 759.959 703.137 772.26 703.137 762.308 710.549 766.109 722.543 756.157 715.131 746.206 722.543 750.007 710.549 740.055 703.137 752.356 703.137 756.157 691.143"
      style="fill:#fdda6d" />
  <polygon
      points="800.274 691.143 804.075 703.137 816.376 703.137 806.425 710.549 810.226 722.543 800.274 715.131 790.322 722.543 794.123 710.549 784.172 703.137 796.473 703.137 800.274 691.143"
      style="fill:#fdda6d" />
  <polygon
      points="844.391 691.143 848.192 703.137 860.493 703.137 850.541 710.55 854.342 722.543 844.391 715.131 834.439 722.543 838.24 710.549 828.288 703.137 840.589 703.137 844.391 691.143"
      style="fill:#fdda6d" />
  <ellipse cx="778.99674" cy="577.00641" rx="26.08131" ry="26.12868" style="fill:#029a65" />
  <path
      d="M1055.054,1354.27319c-6.55174,2.03733-14.743,9.43789-19.36829,17.54195-1.34664-3.2844-5.46853-5.84274-7.47547-6.23371l-4.85867,6.55466c3.84442,1.04306,8.48222,4.95011,9.73075,9.48231h5.88716c1.682-5.06934,6.16713-17.26542,17.6668-25.20593A9.39068,9.39068,0,0,0,1055.054,1354.27319Z"
      transform="translate(-258.72906 -790.93938)" style="fill:#fff" />
  <path
      d="M1059.74707,1442.1033h-46.345a2.12367,2.12367,0,0,1-2.02048-1.48469l-8.87766-27.86862a2.15146,2.15146,0,0,1,.306-1.91342,2.11667,2.11667,0,0,1,1.7144-.87827h64.10055a2.11681,2.11681,0,0,1,1.7144.87827,2.15146,2.15146,0,0,1,.306,1.91342l-8.87767,27.86862A2.12365,2.12365,0,0,1,1059.74707,1442.1033Zm-44.79759-4.27628h43.25017l7.51542-23.59234-58.281-.0001Z"
      transform="translate(-258.72906 -790.93938)" style="fill:#0d0d0d" />
  <path
      d="M1055.93968,1453.903h-39.5233a2.1382,2.1382,0,0,1,0-4.27628h37.97338a3.86213,3.86213,0,0,0,3.93868-3.71178c.16677-1.65021-.45536-3.32945-1.55481-3.81134l13.34464-42.11254a2.12356,2.12356,0,0,1,2.0213-1.4877h13.80083a2.1382,2.1382,0,0,1,0,4.27627h-12.25091l-12.23166,39.08864C1064.70842,1447.25462,1060.28171,1453.903,1055.93968,1453.903Z"
      transform="translate(-258.72906 -790.93938)" style="fill:#0d0d0d" />
  <path
      d="M1029.38171,1461.06575a4.88,4.88,0,1,1-4.87989-4.91724A4.89859,4.89859,0,0,1,1029.38171,1461.06575Z"
      transform="translate(-258.72906 -790.93938)" style="fill:#0d0d0d" />
  <path
      d="M1053.94345,1461.06575a4.88,4.88,0,1,1-4.87989-4.91724A4.89859,4.89859,0,0,1,1053.94345,1461.06575Z"
      transform="translate(-258.72906 -790.93938)" style="fill:#0d0d0d" />
  <path
      d="M1037.72577,1442.1033a2.13007,2.13007,0,0,1-2.12191-2.13814v-27.86872a2.122,2.122,0,1,1,4.24392,0v27.86872A2.13009,2.13009,0,0,1,1037.72577,1442.1033Z"
      transform="translate(-258.72906 -790.93938)" style="fill:#0d0d0d" />
  <path
      d="M1025.89641,1442.10382a2.12616,2.12616,0,0,1-2.06739-1.6654l-6.27636-27.86883a2.12277,2.12277,0,1,1,4.13864-.9463l6.27635,27.86872a2.13838,2.13838,0,0,1-1.59965,2.55823A2.11193,2.11193,0,0,1,1025.89641,1442.10382Z"
      transform="translate(-258.72906 -790.93938)" style="fill:#0d0d0d" />
  <path
      d="M1049.06616,1442.10361a2.12754,2.12754,0,0,1-2.10245-2.44619l4.02315-27.86872a2.1223,2.1223,0,1,1,4.19961.61558l-4.02306,27.86862A2.12778,2.12778,0,0,1,1049.06616,1442.10361Z"
      transform="translate(-258.72906 -790.93938)" style="fill:#0d0d0d" />
  <path
      d="M1064.186,1428.34138h-55.16784a2.1382,2.1382,0,0,1,0-4.27628H1064.186a2.1382,2.1382,0,0,1,0,4.27628Z"
      transform="translate(-258.72906 -790.93938)" style="fill:#0d0d0d" />
  <path
      d="M491.43143,1432.57937c-15.12915-.119-44.96082-.26488-100.31364-.26488a15.57886,15.57886,0,0,1-15.58182-15.5686v-26.43355a15.56937,15.56937,0,0,1,15.57017-15.5686h98.6266a15.56936,15.56936,0,0,1,15.57016,15.5686v28.49158A13.76435,13.76435,0,0,1,491.43143,1432.57937Z"
      transform="translate(-258.72906 -790.93938)" style="fill:#fff" />
  <path
      d="M404.28494,1403.66176a5.288,5.288,0,1,1-5.288-5.2875A5.28771,5.28771,0,0,1,404.28494,1403.66176Z"
      transform="translate(-258.72906 -790.93938)" style="fill:#b3b3b3" />
  <path
      d="M431.89992,1403.66176a5.288,5.288,0,1,1-5.288-5.2875A5.28771,5.28771,0,0,1,431.89992,1403.66176Z"
      transform="translate(-258.72906 -790.93938)" style="fill:#b3b3b3" />
  <path
      d="M459.5149,1403.66176a5.288,5.288,0,1,1-5.28792-5.2875A5.28761,5.28761,0,0,1,459.5149,1403.66176Z"
      transform="translate(-258.72906 -790.93938)" style="fill:#b3b3b3" />
  <path
      d="M487.13,1403.66176a5.288,5.288,0,1,1-5.288-5.2875A5.28771,5.28771,0,0,1,487.13,1403.66176Z"
      transform="translate(-258.72906 -790.93938)" style="fill:#b3b3b3" />
  <polygon points="193.193 631.277 193.193 655.309 162.595 632.178 193.193 631.277"
      style="fill:#fff" />
  <path
      d="M500.92389,919.67161c0,13.611-9.86426,23.80272-23.27916,23.80272s-23.27879-10.19172-23.27879-23.80272,9.86393-23.8026,23.27879-23.8026S500.92389,906.06073,500.92389,919.67161Zm-8.02295,0c0-8.87672-5.984-16.30675-15.25621-16.30675s-15.25617,7.43-15.25617,16.30675,5.98391,16.30687,15.25617,16.30687S492.90094,928.54829,492.90094,919.67161Z"
      transform="translate(-258.72906 -790.93938)" style="fill:#013466" />
  <path
      d="M515.12644,896.65791,538.14255,928.351V896.65791h7.891v46.02736h-7.10194l-23.01582-31.62741v31.62741H508.0245V896.65791Z"
      transform="translate(-258.72906 -790.93938)" style="fill:#013466" />
  <path d="M555.76576,896.65791H563.657v38.5315h19.59617v7.49586H555.76576Z"
      transform="translate(-258.72906 -790.93938)" style="fill:#013466" />
  <path d="M589.56615,896.65791h7.89126v46.02736h-7.89126Z"
      transform="translate(-258.72906 -790.93938)" style="fill:#013466" />
  <path
      d="M615.2116,896.65791,638.22775,928.351V896.65791h7.89093v46.02736h-7.10194l-23.01583-31.62741v31.62741h-7.89126V896.65791Z"
      transform="translate(-258.72906 -790.93938)" style="fill:#013466" />
  <path
      d="M663.74218,915.33191H682.1547v7.49585H663.74218v12.36165h20.38548v7.49586H655.85092V896.65791H683.733v7.49586H663.74218Z"
      transform="translate(-258.72906 -790.93938)" style="fill:#013466" />
  <path
      d="M732.35951,923.48534c-6.77328-2.36708-14.40124-6.04932-14.40124-14.59725,0-6.5096,5.78665-13.01908,15.0589-13.01908a19.78674,19.78674,0,0,1,14.99321,7.29855l-5.458,5.39174s-3.814-5.19444-9.53522-5.19444c-3.94567,0-7.03628,2.43274-7.03628,5.52323,0,4.01091,3.61663,5.26026,9.92959,7.62733,7.03657,2.63022,12.88921,5.7864,12.88921,14.137s-7.36528,12.82193-16.04552,12.82193c-11.50794,0-16.83452-9.40282-16.83452-9.40282l5.91826-4.99712s3.94563,6.90409,10.91626,6.90409c3.94563,0,8.02257-1.57813,8.02257-5.32608C740.77674,926.773,737.81778,925.39214,732.35951,923.48534Z"
      transform="translate(-258.72906 -790.93938)" style="fill:#013466" />
  <path
      d="M784.44039,896.65791h7.89093v46.02736h-7.89093V922.89358H764.77823v19.79169H756.887V896.65791h7.89126v18.73982h19.66216Z"
      transform="translate(-258.72906 -790.93938)" style="fill:#013466" />
  <path
      d="M845.99088,919.67161c0,13.611-9.86393,23.80272-23.27912,23.80272-13.4149,0-23.27883-10.19172-23.27883-23.80272s9.86393-23.8026,23.27883-23.8026C836.127,895.869,845.99088,906.06073,845.99088,919.67161Zm-8.02295,0c0-8.87672-5.98392-16.30675-15.25617-16.30675s-15.25621,7.43-15.25621,16.30675,5.98395,16.30687,15.25621,16.30687S837.96793,928.54829,837.96793,919.67161Z"
      transform="translate(-258.72906 -790.93938)" style="fill:#013466" />
  <path
      d="M853.09182,896.65791h15.65087c9.14061,0,15.25621,6.31234,15.25621,14.72874s-6.1156,14.72874-15.25621,14.72874h-7.75961v16.56988h-7.89126Zm22.88447,14.72874c0-4.33971-2.82765-7.23288-8.21993-7.23288h-6.77328v14.46576h6.77328C873.14864,918.61953,875.97629,915.72636,875.97629,911.38665Z"
      transform="translate(-258.72906 -790.93938)" style="fill:#013466" />
  <path
      d="M890.3112,896.65791h15.65087c9.14056,0,15.25617,6.31234,15.25617,14.72874s-6.11561,14.72874-15.25617,14.72874h-7.75961v16.56988H890.3112Zm22.88446,14.72874c0-4.33971-2.82765-7.23288-8.21993-7.23288h-6.77327v14.46576h6.77327C910.368,918.61953,913.19566,915.72636,913.19566,911.38665Z"
      transform="translate(-258.72906 -790.93938)" style="fill:#013466" />
  <path d="M928.4512,896.65791h7.89093v46.02736H928.4512Z"
      transform="translate(-258.72906 -790.93938)" style="fill:#013466" />
  <path
      d="M954.09666,896.65791,977.11281,928.351V896.65791h7.89093v46.02736h-7.10195L954.886,911.05786v31.62741h-7.89126V896.65791Z"
      transform="translate(-258.72906 -790.93938)" style="fill:#013466" />
  <path
      d="M1025.5774,933.87437v-9.73161h-10.45594v-7.36437H1033.337V937.688s-5.8526,5.78635-17.03183,5.78635c-13.48089,0-24.19946-10.19172-24.19946-23.80272s10.38991-23.8026,23.8708-23.8026c11.31058,0,17.03153,6.9041,17.03153,6.9041l-5.39233,5.26025s-3.81393-4.80015-11.6392-4.80015c-9.27226,0-15.84822,7.56168-15.84822,16.4384A16.22027,16.22027,0,0,0,1016.30514,936.11C1022.88107,936.11,1025.5774,933.87437,1025.5774,933.87437Z"
      transform="translate(-258.72906 -790.93938)" style="fill:#013466" />
  <path
      d="M438.14227,2449.92a17.12886,17.12886,0,0,1-1.987.11542,16.36245,16.36245,0,0,1-6.6181-1.32362,16.30138,16.30138,0,0,1-8.72033-8.72031,16.3627,16.3627,0,0,1-1.32362-6.61811,17.01993,17.01993,0,0,1,4.82733-11.83473,16.77444,16.77444,0,0,1,5.21662-3.5037,16.40338,16.40338,0,0,1,6.6181-1.32362,16.622,16.622,0,0,1,16.66205,16.66205,16.92546,16.92546,0,0,1-.69729,4.90526l17.495,16.92455a41.68475,41.68475,0,0,0,3.29022-6.17995,40.8775,40.8775,0,0,0,0-31.29973,39.60349,39.60349,0,0,0-21.10008-21.10007,40.87752,40.87752,0,0,0-31.29974,0,39.60352,39.60352,0,0,0-21.10007,21.10007,40.8775,40.8775,0,0,0,0,31.29973,39.60352,39.60352,0,0,0,21.10007,21.10007,40.8774,40.8774,0,0,0,31.29974,0,42.06256,42.06256,0,0,0,4.73992-2.40058Z"
      transform="translate(-258.72906 -790.93938)" style="fill:#001e51" />
  <path
      d="M466.75518,2452.43664a36.08877,36.08877,0,0,1-2.254,3.236l-17.00028-16.446a12.66889,12.66889,0,0,0,1.21126-3.53464l.0019-.01059q.06271-.342.10681-.69c.004-.0312.00818-.06233.01193-.0936q.06321-.52872.08263-1.06974c.00218-.06151.0034-.12323.0047-.185.00188-.09.00684-.1793.00684-.26977a12.77175,12.77175,0,1,0-12.77179,12.77178c.10122,0,.20116-.0053.30181-.00766.05415-.00127.10839-.00216.16239-.00411.11975-.00431.23907-.00994.358-.01754.02606-.00167.05192-.00411.07794-.00594q.3567-.025.70774-.06953l.07954-.01015a12.68548,12.68548,0,0,0,1.56221-.30535l17.62461,17.04992a36.71524,36.71524,0,0,1-3.40086,2.12654l2.91579,2.82071a39.14521,39.14521,0,0,0,13.07123-12.51828Zm-28.34361-10.47874a8.87608,8.87608,0,1,1,6.6197-8.58452,8.95946,8.95946,0,0,1-.06157,1.05075l-.00271.02119q-.02945.24435-.07259.48569l-.00693.0387a8.76643,8.76643,0,0,1-.84542,2.46463l-.13715.26481a8.91525,8.91525,0,0,1-5.36029,4.22374Zm23.25415,16.92582q-.75207.75207-1.5512,1.45912l-16.88995-16.33919a12.86766,12.86766,0,0,0,1.95756-1.60362l16.75526,16.209Q461.80236,2458.74712,461.66572,2458.88372Z"
      transform="translate(-258.72906 -790.93938)" style="fill:#001e51" />
  <path
      d="M436.15522,2428.38767a4.98575,4.98575,0,1,0,4.98578,4.98571A4.99135,4.99135,0,0,0,436.15522,2428.38767Zm0,6.07849a1.09274,1.09274,0,1,1,1.09278-1.09278A1.094,1.094,0,0,1,436.15522,2434.46616Z"
      transform="translate(-258.72906 -790.93938)" style="fill:#001e51" />
  <path
      d="M553.92188,2393.50905v42.46934a36.36361,36.36361,0,0,1-2.92075,14.52483,37.25146,37.25146,0,0,1-19.81377,19.81376,37.5761,37.5761,0,0,1-29.04966,0,37.25149,37.25149,0,0,1-19.81376-19.81376,36.32128,36.32128,0,0,1-2.92075-14.52483v-42.46934h25.26057v42.46934a10.90638,10.90638,0,0,0,3.63121,8.28862,12.0107,12.0107,0,0,0,16.73513,0,10.915,10.915,0,0,0,3.63121-8.28862v-42.46934Z"
      transform="translate(-258.72906 -790.93938)" style="fill:#001e51" />
  <path
      d="M633.91976,2417.72352a39.60349,39.60349,0,0,0-21.10007-21.10008,40.87752,40.87752,0,0,0-31.29974,0,39.60349,39.60349,0,0,0-21.10007,21.10008,40.8775,40.8775,0,0,0,0,31.29973A39.60352,39.60352,0,0,0,581.52,2470.12332a40.87752,40.87752,0,0,0,31.29974,0,39.60352,39.60352,0,0,0,21.10007-21.10007,40.8775,40.8775,0,0,0,0-31.29973Zm-62.59948,15.64987h-10.1218a35.472,35.472,0,0,1,2.79718-14.11069,35.71254,35.71254,0,0,1,19.06347-19.06347,35.50873,35.50873,0,0,1,14.11069-2.79718v10.1218a25.45,25.45,0,0,0-10.10873,1.97243,25.59839,25.59839,0,0,0-13.7683,13.76815A25.42165,25.42165,0,0,0,571.32028,2433.37339Zm37.68427,0a11.56819,11.56819,0,0,0-.83046-4.56774,11.60634,11.60634,0,0,0-6.42558-6.43167,12.97132,12.97132,0,0,0-9.14628-.00486,11.60814,11.60814,0,0,0-6.43638,6.43622,11.5501,11.5501,0,0,0-.83076,4.56805h-10.1218a21.55932,21.55932,0,0,1,1.65536-8.56978,21.70983,21.70983,0,0,1,11.73162-11.73155,23.0095,23.0095,0,0,1,17.146.00305,21.70917,21.70917,0,0,1,11.72493,11.72865,21.58563,21.58563,0,0,1,1.65513,8.56963Z"
      transform="translate(-258.72906 -790.93938)" style="fill:#001e51" />
  <path
      d="M640.34633,2424.08844a15.18388,15.18388,0,0,1,2.11188-2.54978,17.768,17.768,0,0,1,5.29448-3.5037,16.02062,16.02062,0,0,1,6.46239-1.32362,15.83664,15.83664,0,0,1,8.64246,2.41366,16.98092,16.98092,0,0,1,5.83951,5.99522l20.71077-11.05612a41.65,41.65,0,0,0-14.55983-14.87127,38.69113,38.69113,0,0,0-20.63291-5.68379,39.19825,39.19825,0,0,0-15.64987,3.1144,41.43132,41.43132,0,0,0-9.83131,5.92348,44.10352,44.10352,0,0,1,9.12479,13.63742A41.48615,41.48615,0,0,1,640.34633,2424.08844Z"
      transform="translate(-258.72906 -790.93938)" style="fill:#001e51" />
  <path
      d="M662.85754,2447.69963a16.22527,16.22527,0,0,1-8.64246,2.3358,15.98,15.98,0,0,1-6.46239-1.32362,17.6761,17.6761,0,0,1-5.29448-3.5037,15.5418,15.5418,0,0,1-2.11549-2.53253,41.47325,41.47325,0,0,1-2.48342,7.88533,44.1052,44.1052,0,0,1-9.12559,13.63915,41.35084,41.35084,0,0,0,9.8315,5.92326,39.15634,39.15634,0,0,0,15.64987,3.1144,38.66951,38.66951,0,0,0,20.63291-5.68378,41.61117,41.61117,0,0,0,14.55983-14.87127l-20.71077-11.05612A15.98047,15.98047,0,0,1,662.85754,2447.69963Z"
      transform="translate(-258.72906 -790.93938)" style="fill:#001e51" />
  <path
      d="M752.21561,2427.10166l29.61809,47.22884H755.09737l-18.73144-29.458-4.48273,4.80293v24.65506H708.669v-79.72869H731.8832v23.53437l20.01222-23.53437H781.8337Z"
      transform="translate(-258.72906 -790.93938)" style="fill:#001e51" />
  <polygon
      points="625.17 1603.662 600.162 1658.045 600.162 1655.054 600.162 1631.84 600.162 1603.662 576.948 1603.662 576.948 1631.84 550.212 1631.84 550.212 1603.662 526.998 1603.662 526.998 1631.68 526.998 1655.054 526.998 1683.391 550.212 1683.391 550.212 1655.054 576.948 1655.054 576.948 1683.391 588.507 1683.391 600.162 1683.391 636.825 1603.662 625.17 1603.662"
      style="fill:#001e51" />
  <path
      d="M929.73468,2474.3305l-3.04186-6.564H889.39l-3.04186,6.564H863.134l36.66239-79.72869h19.85213l33.30033,79.72869Zm-30.73878-26.57623h18.41125l-8.80538-20.01222Z"
      transform="translate(-258.72906 -790.93938)" style="fill:#001e51" />
  <path
      d="M1030.00653,2394.60181v79.72869h-21.303l-30.55874-43.2264v43.2264h-21.303v-79.72869h21.303l30.55874,44.98747v-44.98747Z"
      transform="translate(-258.72906 -790.93938)" style="fill:#001e51" />
  <polygon
      points="801.759 1603.662 801.759 1631.84 775.17 1631.84 775.17 1655.054 801.759 1655.054 801.759 1683.391 824.973 1683.391 824.973 1655.054 824.973 1631.84 824.973 1603.662 801.759 1603.662"
      style="fill:#001e51" />
  <path
      d="M662.88572,2319.19288h2.40393v-3.03265a19.39115,19.39115,0,0,1,1.202-7.52616,7.63789,7.63789,0,0,1,4.06819-4.0682,19.7311,19.7311,0,0,1,7.859-1.27593q8.83874,0,8.83908,4.32708a3.41437,3.41437,0,0,1-.92459,2.40393,2.8817,2.8817,0,0,1-2.182.99856,15.5884,15.5884,0,0,1-2.0341-.2219,16.48705,16.48705,0,0,0-2.44092-.22191q-2.73746,0-3.51344,1.60879a10.87689,10.87689,0,0,0-.77666,4.60446v2.40393h2.4779q5.76945,0,5.76945,3.47646,0,2.47824-1.53482,3.14361a10.90339,10.90339,0,0,1-4.23463.6657h-2.4779v26.73914a6.58587,6.58587,0,0,1-1.42386,4.56748,4.73911,4.73911,0,0,1-3.67987,1.5718,4.61333,4.61333,0,0,1-3.56892-1.5718,6.58256,6.58256,0,0,1-1.42387-4.56748v-26.73914h-2.77377a5.287,5.287,0,0,1-3.47646-1.017,3.279,3.279,0,0,1-1.22045-2.64432Q657.819,2319.19322,662.88572,2319.19288Z"
      transform="translate(-258.72906 -790.93938)" style="fill:gray" />
  <path
      d="M698.94473,2344.78553v8.43226a6.50324,6.50324,0,0,1-1.44237,4.60446,4.80822,4.80822,0,0,1-3.66137,1.53482,4.62176,4.62176,0,0,1-3.58741-1.55331,6.62634,6.62634,0,0,1-1.40538-4.586v-28.10753q0-6.80431,4.91882-6.805a4.10687,4.10687,0,0,1,3.62439,1.59029,8.77361,8.77361,0,0,1,1.22046,4.69692,17.657,17.657,0,0,1,3.71685-4.69692,7.6805,7.6805,0,0,1,5.08525-1.59029,13.02228,13.02228,0,0,1,6.17626,1.59029q2.99567,1.59063,2.99567,4.21613a4.00888,4.00888,0,0,1-1.27593,3.05115,3.95842,3.95842,0,0,1-2.75528,1.202,12.66018,12.66018,0,0,1-2.68131-.6842,12.47786,12.47786,0,0,0-3.75384-.6842,5.49022,5.49022,0,0,0-3.62439,1.165,7.47241,7.47241,0,0,0-2.182,3.458,24.12991,24.12991,0,0,0-1.07253,5.45508Q698.94406,2340.23655,698.94473,2344.78553Z"
      transform="translate(-258.72906 -790.93938)" style="fill:gray" />
  <path
      d="M757.009,2338.83117a23.86823,23.86823,0,0,1-1.40537,8.32131,18.37749,18.37749,0,0,1-4.0682,6.5461,17.957,17.957,0,0,1-6.36118,4.19764,22.49657,22.49657,0,0,1-8.32131,1.46085,21.85612,21.85612,0,0,1-8.24734-1.47934,18.20121,18.20121,0,0,1-10.41088-10.74374,23.797,23.797,0,0,1-1.38689-8.30282,24.08187,24.08187,0,0,1,1.40538-8.39527,18.26506,18.26506,0,0,1,4.03121-6.50912,17.77655,17.77655,0,0,1,6.36118-4.16065,24.07729,24.07729,0,0,1,16.56865.01849,17.89656,17.89656,0,0,1,10.44787,10.72524A23.954,23.954,0,0,1,757.009,2338.83117Zm-10.1335,0q0-6.17592-2.7183-9.61573a8.82841,8.82841,0,0,0-7.30426-3.43948,9.04891,9.04891,0,0,0-5.21469,1.53482,9.72467,9.72467,0,0,0-3.47645,4.53049,20.56239,20.56239,0,0,0-.0185,13.90584,9.90768,9.90768,0,0,0,3.43948,4.53049,8.92966,8.92966,0,0,0,5.27016,1.5718,8.80933,8.80933,0,0,0,7.30426-3.458Q746.87547,2344.93381,746.87547,2338.83117Z"
      transform="translate(-258.72906 -790.93938)" style="fill:gray" />
  <path
      d="M798.54155,2339.57084v13.42505a6.89853,6.89853,0,0,1-1.44236,4.77088,4.89819,4.89819,0,0,1-3.80931,1.5903,4.75381,4.75381,0,0,1-3.71685-1.5903,6.95769,6.95769,0,0,1-1.42387-4.77088V2336.908a51.7605,51.7605,0,0,0-.25888-5.91738,6.41923,6.41923,0,0,0-1.40538-3.458,4.50246,4.50246,0,0,0-3.62439-1.3499q-4.95648,0-6.52761,3.40249-1.57248,3.40317-1.5718,9.76367v13.647a6.97434,6.97434,0,0,1-1.42387,4.75239,4.77055,4.77055,0,0,1-3.75383,1.60879,4.84026,4.84026,0,0,1-3.75384-1.60879,6.85089,6.85089,0,0,1-1.46085-4.75239V2324.1117a6.32786,6.32786,0,0,1,1.31292-4.32708,4.4008,4.4008,0,0,1,3.458-1.47934,4.69329,4.69329,0,0,1,3.458,1.38688,5.17294,5.17294,0,0,1,1.38688,3.8278v.96158a17.57023,17.57023,0,0,1,5.62151-4.623,14.83393,14.83393,0,0,1,6.65705-1.47935,13.316,13.316,0,0,1,6.54609,1.51633,11.87529,11.87529,0,0,1,4.512,4.586,17.54532,17.54532,0,0,1,5.47358-4.60446,13.97542,13.97542,0,0,1,6.47212-1.49784,14.74953,14.74953,0,0,1,7.13784,1.62728,10.36021,10.36021,0,0,1,4.475,4.65994q1.2941,2.73745,1.29443,8.61717v19.71226a6.89853,6.89853,0,0,1-1.44236,4.77088,4.89819,4.89819,0,0,1-3.80931,1.5903,4.84027,4.84027,0,0,1-3.75384-1.60879,6.85089,6.85089,0,0,1-1.46085-4.75239v-16.97547a38.90185,38.90185,0,0,0-.27737-5.21469,5.98166,5.98166,0,0,0-1.49784-3.29154,4.77622,4.77622,0,0,0-3.69836-1.33141,6.77215,6.77215,0,0,0-3.79082,1.18348,8.03628,8.03628,0,0,0-2.79226,3.18059Q798.54156,2333.09871,798.54155,2339.57084Z"
      transform="translate(-258.72906 -790.93938)" style="fill:gray" />
</svg>